<svg xmlns="http://www.w3.org/2000/svg" xmlns:xlink="http://www.w3.org/1999/xlink" viewBox="0 0 63.87 63.47">
  <defs>
    <clipPath id="b">
      <use width="100%" height="100%" xlink:href="#a" overflow="visible"/>
    </clipPath>
    <circle id="a" cx="320.66" cy="238.04" r="90.49"/>
  </defs>
  <circle cx="322.29" cy="236.56" r="90.49" fill="#faae56" transform="translate(-58.606 -35.2) scale(.28222)"/>
  <path fill="#be1b31" d="M49.37 36.7c-.74-.46-2.14-1.36-3.07-1.62-.15-.28-.3-.54-.48-.8.9-.36 1.48-1.33 1.3-2.34-.18-1.18-1.3-1.98-2.48-1.8-1.18.2-1.98 1.32-1.8 2.5.07.38.43.83.65 1.1 0 .37-.22.45-.35.6-.84-1.05-1.56-2.14-2.08-2.9-.77-1.15-2.4-.5-1.6.64.72 1.08 2.52 3.27 3.02 4 .04 1.47-.03 2.22.12 3.07.17.97.52.76 1.08.95.13.78.35 1.6.5 2.12.3 1.15 2.03.54 1.7-.6-.12-.5-.34-1.3-.6-2 .27-.04.53-.05.78-.06.3.83.82 1.76 1.13 2.3.6 1.05 2.12.02 1.53-1.02-.27-.5-.7-1.27-1.17-1.92-.12-.26-.18-1.3-.3-1.7.45.34.92.63 1.24.84 1.05.67 1.9-.7.87-1.35z"/>
  <path fill="#4d2b15" d="M32.42 25.73c-1.22 1.62-.4 4.3 1.85 6 2.24 1.68 5.05 1.74 6.27.13 1.2-1.62-2.18-.9-4.42-2.6-2.24-1.68-2.48-5.14-3.7-3.53z"/>
  <circle cx="319.06" cy="187.48" r="18.01" fill="#4d2b15" transform="translate(-58.606 -35.2) scale(.28222)"/>
  <path fill="#fff" d="M46.8 47.73c-2.87.06-10.65 11.25-28.36 1.65-.5-11.35 5.45-37.92 11.96-36.23 5.6 1.46-.96 26.55 16.4 34.58z"/>
  <g clip-path="url(#b)" transform="matrix(.27945 0 0 .27945 -57.53 -34.69)">
    <path fill="#0a8a4d" d="M234.8 184l152.95 153.45-4.56 4.55-152.95-153.46z"/>
    <path fill="#ece755" stroke="#fff04c" stroke-width=".16999830000000002" stroke-miterlimit="10" d="M230.25 188.54L383.18 342l-5.1 5.07L225.17 193.6z"/>
    <path fill="#ee3035" d="M225.6 194.06l152.94 153.46-4.96 4.94L220.64 199z"/>
  </g>
  <path fill="none" d="M2.54 19.3a31.92 31.68 0 0 0 16.9 41.54A31.92 31.68 0 0 0 61.3 44.07 31.92 31.68 0 0 0 44.4 2.52 31.92 31.68 0 0 0 2.54 19.3z"/>
  <g stroke-width=".19" style="line-height:0%;-inkscape-font-specification:'Londrina Solid'" font-size="20" font-family="Londrina Solid" letter-spacing="2.05" word-spacing="0">
    <path fill="#be1b31" stroke="#be1b31" d="M8.57 73.4l-1.36-.5-.33-.14q0-.3.13-.6l.68-1.52q3.94-.28 5.47-.26l.57.03q.57.03.6-.02.04-.12-2.62-1.13-2.66-1.02-3.05-1.15.03-.35.2-.78l.72-1.58 1.18.45 6.14 2.27q2.68 1.03 4.46 1.9-.04.3-.2.7-.14.4-.4.92-.26.5-.32.5-.5 0-1.1.05-.63.07-1.06.08-.4.02-1.92.16-1.5.15-1.53.2.04.14.9.46l2.46.9q.38.13 1.5.6-.13.6-.38 1.25-.24.66-.53 1.1l-5.46-2.1q-.95-.34-2.9-1.08zM11.82 86.26l-2.4-.7q-1.2-.32-1.8-.54l-.57-.2q-1.42-.48-2.2-1.3-.57-.72-.58-2.1 0-.7.13-1.24.14-.52.35-1.08.18-.56.6-1.08.42-.5 1.12-.62.77-.2 2.06.1 2.72.57 3.3.73 1.38.37 2.22.65 1.95.56 2.75 1.73.15.27.2.5.24 1.15-.1 2.43-.45 1.68-1.56 2.54-.6.4-1.26.43-.45.07-1.05 0-.6-.08-1.2-.24zM8.57 83l.9.26.84.23 1.2.27q.7.1 1.02.2 1.1.2 1.74-.5.17-.23.23-.46l-.12-.98q-.33-.74-1-1.14-.8-.4-1.6-.62L10.7 80q-1.98-.4-2.7-.37-.87.16-1.15 1.2-.2.75.22 1.38.3.4.46.45.17.07.47.15l.57.2zM4.04 97.4l-.5 3.95q-.05.42-.07.76h-.03q-.44 0-1.1-.07-.64-.06-1.25-.3l.45-5.13q.12-1.25.32-2.27l8.46.76q2.04.2 3.87.5-.14 3.06-.36 5.26-.22 2.2-.28 2.2-.38.02-.82-.02L11 102.8h-.02q-.1-.8.03-2.1l.1-.94q.1-1 .14-1.7V98l-1.58-.22q-.46-.05-.56.03-.16.98-.28 2.22H8.8q-.06.07-.76 0l-1.75-.2q-.08-.4 0-1.25.1-.83 0-.97-.36-.1-.94-.16-.56-.06-1.3-.06zM13.56 107.8q.03.24.02.33-.02.1-.02.47 0 .38.1 1.42l-6.43 1.48-6.34 1.36H.86q-.1-.45-.1-1.05 0-.6.17-1.37v-.02l1.45-.4q1.12-.26 1.5-.44.05-.07.05-.34l-.03-.78q-.35-.15-1.47-.37-1.13-.2-1.56-.43-.05-.16-.05-.33l.04-2.25V105q.06.03 2.06.37 2 .35 5 1 3.02.66 5.6 1.42zm-7.5.5v1.35q3.78-.43 3.78-.7 0-.06-.27-.13t-3.52-.5zM1.98 124.86l-.3-2.34q-.06-.45-.04-.63v-.03q2.9-1.6 4.27-2.97l.06-.04q-.3 0-1.23.08-.9.1-3.16.46-.25-.5-.4-1.98l-.1-.92-.02-.22q0 .07 5.68-.5 5.7-.6 6.9-.92.53 2.08.64 3.12.1 1.07.1 1.6.06 1.05-.4 1.97-.92 1.8-3.05 2.14-.1 0-.18.02-.9.1-1.8-.36-1.56-.6-1.82-2.18v-.1H7.1q-.3.22-2.16 1.72-1.83 1.5-2.96 2.06zm7.2-6.77q0 .55.04 1 .05.45.14.8.24.77 1.27.66.65-.06.93-.55.3-.4.24-.98-.05-.56-.42-1.27-.25.05-1.08.13-.83.1-1.13.2zM5.87 135.35l-1.2.3q-.23.05-.4.02-.17-.02-.2-.1-.03-.04-.06-.17l-.02-.14-.05-.26-.8-3.58q-.27-1.26-.63-3.16l.32-.07q5.47-1 6.16-1.15L15 125.7q.22.28.44 1.3.2 1 .1 1.55-.77.12-2.14.4l-6.5 1.42-.96.2q.04.1.13.5l.66 3.9.05.22zM16.87 135l.57 1.47q.16.52.1.85-.68.4-1.75 1.18-1.05.8-1.62 1.34.54.1 2.15.14 1.63.05 2.04.1.3.54.55 1.34.25.8.3 1.1-2.4 0-6.94-.65-4.52-.64-6.63-.7l-.12-.45-.56-1.6-.1-.43-.02-.04q1.96 0 6.7.4h.03q.93-.57 2.65-2.03 1.73-1.47 2.64-2.02z" transform="matrix(.28045 0 0 .28387 .148 .568)"/>
    <path fill="#be1b31" stroke="#be1b31" d="M13.98 161.53q-.15-.42-.43-1l-.6-1.16q.27-.16 2.72-1.42 2.47-1.26 3.48-1.92-.23-.02-.95.07-1.87.2-1.92.08-.06-.12.2-.44.25-.33.44-.55l.4-.42.35-.36.37-.36q-1.06.42-2.56 1.15-1.5.75-3.58 1.93-.3-.4-.62-1.06l-.55-1.2q0-.02.08-.1.1-.1 3.12-1.58 3.03-1.5 7.94-3.87.13.02.47.7l.56 1.2.13.28v.02q-.13.35-.95 1.18-.82.84-.97 1.1l-.02.12q.03.04.27 0 .25-.02.62-.08l.8-.12q1.03-.15 1.35-.08.04.14.12.28l1.12 2.1-1.1.5-3.43 1.74q-1.02.5-1.64.77zM28 160.38q.17.2.2.28.03.1.23.4.2.34.83 1.17l-4.67 4.65-4.68 4.5q-.33-.33-.64-.83-.32-.5-.6-1.26v-.02q.22-.3 1.02-1.1.8-.83 1.04-1.2 0-.08-.14-.3l-.44-.65q-.37.06-1.44.47-1.07.4-1.55.45-.12-.12-.2-.26l-1.17-1.95v-.04q.05 0 1.93-.77 1.87-.76 4.77-1.8 2.92-1.04 5.5-1.75zm-6.1 4.4l.72 1.15q2.98-2.37 2.85-2.6-.04-.05-.3.03-.28.1-3.26 1.43zM27.18 181l-1.5-1.82q-.27-.36-.36-.53 1.6-2.9 2.05-4.8l.02-.05q-.27.16-1 .73-.72.55-2.45 2.05-.47-.28-1.4-1.47l-.55-.72q-.1-.15-.14-.18.05.06 4.57-3.43 4.53-3.5 5.38-4.4 1.55 1.48 2.2 2.3.65.86.93 1.3.6.87.68 1.9.18 2-1.45 3.42l-.13.12q-.7.55-1.72.64-1.64.3-2.7-.9l-.05-.07q-.16.34-.94 2.6-.75 2.23-1.42 3.3zm2.54-9.55q.3.48.58.84.28.35.54.6.6.52 1.43-.1.5-.4.5-.97.03-.5-.32-.97-.34-.44-1.03-.86l-.85.68q-.65.53-.86.76zM35.48 189.85l-1.68-1.65q-.32-.32-.42-.48 1.28-3.06 1.52-4.98l.02-.07q-.25.2-.92.83-.65.63-2.2 2.3-.5-.22-1.55-1.3l-.64-.67q-.1-.13-.14-.16.05.05 4.17-3.9 4.13-3.98 4.88-4.97 1.7 1.3 2.43 2.07.74.77 1.06 1.2.68.78.88 1.8.4 1.97-1.08 3.55-.05.08-.12.14-.65.63-1.64.83-1.6.47-2.77-.62l-.07-.06q-.12.37-.65 2.7-.52 2.3-1.07 3.43zm1.5-9.76q.35.43.66.75.32.33.6.56.67.45 1.4-.26.48-.45.4-1 0-.52-.4-.94-.4-.4-1.13-.74-.16.2-.76.77-.6.6-.77.84zM46.68 182.7l.47.44 1.46 1.35.34.28-.05.06-5.8 6.43q-.93 1.08-2.5 3.03-.16.12-.94-.56l-1.37-1.27q-.22-.18-.28-.2.84-.84 2.1-2.3l4.05-4.76q1.52-1.74 2.42-2.55v-.02l.08.06zM53.03 188.1q.23.13.3.2.05.06.36.3.3.22 1.18.76l-2.63 6.04-2.68 5.9v.02q-.43-.2-.9-.55-.5-.36-1.02-.95.1-.36.53-1.42.45-1.06.53-1.47-.02-.1-.23-.25l-.65-.44q-.32.2-1.17.97-.84.78-1.28 1-.15-.07-.28-.16l-1.8-1.38q-.02 0-.03-.04.05-.03 1.5-1.43 1.48-1.4 3.8-3.44t4.46-3.65zM49 194.46l1.07.8q1.9-3.3 1.7-3.46-.06-.05-.28.12-.23.18-2.5 2.53zM58.6 201.88l-.6-.37q-.28-.15-.32-.22.17-.35.44-.8.28-.48.48-.87.02-.02.03 0h.04q.32 0 .72.23l.76.44q.35.2 1.02.67l.72.5.03.02v.02q-.52 1.15-1.05 2.03-.53.9-1.05 1.5-.96 1.26-2.6.96-1.35-.37-2.16-.86-.8-.47-1.2-1.04-.42-.6-.5-1.23-.12-1.04.6-2.65.88-1.83 1.34-2.6 1.25-2.07 2.13-3.1.9-1.06 1.9-1.13 1.1-.2 2.53.67 1.43.86 1.95 2.18.53 1.3-.3 2.73-.22.34-.44.6-.06.03-.85-.42-.77-.45-1.1-.72.37-1.53-.3-1.93-.12-.1-.26-.18l-.34-.18q-.2-.1-.4-.06-.17.05-.64.48-.73.7-1.56 2.07-.82 1.36-1.27 2.3-.44.93-.23 1.5.14.3.46.5.35.2.86.3.5.05.82-.28.16-.16.37-.47.23-.3.2-.45l-.2-.12z" word-spacing="1.71" transform="matrix(.28045 0 0 .28387 .148 .568)"/>
    <path fill="#be1b31" d="M18.64 59.54l1 .5.2.1-.13.3q-.07.16-.2.3l-1.3-.6-.57-.3 1-2.2q.24-.53.48-1l1.37.6q.56.27.56.3l-.08.2-.23.45q-.22-.05-.55-.2l-.24-.13-.44-.2h-.02l-.2.4q-.07.12-.06.16l.56.28v.02l-.07.2-.2.45q-.12-.02-.34-.12-.2-.1-.25-.1l-.12.24-.14.33z" word-spacing="1"/>
    <path fill="#3b2317" d="M25.16 60.14l-.2.68-.16.5-.06.17q-.14.4-.38.6-.2.17-.58.16-.2 0-.35-.04l-.3-.1q-.16-.06-.3-.18-.15-.12-.17-.32-.06-.22.03-.58l.2-.93.2-.62q.17-.56.5-.78.07-.04.13-.05.33-.07.7.04.46.12.7.44.1.17.1.36.03.13 0 .3-.02.17-.07.34zm-.93.9l.08-.24.08-.24.08-.34.06-.3q.06-.3-.13-.48-.07-.05-.14-.07l-.28.03q-.2.1-.32.27-.12.23-.18.45l-.08.3q-.12.57-.1.78.03.24.32.33.2.06.4-.06.1-.08.1-.13.03-.05.05-.13l.06-.15zM27.62 62.55l-.06.4-.02.1q-.08.02-.17 0l-.46-.1q-.27-1.1-.34-1.52l-.02-.16-.04-.17q-.04 0-.18.8l-.16.9h-.22l-.48-.13.07-.35.3-1.83q.15-.82.3-1.36h.2l.27.08q.16.04.16.06.02.15.07.3.06.18.08.3.04.1.15.53l.14.42q.03-.02.07-.27l.12-.74q0-.1.08-.44.17 0 .36.04.2.03.33.1l-.3 1.62-.14.87zM30.73 62.84l-.02.35q0 .06-.02.1-.02.05-.04.05h-.05H30.47l-1.03-.08-.9-.08v-.1l.2-1.77.1-1.75q.1-.04.4 0 .28 0 .4.08 0 .22-.04.62l-.13 1.88q0 .16-.02.28h.14l1.1.14h.06zM32.92 59.9l.44-.04q.22 0 .3.05.03.52.04 1.2 0 .7-.06 1.47-.04.35-.25.6-.26.27-.75.28-.58 0-.92-.32-.2-.2-.22-.5v-2.26q0-.47-.02-.48l.38-.03q.22 0 .34.03V61q0 .62.1 1.45.06.23.3.23.07 0 .15-.05.13-.06.16-.2.02-.47.02-1.35V59.9zM34.68 62.2l.56-.05q.04.22.27.27.1.02.2 0 .08 0 .17-.1.08-.08.06-.2-.02-.18-.1-.25-.12-.1-.2-.1-.1-.04-.17-.05h-.1l-.2-.03q-.2-.02-.38-.14-.37-.3-.42-.75-.05-.36.18-.72.15-.23.37-.36.22-.1.47-.14.36-.04.67.07.27.1.42.34.1.15.12.3.02.17 0 .3-.2.07-.4.1h-.35v-.08q-.02-.13-.14-.2-.13-.06-.2-.05-.38.04-.3.4.08.18.35.2.27 0 .5.1.26.12.43.32.22.22.26.53.04.3-.05.55-.1.32-.33.5-.24.16-.55.2-.32.03-.62-.06-.3-.1-.5-.3-.2-.22-.22-.5v-.08q.02-.02.2-.04z" letter-spacing="2.23" word-spacing="1"/>
    <path fill="#be1b31" d="M41.43 61.48l.1.36.03.1q-.06.04-.15.06l-.4.1q-.68-.8-.9-1.13l-.1-.12q-.08-.13-.1-.13-.03 0 .17.74l.23.83q-.08.04-.2.07l-.44.1-.1-.33-.45-1.66q-.2-.74-.3-1.25.08-.04.2-.07l.25-.06q.15-.03.15 0l.2.22.16.2q.07.1.34.4l.27.3q.03-.05-.03-.28l-.2-.66-.1-.42q.14-.07.32-.12.17-.04.3-.05l.4 1.47q.1.26.23.8z" letter-spacing="1.41" word-spacing="1"/>
    <path fill="#be1b31" d="M43.38 58.9l.2.62q.12.3.17.48l.04.15q.1.38.04.67-.06.23-.36.45-.15.1-.28.16l-.28.1q-.15.03-.33.02-.18 0-.3-.15-.17-.13-.3-.45l-.34-.83-.2-.58q-.17-.5-.04-.85.04-.1.07-.13.2-.23.53-.35.42-.16.78-.05.18.07.3.2l.14.23q.08.14.14.3zm-.2 1.2l-.1-.24-.07-.2-.1-.3q-.1-.18-.12-.26-.12-.27-.37-.3l-.12.02-.2.17q-.1.18-.1.38.05.24.12.44l.1.28q.22.48.34.64.16.16.43.06.2-.07.26-.26.04-.12.02-.16 0-.05-.04-.13 0-.08-.03-.15zM44.93 56.95l.08-.05q.03 0 .12-.05.1-.04.32-.2l1.1 1.34 1.08 1.32q-.1.08-.23.15-.15.07-.35.13-.08-.07-.27-.3-.2-.22-.3-.3l-.07.04-.17.1q0 .1.1.4.07.28.07.4-.03.04-.07.05l-.53.26-.17-.53q-.16-.5-.36-1.3-.2-.78-.34-1.48zm1 1.7l.33-.16q-.56-.85-.6-.82-.03 0-.02.08l.3.9zM49.54 57.58l.18.27q.04.05.04.1V58q0 .02-.04.03l-.03.02-.07.04-.8.5q-.3.2-.73.45l-.05-.08-.82-1.43-.86-1.37q.05-.08.28-.23.23-.14.37-.16l.3.5.9 1.48q.1.13.14.22l.1-.07.9-.5.06-.04zM52.85 55.66l-.23.16-.26.23-.52-.63q-.46-.56-.7-.78l.08.24q.16.47.13.5l-.12-.03-.17-.1-.12-.06-.12-.1-.1-.06q.16.25.43.6.27.34.7.8l-.24.23-.26.2h-.04l-.57-.72-1.44-1.83q0-.03.14-.16l.28-.2.06-.06q.1 0 .36.17t.33.2h.03v-.08l-.07-.16-.07-.2q-.1-.26-.1-.35l.07-.05.46-.4q.07.1.2.24l.62.78q.2.23.3.38zM51.57 52.3l.07-.08q.02 0 .1-.08l.24-.27 1.43.96 1.4.98q-.06.1-.17.22-.12.1-.3.2v.02l-.33-.2q-.26-.18-.36-.22-.02 0-.07.06l-.15.14q.04.1.2.35.16.26.2.38l-.06.07-.44.4-.3-.46q-.3-.44-.7-1.14-.43-.7-.75-1.33zm1.45 1.34l.25-.25q-.76-.66-.8-.6-.02 0 0 .07l.55.77zM55.34 53.16l-.47-.44q-.67-.62-1.38-1.23-.1.03-.27.2l-.17.18q-.06-.02-.26-.2-.2-.18-.3-.3.2-.25.4-.46l.42-.46q.23-.26.55-.54l.26.23q.14.13.27.28l-.14.15q-.1.1-.25.3 0 .02.3.3l1.57 1.4q-.05.1-.2.27l-.1.08-.2.26-.03-.04zM58.07 49.85l-.36.5-.1.14q-.84-.23-1.34-.2l-.02-.02.25.2q.18.16.67.5-.04.14-.28.45l-.16.2-.03.04q.02 0-1.16-.93-1.2-.93-1.48-1.08.28-.5.45-.72l.27-.32q.18-.2.43-.3.5-.18.96.14.03 0 .04.02.2.15.28.4.2.4-.05.75v.02l.7.06q.63.05.94.15zm-2.58 0q.1-.1.16-.2l.12-.2q.1-.18-.12-.34-.14-.1-.28-.06-.13.03-.22.15-.1.1-.15.3l.24.18q.17.13.25.17zM55.64 47.44l.1-.14.3-.43.06-.1h.02l1.86 1.3.87.55q.04.04-.1.27l-.3.4-.04.07q-.23-.2-.65-.47l-1.37-.9q-.5-.33-.75-.53v-.03zM60.26 46.25l-.15.24-.15.3-.7-.4q-.64-.34-.93-.46.02.05.15.2.32.38.3.4-.02.04-.12.03l-.2-.02-.13-.02q-.08 0-.13-.03-.08 0-.15-.02.25.17.63.38.38.22.94.5-.04.13-.14.3l-.17.3h-.03l-.8-.46-2-1.15q0-.03.08-.2l.18-.3.04-.08q.1-.03.4.03.3.05.38.05h.02q0-.03-.03-.07l-.1-.13-.16-.15q-.18-.2-.2-.28 0-.04.03-.07l.3-.56.27.15.88.5.4.23zM59.42 42.78l.6.3.43.2.14.08q.33.2.5.44.1.2.06.57-.03.2-.1.32l-.13.26q-.07.13-.2.25t-.32.12q-.2.02-.5-.1-.7-.28-.83-.35l-.54-.27q-.48-.23-.63-.57l-.04-.13q0-.3.14-.63.18-.42.5-.6.18-.07.35-.05.12 0 .27.05l.3.1zm.7 1l-.22-.12-.2-.1-.3-.12-.26-.1q-.28-.1-.47.06l-.08.1-.02.27q.05.2.2.34.2.15.4.24.18.1.26.12.5.2.68.2.23 0 .34-.25.1-.17 0-.36-.05-.1-.1-.13l-.1-.05-.14-.08zM61.92 41l.36.13.1.03-.04.16-.17.4q-1.03.1-1.43.1h-.31q0 .04.7.3.68.25.8.28l-.06.2-.18.43-.3-.1-1.62-.58q-.7-.25-1.18-.47 0-.08.04-.2l.1-.23q.07-.14.1-.14h.28l.27-.04.5-.05.4-.05q-.03-.04-.25-.12l-.65-.22-.4-.14q.03-.17.1-.34.05-.17.13-.3l1.43.53q.25.1.77.27zM59.37 39.43l.06-.16.15-.5.03-.1h.03l2.17.64 1 .26q.04.03-.03.3l-.15.46-.02.1-.77-.25-1.58-.42q-.58-.17-.88-.3v-.02zM61.24 36.4l.64.16.48.12.15.04q.38.1.6.3.16.2.18.55.02.2 0 .33l-.1.3q-.03.14-.13.3-.1.13-.28.17-.2.07-.54 0-.72-.1-.87-.14l-.6-.14q-.5-.13-.73-.42l-.06-.13q-.08-.3 0-.64.08-.44.36-.7.15-.1.32-.12.12-.02.27 0 .16 0 .32.03zm.9.83l-.24-.06-.22-.05-.32-.06q-.18 0-.27-.03-.3-.04-.45.16-.04.05-.05.1l.04.27q.1.2.27.3.23.08.44.12l.3.05q.5.07.7.05.22-.05.28-.33.04-.2-.08-.36-.08-.1-.12-.1l-.13-.03-.16-.04zM62.33 34.7l-.48-.03-1.44-.1q-.05-.3-.02-.65.02-.35.13-.67.12-.33.4-.53.25-.2.63-.2.53.04.83.52.2.34.18.68 0 .1-.03.2h.35q.27.03.85.06.03.15 0 .42 0 .26-.03.4l-1.34-.1zm-.87-.74h.37v-.03q.03-.33 0-.46-.04-.12-.08-.18-.08-.08-.15-.08-.23-.02-.33.12-.14.16-.16.38v.15l.02.07h.17zM63.8 29.76l.04.63v.15q-.8.37-1.18.7h-.02.32q.24 0 .84-.04.05.14.06.54v.29q0-.02-1.5 0-1.48.03-1.8.1-.1-.57-.1-.85v-.43q.02-.28.16-.5.28-.46.84-.5h.05q.24 0 .47.13.4.2.42.62v.02l.6-.4q.5-.36.8-.48zm-2 1.62v-.27l-.02-.2q-.05-.2-.32-.2-.17 0-.25.12-.08.1-.07.26 0 .15.08.34h.3l.3-.03zM63.03 28.47l-.08-1.05-.02-.2.3-.04q.16-.02.33 0l.15 1.36q.05.33.05.6l-2.2.26q-.53.06-1.02.08-.12-.8-.18-1.38-.06-.58-.05-.6l.2-.02.47-.04q.07.2.1.55l.03.24.06.44v.02l.42-.03q.12 0 .14-.04 0-.26-.05-.58.02-.03.2-.04l.46-.03q.04.1.06.32.02.2.04.24h.25l.33-.07zM61.85 25.24l-.04-.22q-.02-.2 0-.25.16-.08.32-.1.5-.1.87.2.25.22.32.55l.05.22q.02.1.02.3 0 .2-.13.4t-.37.27q-.4.1-.9.2l-.8.16-.32.07-.22-.02q-.27-.02-.46-.17-.1-.08-.15-.22-.1-.15-.1-.28-.1-.4 0-.66.26-.64.82-.75.17-.03.36 0 .05.1.08.26.04.17.05.42l-.16.05-.18.05q-.2.06-.23.18-.03.06-.02.1 0 .07.05.17.03.1.08.13h.06q.12.03.63-.07.5-.1.7-.17.36-.1.38-.35v-.05q-.07-.32-.48-.25l-.22.03-.03-.16zM60.25 22.5l.63-.17q.3-.1.48-.12l.16-.02q.37-.1.66 0 .22.08.4.4.1.15.15.3l.07.28q.03.15 0 .33-.02.16-.17.28-.14.15-.47.26l-.84.28-.58.15q-.52.14-.85-.02-.08-.04-.12-.08-.2-.23-.3-.57-.13-.44 0-.8.1-.15.23-.26.1-.07.25-.13.14-.06.3-.1zm1.17.3l-.24.06-.22.06-.3.1-.26.1q-.28.1-.32.34v.13l.16.2q.18.13.38.13.23-.02.44-.08l.28-.08q.5-.18.65-.3.17-.14.1-.4-.06-.2-.24-.3l-.16-.04q-.05 0-.13.03l-.15.04zM60.36 20.25l-.08-.2q-.06-.18-.06-.25.15-.1.3-.16.47-.18.9.06.3.17.4.48l.1.2q.04.12.07.3.02.18-.06.4-.1.23-.32.35-.37.16-.87.35l-.74.3-.3.1q-.07.03-.22.03-.27.02-.48-.1-.1-.05-.2-.18-.1-.15-.15-.27-.14-.38-.1-.65.15-.68.68-.88.16-.07.36-.08l.1.25q.07.15.12.4l-.15.07-.16.08q-.16.1-.18.22v.1q.02.06.08.15.05.1.1.12h.05q.13 0 .6-.2.5-.17.7-.27.32-.16.3-.4v-.06q-.13-.3-.53-.15l-.2.06-.06-.15zM60.24 18.25l-.43-.96-.08-.2.26-.13q.16-.07.33-.1l.6 1.22q.14.28.24.54l-2 1q-.48.23-.93.4-.37-.7-.62-1.22-.25-.53-.24-.54l.2-.1.4-.2q.14.17.3.48l.1.23q.1.23.2.4l.4-.16q.1-.06.1-.1l-.23-.53h.02l.17-.1.4-.2q.07.1.17.3.1.2.13.2.1 0 .23-.08.14-.06.3-.16z" font-size="16.88" letter-spacing="1.41"/>
  </g>
  <g fill="#4d2b15">
    <path fill-rule="evenodd" d="M7.92 13.22c-.02.14-.05.26-.1.36-.15.33-.37.42-.67.28l-.13-.08-.22.55c.02.03.24.18.68.46l.78.46c.2.1.35.12.48.1 0 .13-.04.34-.17.62-.07.15-.18.2-.34.12-.28-.14-.56-.3-.84-.5l-.83-.62-.24.64c.22.1.36.25.44.44.06.18.05.4-.06.6-.02.1-.06.13-.1.15l-.24-.3-.06-.03c-.06-.03-.15-.07-.28-.1l-.02-.1c.1-.17.17-.4.26-.64l.22-.68c-.34-.23-.56-.37-.67-.42-.17-.1-.3-.07-.4.06.02.15-.04.4-.18.7l-.03.04-.03.02c-.06-.12-.15-.2-.26-.25-.04-.02-.15-.03-.34-.02.02-.13.08-.3.17-.48.05-.13.1-.2.16-.25.07-.07.16-.07.27-.02.07.03.15.08.26.16l.12-.3.1-.3c.04-.05.08-.1.15-.14.07 0 .15.02.2.05.13.07.25.14.36.22.06.04.18.12.35.26l.5-1.25.06-.05c.1.1.18.18.26.2.07.05.2.06.4.03z" clip-rule="evenodd"/>
    <path d="M6.57 16.88l-.02-.03-.24-.3s-.02 0-.03-.02l-.27-.1h-.04l-.03-.16v-.02c.1-.17.17-.4.26-.64l.2-.62c-.3-.2-.5-.33-.6-.38h-.02c-.18-.1-.26-.05-.3 0 0 .18-.06.43-.2.73 0 .02-.02.04-.04.05l-.1.08-.04-.07c-.05-.1-.12-.18-.22-.23 0 0-.08-.03-.32-.02h-.1l.03-.1c.02-.13.08-.3.17-.48.05-.13.1-.22.18-.28.1-.1.2-.1.35-.04l.2.13.08-.23.12-.3c.03-.07.08-.12.16-.17h.04c.08 0 .17 0 .23.05.14.06.26.13.37.2l.06.05.22.16.46-1.17.13-.12.04.05.23.2c.05.02.15.04.37 0h.04l.05.06v.03c-.03.15-.07.27-.12.38-.16.37-.43.48-.76.32l-.07-.03-.17.4c.05.05.2.15.63.43l.8.47c.17.08.32.1.42.08l.07-.02v.08c.02.16-.04.38-.17.67-.08.2-.23.24-.43.16-.3-.14-.58-.32-.85-.5l-.02-.03-.3-.23-.43-.3-.2.48c.22.1.35.26.43.45.07.2.06.44-.05.67-.05.1-.1.16-.16.17zm-.2-.45c.02 0 .03 0 .04.02.1.1.16.2.2.26.02 0 .04-.03.05-.06.1-.2.1-.4.05-.56-.06-.17-.2-.3-.4-.4-.07.24-.15.44-.23.6v.04c.1.02.2.05.26.08zM5.15 14.4c-.1-.06-.16-.03-.2 0-.04.03-.1.1-.15.23-.08.14-.12.27-.16.38.22 0 .28.03.3.04.1.05.17.1.23.2.12-.28.18-.5.17-.65v-.05c.02 0 .02 0 .02-.02l-.22-.14zm2.3 1.14c.26.2.54.35.82.5.14.06.2 0 .24-.1.1-.2.16-.38.17-.5-.12 0-.26-.03-.44-.1-.08-.05-.3-.2-.8-.5-.57-.36-.66-.44-.68-.46l-.08-.05-.3-.22-.05-.03c-.1-.07-.2-.13-.35-.2l-.16-.04-.08.1-.1.3-.08.18c.08 0 .17 0 .3.07h.02c.12.06.32.2.66.43l.02-.03.56.42.33.24zM7 13.7l.06.03.12.07c.26.12.45.04.58-.24l.08-.27c-.16 0-.28 0-.35-.05h-.03c-.07-.03-.13-.1-.2-.18h-.02z"/>
    <path fill-rule="evenodd" d="M11.45 10.74c-.1.17-.33.14-.63-.07-.05-.04-.12-.1-.22-.16s-.17-.1-.22-.15c-.18-.12-.32-.2-.44-.22-.18-.03-.32.03-.42.2-.02.02-.05.07-.08.15l.46.5c.17.2.34.34.5.45.07.04.14.08.24.1.05-.02.1-.04.14-.04v.03c-.1.18-.18.34-.25.44-.08.12-.16.2-.25.24-.08-.02-.1-.04-.12-.05-.17-.12-.35-.28-.55-.5l-.5-.53c-.16.26-.2.54-.1.85.1.27.3.5.55.7.08.04.2.07.3.05 0 .1-.1.27-.3.56-.04.06-.1.1-.16.15-.08-.02-.16-.06-.22-.1-.43-.3-.62-.67-.6-1.1.04-.26.2-.65.47-1.2-.3-.28-.6-.52-.84-.7l-.18.22-.15.28c-.06.13-.1.22-.15.28 0 .02-.02.03-.02.03-.1-.14-.2-.24-.26-.3-.1-.06-.2-.08-.32-.08.02-.1.08-.2.17-.34.2-.3.43-.36.7-.17l.15.1c.13-.3.24-.5.3-.58l.08-.08.1.04c.12.1.25.2.38.34l.37.37c.16-.3.26-.52.32-.6.2-.32.5-.4.85-.22.1.05.23.13.38.24l.2.15.2.15c.14.1.27.13.38.1 0 .12-.1.3-.25.52z" clip-rule="evenodd"/>
    <path d="M9.4 13.5h-.03l-.23-.12c-.45-.3-.65-.7-.6-1.15 0-.26.16-.65.42-1.18-.28-.26-.52-.47-.74-.63l-.14.17c-.05.06-.1.16-.15.26-.07.15-.1.23-.16.3 0 0-.03.03-.05.03l-.05.02-.04-.05c-.1-.15-.17-.23-.23-.28-.07-.06-.16-.08-.28-.08h-.1l.03-.1c.03-.1.08-.2.18-.35.23-.34.5-.4.8-.2l.1.06c.1-.25.2-.43.26-.52l.05-.05.06-.05h.07c.07.04.1.04.1.06.12.08.25.2.4.33l.22.23.06.06c.14-.3.22-.47.28-.54.23-.34.55-.43.94-.24.1.05.23.13.4.25 0 0 .06.04.1.1l.1.05c.05.05.12.1.2.14.1.1.23.12.3.1l.1-.04v.1c-.02.14-.1.32-.27.56-.13.2-.37.2-.7-.05l-.24-.16c-.06-.05-.1-.1-.15-.12l-.06-.04c-.17-.1-.3-.18-.42-.2-.14-.03-.25.02-.34.16l-.06.1.43.47c.16.18.33.33.5.45.06.04.12.06.18.08l.15-.03h.06l.02.12v.02l-.27.44c-.1.13-.2.22-.3.27h-.04l-.15-.07c-.14-.1-.32-.27-.53-.5l-.08-.07c-.1-.08-.2-.2-.38-.4-.1.22-.13.46-.04.72.08.25.25.47.5.65.08.05.17.07.26.05h.08v.07c0 .1-.1.3-.3.6-.06.07-.12.13-.2.17zm-.5-1.97c-.14.3-.22.54-.24.72-.03.4.15.73.56 1 .05.05.1.08.17.1l.1-.1c.14-.2.22-.36.26-.45-.1 0-.18-.03-.25-.08-.27-.2-.46-.45-.55-.73-.06-.17-.08-.32-.06-.47zm.23-.5l.03.04.43.47.06.08c.2.2.38.36.54.47 0 0 .03 0 .08.03.07-.04.13-.1.2-.2l.2-.33h-.06c-.1-.02-.17-.05-.25-.1-.18-.13-.35-.3-.52-.47l-.5-.54-.16-.17c-.1-.12-.2-.2-.24-.24-.13-.14-.25-.25-.37-.33 0 0-.03 0-.05-.02l-.04.04-.25.47c.24.18.52.4.85.72l.03.03zM7.2 10.7c.12.02.2.05.28.1.06.04.13.12.22.24l.1-.22c.06-.1.1-.2.17-.3l.1-.13-.1-.08c-.25-.18-.44-.13-.63.15l-.13.23zm2.64-.63h.1c.14.04.3.1.48.24.02 0 .04.02.06.04l.17.1.2.18c.28.18.45.2.54.08.1-.17.18-.3.22-.4-.1 0-.22-.05-.33-.13-.08-.04-.15-.1-.2-.14l-.1-.06-.1-.1c-.16-.1-.28-.18-.38-.22-.33-.16-.57-.1-.77.2-.04.04-.1.16-.17.3.08-.06.16-.1.26-.1z"/>
    <path fill-rule="evenodd" d="M13.64 6.9c-.3.22-.58.16-.84-.18l-.44.33c0 .05.12.3.37.78.25.47.4.75.48.85.08.1.16.16.25.18.08-.03.15-.07.18-.1l.2-.17c-.1-.24.04-.5.4-.76.05-.04.1-.06.13-.07.05.2.1.33.14.4.07.1.2.16.34.17 0 .08-.08.2-.28.35-.27.2-.52.2-.73 0-.06.05-.2.17-.38.35-.15.15-.28.26-.38.34-.14.1-.25.08-.35-.05-.17-.23-.33-.52-.48-.85-.07-.17-.2-.48-.42-.93l-.5.42c.3.4.2.8-.26 1.16l-.04.02H11c0-.22-.06-.38-.13-.48-.03-.04-.1-.1-.22-.17.07-.1.24-.3.54-.55l.58-.48c-.25-.43-.37-.65-.4-.68-.04-.06-.08-.1-.1-.1l-.16-.02h-.08c.02-.1.2-.26.5-.5.05-.04.1-.06.2-.07.06.04.12.08.16.14.05.07.2.3.4.72l.95-.83c.04-.04.1-.06.14-.06.03.17.08.3.13.35.07.1.18.15.34.2-.04.08-.12.16-.23.24z" clip-rule="evenodd"/>
    <path d="M12.9 9.52c-.1 0-.16-.04-.23-.13-.18-.24-.34-.53-.5-.87l-.07-.18-.3-.67-.38.32c.2.3.28.76-.32 1.2-.02.03-.04.04-.06.04l-.1.03V9.2c-.02-.22-.06-.37-.13-.46 0-.02-.05-.07-.18-.15l-.06-.05.03-.06c.06-.13.25-.3.55-.57l.2-.17.34-.28-.2-.3-.17-.32-.1-.1c0 .02 0 .02-.02 0h-.1-.08l-.06-.03v-.06c.03-.07.1-.2.53-.52.06-.05.14-.08.22-.1h.02l.02.02c.08.04.14.1.2.15.06.1.2.33.36.66l.88-.76c.05-.05.12-.08.18-.08h.06v.05c.07.18.1.27.15.3.04.1.14.14.3.17l.07.02-.03.06c-.04.1-.13.2-.25.3-.33.23-.63.18-.9-.15l-.36.28c.04.12.26.55.35.72.25.5.4.75.46.84.06.07.13.12.2.15l.13-.1.14-.13c-.06-.25.1-.52.45-.8.05-.03.1-.06.15-.07h.07v.06c.05.2.1.32.14.38.06.08.15.12.3.14h.04v.05c.03.1-.07.24-.3.42-.28.2-.54.22-.77.04l-.34.3c-.16.16-.3.27-.4.34-.06.06-.13.08-.2.08zm-1.06-2.07l.04.1c.15.3.26.57.34.74l.08.17c.15.33.3.6.48.84.06.1.1.1.12.1.04-.02.08-.03.13-.07L13.4 9l.08-.07h-.05c-.1-.03-.2-.1-.28-.2l-.48-.86c-.3-.56-.36-.72-.38-.8l-.02.02-.04-.08c-.22-.42-.35-.65-.4-.7-.03-.05-.07-.1-.13-.12-.04 0-.1.03-.13.06-.25.2-.36.3-.42.37h.14l.14.15c0 .02.06.1.2.32l.2.36zm-1.1 1.06c.1.07.15.12.18.15.07.1.12.24.14.43.4-.33.48-.68.2-1.05h-.03c-.28.25-.4.4-.48.48zm3.13.14c.2.2.4.18.64 0 .17-.12.23-.2.26-.24-.14-.02-.24-.1-.3-.18-.06-.07-.1-.18-.15-.36 0 0 0 .02-.03.03-.33.24-.46.47-.4.67l.02.04zm-1.05-2l.03.03c.25.32.48.37.75.17.07-.06.13-.1.17-.16-.14-.04-.23-.1-.3-.2-.04-.05-.1-.16-.13-.3l-.05.04z"/>
    <path fill-rule="evenodd" d="M17.3 4.06c-.32.13-.34.6-.04 1.36l.16.37.1.25c.1.23.2.33.3.28.24-.1.3-.4.22-.9-.05-.3-.15-.64-.3-1-.05-.1-.1-.2-.17-.27-.1-.1-.18-.14-.26-.1zM18.4 6c-.06.04-.18.14-.35.3-.2.2-.38.35-.5.4-.32.13-.57 0-.73-.4-.18-.45-.27-.8-.3-1.1 0-.4.13-.75.42-1l-.3-.82c0-.02-.05-.07-.16-.18.08-.07.27-.17.6-.3 0 0 .03-.02.08-.02.04.05.1.2.2.44 0 .05.04.14.1.3l.1.23c.4-.16.73.02.95.55.1.3.16.56.17.83 0 .34-.1.6-.3.76z" clip-rule="evenodd"/>
    <path d="M17.3 6.82c-.24 0-.43-.17-.57-.5-.17-.44-.27-.82-.3-1.12 0-.4.13-.76.4-1.03l-.26-.76-.16-.15-.03-.05.05-.05c.08-.08.27-.18.6-.32l.12-.02h.03l.02.04c.02.03.07.12.2.46l.1.3.06.16c.43-.13.77.08 1 .6.1.3.17.6.18.87 0 .35-.1.63-.32.8l-.2.2-.15.1c-.22.24-.4.38-.53.43-.08.04-.16.06-.23.06zm-.73-3.6l.12.12.3.87-.03.04c-.27.25-.4.57-.4.96.03.28.12.64.3 1.07.14.36.35.48.62.36.07-.03.18-.1.3-.22-.12.03-.23-.08-.33-.32l-.16-.37-.1-.25c-.32-.82-.3-1.3.08-1.45.1-.05.23 0 .34.1.08.1.14.2.18.3.15.37.25.7.3 1 .06.33.06.57 0 .74l.02-.02.2-.18c.2-.16.28-.4.28-.7 0-.27-.06-.54-.18-.8-.2-.5-.48-.68-.87-.53l-.06.04-.13-.3-.1-.3c-.1-.24-.14-.34-.17-.38h-.03c-.24.1-.4.2-.5.25zm.8.9h-.04c-.28.12-.28.55 0 1.28l.1.25.16.37c.1.24.17.25.18.25h.02c.2-.08.26-.37.17-.84-.05-.3-.15-.6-.3-.98-.03-.1-.1-.17-.15-.25-.04-.04-.1-.1-.15-.08z"/>
    <path fill-rule="evenodd" d="M20.2 2.04c-.27.08-.32.42-.16 1.02.08.27.14.4.2.38.12-.04.2-.22.28-.56.07-.3.08-.53.04-.66-.05-.18-.16-.23-.35-.18zm2.3.9c-.38.1-.64-.04-.76-.46-.22.03-.4.07-.48.1h-.04c-.07.44-.4.74-1 .9.1.2.23.4.4.6.18.23.36.38.52.48l.64-.17c.27-.06.44.02.5.2.02.12.1.2.2.26l.08.06c-.04.04-.13.1-.3.14-.46.14-.76-.03-.9-.5l-1.23.42.03.14c.08.23.02.4-.15.53l-.56.22h-.04c0-.07.03-.16.05-.28 0-.03 0-.06-.03-.1 0-.05-.03-.12-.06-.2l.03-.07c.2-.08.5-.2.94-.4-.53-.6-.86-1.08-.97-1.48-.1-.38 0-.73.3-1.02.23-.23.55-.4.97-.53.3-.08.48.03.56.35.03.08.04.2.03.34.17-.03.37-.1.6-.17l.55-.2c.04 0 .08 0 .1.04l.04.2c.03.12.14.25.3.4-.06.07-.16.12-.3.16z" clip-rule="evenodd"/>
    <path d="M19.45 5.94l-.13-.02v-.07c.03-.07.04-.16.06-.27l-.02-.06c0-.05-.04-.1-.07-.2l-.02-.02.05-.13h.03l.87-.37c-.5-.56-.8-1.04-.92-1.43-.1-.4 0-.78.3-1.1.26-.23.6-.4 1.02-.54l.18-.03c.16 0 .37.07.47.43.02.07.03.16.03.28.14-.02.3-.06.5-.14l.52-.18h.04c.02-.02.03-.02.05-.02.06 0 .1.02.14.07h.02v.03l.02.15v.05c.04.1.13.22.3.37l.05.05-.05.05c-.08.08-.2.14-.35.18-.1.03-.17.04-.24.04-.2 0-.47-.08-.6-.48-.18.02-.33.05-.42.08-.08.42-.4.72-.95.9.1.16.2.33.34.5.16.2.32.35.48.44l.6-.16c.07 0 .12 0 .16-.02.3 0 .4.15.44.3.02.08.08.15.17.2l.07.04.1.06-.05.06c-.05.06-.16.12-.34.17-.47.14-.8-.03-.97-.48l-1.1.38.03.07c.08.26.02.46-.2.6-.05.05-.24.13-.56.24zm-.02-.64l.06.18.02.1-.04.2c.37-.13.46-.18.5-.2.14-.1.18-.24.12-.44l-.03-.12-.63.26zm2-.75c.13.43.4.57.8.44l.2-.08c-.1-.07-.2-.17-.22-.3-.02-.07-.07-.18-.3-.18-.02 0-.07 0-.1.02zm-1.5-2.36c-.08.05-.16.1-.22.18-.28.28-.37.6-.26.95.1.4.43.87.95 1.44l.02.04.64-.2c-.16-.1-.33-.27-.5-.47-.16-.2-.3-.4-.4-.6v-.06c-.07-.06-.13-.18-.18-.4-.12-.4-.13-.7-.05-.88zm.4-.1h-.1c-.07.03-.12.07-.16.13-.08.15-.07.42.04.8.08.25.12.32.14.34.05-.03.13-.13.2-.5.07-.28.1-.5.05-.63-.04-.14-.1-.15-.17-.15zm.07-.14c.1 0 .18.08.23.24.04.15.02.4-.04.7-.06.2-.1.35-.16.45.42-.17.65-.43.7-.77l.02-.1c0-.14 0-.24-.02-.3-.08-.3-.23-.34-.33-.34-.04 0-.1 0-.14.03-.1.02-.18.05-.26.1zm1.4.46v.04c.1.38.34.5.7.4.1-.02.17-.05.22-.1-.15-.14-.23-.26-.26-.37v-.07c-.02-.03-.02-.07-.03-.12h-.06l-.5.2c-.03 0-.05 0-.07.02z"/>
    <path fill-rule="evenodd" d="M25.23 1.76c-.23.04-.42.15-.57.34-.1.13-.2.34-.3.6-.1.28-.14.5-.1.7 0 .16.1.24.27.2.17 0 .36-.28.57-.8l.36-1.06-.2.02h-.03zm2.1-.17h-.18l-.1.66c-.04.32-.05.55-.03.68 0 .12.1.17.25.15.16-.04.26-.2.32-.52.04-.25.05-.47.02-.67-.03-.2-.12-.3-.28-.3zm.15 1.5l-.4.1c-.2.06-.34.1-.45.1-.2.04-.33-.04-.35-.2-.03-.17 0-.38.05-.65l.14-.65v-.04c0-.04-.03-.07-.07-.1-.04-.02-.08-.03-.12-.02-.1 0-.25.27-.42.77-.06.18-.1.35-.17.52l-.2.5c-.07.1-.2.17-.4.2l-.25.02-.24.02c-.06 0-.15.04-.27.08-.12.05-.22.07-.28.08-.16.03-.28 0-.38-.04-.12-.06-.2-.17-.2-.3-.06-.34.06-.7.34-1.07.28-.36.6-.56.94-.6.14-.03.93-.15 2.4-.35v.1c.25-.05.42-.1.53-.1.36-.06.57.1.63.5.05.38.02.64-.1.8-.12.2-.36.3-.72.36z" clip-rule="evenodd"/>
    <path d="M23.93 3.9c-.1 0-.2-.02-.3-.06-.13-.07-.2-.2-.24-.35-.06-.37.06-.75.35-1.13.3-.38.6-.6.98-.65l2.4-.34h.07v.1c.22-.06.37-.1.46-.1l.12-.02c.23 0 .5.1.58.6.06.38.03.66-.1.84-.13.2-.4.32-.76.38-.08 0-.22.04-.42.1l-.44.1c-.25.03-.4-.07-.43-.28-.02-.16 0-.38.06-.66l.14-.65v-.03s0-.03-.04-.05h-.06c-.04 0-.15.05-.38.7l-.16.53c-.06.18-.14.36-.2.5-.08.12-.22.2-.46.24H24.86l-.22.03h-.02c-.04 0-.13.03-.27.08l-.3.1h-.12zm.9-2.06c-.04 0-.07 0-.08.02-.33.04-.63.24-.9.6-.26.34-.37.68-.32 1 .02.13.08.2.17.26.1.04.2.06.34.03l.26-.07c.02 0 .03 0 .05-.02-.1-.04-.15-.13-.17-.26-.03-.2 0-.43.1-.7.1-.3.2-.5.33-.65.07-.08.15-.15.23-.2zm.7-.1v.02c-.2.6-.3.92-.37 1.07-.15.38-.3.62-.43.75h.1c.1 0 .16-.02.2-.03h.05c.18-.03.3-.1.34-.16.08-.15.15-.32.2-.5.06-.17.1-.34.17-.52.14-.4.24-.62.33-.72l-.6.08zm-.3.1c-.2.02-.38.13-.52.3-.1.12-.2.32-.3.6-.08.26-.1.47-.1.64.04.15.1.17.18.17h.04c.1-.02.27-.17.5-.78.07-.13.17-.43.34-.95zm1.22-.22c.06.04.08.08.1.13v.07l-.16.65c-.06.26-.08.46-.05.6 0 .15.1.2.27.16.13-.02.28-.05.43-.1h.02c-.07-.03-.1-.1-.12-.18-.02-.14 0-.38.03-.7l.02-.1.08-.55v-.07l-.63.1zm1.02-.07c.1.04.2.14.22.35.02.22 0 .45-.04.7-.04.2-.1.35-.18.44.34-.06.56-.16.66-.32.1-.15.14-.4.1-.75-.06-.36-.25-.5-.56-.46l-.2.05zm-.27.12l-.07.5v.1c-.06.38-.06.57-.04.66 0 .05 0 .1.12.1h.04c.12-.03.2-.18.27-.47.04-.22.05-.44.02-.64-.03-.22-.14-.25-.2-.26h-.14z"/>
    <path fill-rule="evenodd" d="M33.28 1.22c-.23 0-.44.07-.62.23-.13.1-.27.3-.4.54-.15.24-.23.47-.23.65 0 .17.07.26.24.27.17 0 .4-.23.7-.7.08-.14.27-.46.54-1h-.22zm2.1.22c-.03 0-.1 0-.2-.03l-.2.63c-.1.32-.15.54-.15.67 0 .12.08.2.22.2.16 0 .3-.15.4-.45.1-.24.15-.45.16-.65 0-.2-.06-.33-.22-.36zm-.12 1.52h-.43c-.2.03-.33.03-.44.03-.22-.02-.33-.1-.32-.28 0-.17.06-.37.16-.62l.25-.6v-.05c0-.04-.02-.08-.05-.1-.04-.05-.08-.06-.12-.06-.1-.02-.3.2-.54.67l-.27.48c-.1.2-.2.34-.3.45-.06.1-.2.13-.42.12-.04 0-.12 0-.23-.02l-.24-.02c-.06 0-.16 0-.3.03-.12.03-.2.04-.28.03-.15 0-.27-.04-.36-.1-.12-.08-.17-.2-.16-.34 0-.36.2-.7.53-1 .33-.3.68-.46 1.02-.44l2.4.1v.1l.54-.02c.36 0 .54.23.52.63 0 .37-.1.62-.23.77-.15.15-.4.22-.77.22z" clip-rule="evenodd"/>
    <path d="M32.9 3.1h-.1l-.23-.03h-.17l-.07-.02c-.05 0-.15 0-.28.03l-.26.02h-.05c-.15 0-.3-.04-.4-.12-.12-.1-.18-.22-.18-.4 0-.36.2-.7.55-1.03.35-.32.7-.48 1.07-.46h.36l2.05.1h.08v.1l.46-.03c.2 0 .34.07.44.18.1.1.16.3.15.52 0 .4-.1.66-.25.82-.16.16-.44.23-.82.23h-.42c-.2.03-.34.03-.45.03-.35 0-.4-.22-.4-.35 0-.15.07-.36.18-.63l.25-.6c0-.03 0-.05-.03-.1h-.07c-.02 0-.14.02-.48.63l-.2.35-.06.13c-.1.2-.22.35-.3.47-.08.1-.22.14-.4.14zm-.43-.18h.1l.24.03c.2 0 .33-.02.38-.1.1-.1.2-.25.3-.44l.06-.1c.06-.13.12-.25.2-.37.2-.38.34-.56.44-.65-.23 0-.43 0-.6-.02-.28.53-.47.86-.55 1-.22.34-.4.56-.56.66zM34.5 1.3c.05.05.07.1.07.15v.07l-.27.6c-.1.26-.15.45-.16.6 0 .1.03.2.25.2.1 0 .24 0 .43-.02h.02c-.06-.05-.1-.1-.1-.2.02-.13.06-.35.17-.7l.05-.15.15-.46v-.07l-.6-.03zm-1.77-.07c-.3 0-.6.14-.92.42-.3.3-.48.62-.5.94 0 .1.05.2.13.27.08.06.2.1.32.1h.04c.04 0 .12 0 .23-.03h.05c-.1-.06-.13-.16-.12-.3 0-.2.08-.42.23-.68.13-.26.28-.45.4-.56.1-.07.18-.13.28-.17h-.1-.05zm2.54 1.66c.33 0 .58-.07.7-.2.14-.14.2-.38.22-.73 0-.2-.04-.34-.12-.43-.08-.08-.2-.12-.34-.13-.06 0-.13 0-.22.02.1.05.16.17.15.38 0 .22-.05.44-.14.68-.08.2-.16.33-.26.4zm-.03-1.4c-.05.12-.1.25-.13.4l-.05.15c-.1.33-.15.53-.15.65 0 .04 0 .12.16.13.16 0 .27-.22.34-.4.1-.23.13-.43.14-.63 0-.23-.1-.28-.17-.3h-.06-.06zm-2-.2c-.2 0-.38.07-.54.2-.12.1-.25.3-.4.53-.13.24-.2.45-.2.62 0 .13.04.2.17.2.1 0 .3-.12.64-.67.1-.12.25-.42.5-.88H33.23z"/>
    <g>
      <path fill-rule="evenodd" d="M39.58 1.9c-.27-.03-.44-.1-.52-.2-.05-.1-.1-.28-.12-.57h-.1c-.45-.08-.82.18-1.1.74-.18.4-.3.86-.4 1.43 0 .16 0 .3.07.4.08.1.2.18.35.2.1.02.3 0 .53-.03.03-.14.14-.24.33-.3.17-.04.33-.06.5-.03.08 0 .14.03.16.07-.1.13-.16.25-.17.37-.03.1.02.23.12.37-.1.06-.24.08-.4.05-.3-.05-.5-.2-.54-.44-.46.04-.8.05-1 0-.48-.05-.7-.28-.65-.66.1-.66.2-1.13.35-1.42.23-.48.6-.76 1.1-.84.37-.05.94-.03 1.72.08-.03.18-.04.3-.03.38 0 .1.03.23.08.38-.06.04-.15.05-.27.03z" clip-rule="evenodd"/>
      <path d="M38.97 4.47h-.17c-.3-.05-.5-.2-.57-.43-.42.03-.75.03-.96 0-.3-.04-.5-.14-.6-.3-.1-.1-.13-.27-.1-.45.1-.68.2-1.15.35-1.45.24-.5.63-.8 1.15-.87.37-.07.94-.04 1.74.07h.07v.08c-.03.18-.04.3-.03.37 0 .1.03.2.08.36v.07l-.04.02c-.08.04-.2.05-.3.02-.3-.03-.48-.12-.57-.24-.07-.1-.1-.34-.12-.54l-.06-.02c-.4-.05-.75.2-1 .72-.2.38-.32.85-.4 1.4-.02.16 0 .27.05.36.06.1.16.16.3.18.1 0 .24 0 .46-.03.04-.13.16-.24.36-.3.17-.04.34-.06.5-.03.07 0 .17.03.22.1l.03.04-.03.05c-.1.12-.15.23-.17.33 0 .08.04.2.13.32l.04.07-.06.03c-.08.05-.18.07-.3.07zm-.63-.54v.02c.05.2.2.33.48.37.12.02.22.02.3 0-.08-.14-.1-.25-.1-.35 0-.1.06-.23.14-.35l-.08-.02c-.14-.02-.3 0-.45.04-.17.05-.26.13-.28.24zm.07-2.84h-.3c-.5.1-.83.35-1.06.8-.14.3-.25.76-.34 1.4-.02.16 0 .27.07.37.1.12.26.2.52.23.06.02.16.02.27.03-.1-.05-.17-.1-.22-.2-.07-.1-.1-.26-.07-.44.08-.58.22-1.07.4-1.46.2-.4.45-.66.73-.75zm.6 0v.03c.04.37.1.5.12.52.06.1.23.16.47.2h.17c-.04-.14-.07-.25-.07-.34l.02-.32-.7-.08z"/>
    </g>
    <g>
      <path fill-rule="evenodd" d="M41.92 1.43c-.17-.03-.36.1-.57.45-.18.27-.3.5-.34.72 0 .08 0 .13.03.17.02.02.07.05.15.06.2.05.4-.06.6-.33.18-.22.3-.43.34-.66.05-.23 0-.36-.2-.4zm.2 3c-.12.13-.2.23-.25.33l.02.1.05.08c-.08.04-.25.02-.52-.04-.25-.06-.36-.14-.34-.24.02-.12.15-.3.4-.58L42 3.5c.1-.1.18-.23.2-.34 0-.06-.05-.1-.1-.12-.17.05-.34.05-.53 0l-.76-.16c-.2-.05-.34-.14-.4-.27-.07-.12-.07-.3-.02-.5.16-.7.75-.94 1.77-.7.23.06.4.14.48.27.1.12.1.3.04.54-.05.26-.2.5-.45.74-.02.1.04.17.18.2h.14l.13.03c.1.03.16.1.14.2-.04.13-.14.3-.33.54l-.43.53z" clip-rule="evenodd"/>
      <path d="M41.83 5.03c-.1 0-.23-.02-.42-.06-.1-.03-.42-.1-.38-.32.03-.14.17-.34.42-.6l.28-.32.25-.27c.1-.1.16-.2.18-.3 0 0 0-.03-.04-.05-.16.06-.33.06-.53.02l-.74-.17c-.23-.06-.38-.16-.46-.3-.07-.15-.07-.33-.02-.57.17-.74.8-1 1.86-.74.26.05.43.15.53.28.1.15.12.34.06.6-.07.27-.22.52-.46.75V3c0 .02.04.05.12.06l.14.02c.05 0 .1 0 .15.02.14.04.2.14.18.28-.03.15-.15.34-.33.57-.1.1-.23.27-.44.52l-.22.3v.05c.04.03.06.06.07.1l.03.05-.05.03c-.04.02-.08.03-.15.03zm.46-1.88v.03c-.04.12-.1.25-.23.38l-.25.27-.28.3c-.28.3-.37.47-.38.55 0 .05.1.1.3.15.16.04.28.06.36.06l-.02-.15v-.03c.06-.08.13-.2.26-.34l.43-.52c.2-.26.28-.42.3-.5 0-.07 0-.1-.08-.12l-.13-.02-.16-.02c-.06 0-.1-.03-.15-.05zm-.2-.18h.03c.03 0 .05.02.07.04v-.1h.03c.23-.23.37-.46.43-.7.05-.23.04-.4-.04-.5-.08-.1-.22-.18-.44-.23h-.07c.04 0 .06.04.07.07.04.08.05.18.02.32-.06.23-.18.46-.36.7-.18.22-.36.34-.55.35l.3.08c.18.04.34.04.5 0zm-.63-1.6c-.55.02-.88.26-1 .74-.03.22-.03.37.02.48.05.1.17.2.36.23l.16.05c-.02 0-.03-.02-.04-.04-.05-.04-.06-.12-.04-.22.05-.22.16-.46.35-.74.13-.23.28-.38.42-.45-.1-.02-.18-.02-.25-.02zm.4.13c-.14 0-.3.14-.47.42-.17.26-.28.5-.32.7-.02.05-.02.1 0 .1l.12.05c.17.04.35-.07.54-.3.16-.22.27-.43.3-.65.04-.1.03-.17 0-.22 0-.05-.06-.08-.14-.1h-.03z"/>
    </g>
    <g>
      <path fill-rule="evenodd" d="M48.2 3.8c-.17-.08-.37 0-.6.25-.15.17-.28.37-.37.58-.07.15-.07.24-.02.26.06.02.16 0 .3-.05.04 0 .13-.05.28-.12.24-.1.42-.28.53-.53.04-.07.05-.16.04-.23-.02-.08-.06-.14-.14-.18zm.03 3.1c-.18.07-.48.02-.9-.18-.1-.05-.25-.16-.43-.32s-.32-.27-.44-.32c-.22-.1-.38-.17-.47-.17l-.07.16c-.07.2-.2.3-.43.33-.18 0-.36-.03-.56-.12-.06-.02-.1-.05-.13-.08l.22-.13c.07-.06.12-.1.14-.2l.06-.23c.06-.03.2 0 .42.06l.27.08c.12.04.2.05.28.06-.02-.43.08-.9.3-1.37.37-.86 1-1.08 1.9-.67.46.2.63.46.5.76-.15.3-.36.5-.63.6-.28.08-.58.05-.9-.1-.08-.03-.17-.08-.25-.14l-.04.1c-.37.8-.28 1.33.25 1.57.32.13.54.05.68-.27.03-.07.03-.2 0-.36H48l.78.33.04.03.02.02-.3.3-.3.24z" clip-rule="evenodd"/>
      <path d="M48.04 7c-.18 0-.43-.07-.73-.2-.1-.07-.27-.18-.45-.35-.2-.17-.32-.27-.42-.3-.2-.1-.33-.15-.4-.16l-.03.1c-.08.2-.24.32-.5.36-.2.02-.38-.02-.6-.1l-.14-.12-.05-.06.08-.04.14-.1c.03 0 .05-.02.05-.02.07-.06.1-.1.12-.16l.06-.23V5.6l.03-.02c.06-.04.2-.03.46.05l.27.1c.07 0 .13.02.18.03 0-.42.1-.86.3-1.32.4-.9 1.08-1.13 2-.7.3.13.5.28.55.46.05.12.04.25-.02.4-.15.32-.36.53-.67.62-.3.1-.6.06-.93-.08l-.2-.12v.02c-.22.47-.28.85-.18 1.1.06.18.2.3.4.4.26.1.44.04.57-.24 0-.03.03-.1-.02-.3l-.02-.1h.14c.23.1.5.2.8.34l.04.03.1.1-.08.04-.23.2-.07.1c-.15.13-.25.2-.32.25-.06.03-.14.04-.22.04zm-.52-.27c.3.12.54.15.68.1l.28-.24.08-.1.17-.14-.67-.3c.02.14.02.23 0 .3-.13.26-.3.4-.54.37zm-2.58-.53s.02 0 .03.02c.18.08.36.12.53.1.2-.03.3-.12.37-.28l.06-.18h-.04c-.1-.03-.2-.06-.27-.1-.16-.04-.27-.06-.34-.06h-.02c0 .05-.03.12-.06.2-.02.08-.07.16-.16.23l-.07.04-.06.03zm1.3-.3l.25.1c.08.06.2.13.35.26l-.03-.06c-.1-.3-.06-.7.17-1.22l.07-.17.03.04c0-.06.02-.14.07-.24.1-.23.23-.44.38-.6.14-.15.27-.25.4-.28-.65-.17-1.1.1-1.4.78-.22.47-.32.92-.3 1.33v.08zm1.07-.93c.04 0 .07.03.1.04.28.14.56.17.83.1.26-.1.45-.27.58-.57.05-.1.06-.2.03-.28-.06-.14-.2-.27-.45-.38 0 .03.02.05.03.08.02.1 0 .2-.03.28-.1.27-.3.46-.56.56l-.28.12-.2.05zm-.05-.14s.07 0 .23-.05c.04 0 .22-.1.27-.1.23-.1.4-.27.5-.5.02-.07.03-.14.02-.2 0-.06-.04-.1-.1-.13-.13-.05-.3.02-.5.24-.16.15-.28.34-.38.56-.06.12-.06.17-.06.17z"/>
    </g>
    <g>
      <path fill-rule="evenodd" d="M52.6 8.33c-.12-.04-.23-.1-.33-.16-.28-.22-.33-.45-.14-.72l.1-.12-.5-.32-.56.6c-.35.4-.55.62-.6.7-.13.17-.2.32-.18.45-.15 0-.34-.1-.6-.3-.12-.1-.14-.2-.04-.34.18-.25.4-.5.64-.74l.74-.7-.56-.36c-.15.2-.32.32-.5.36-.2.03-.4-.03-.6-.17-.07-.06-.1-.1-.1-.15l.33-.18c.02 0 .04-.03.06-.05l.14-.27h.1c.15.12.35.25.58.38l.6.35c.3-.3.48-.5.55-.6.12-.16.12-.3.02-.4-.17-.02-.4-.13-.66-.32-.02 0-.03-.02-.04-.04l-.02-.02c.13-.05.22-.1.3-.2.03-.06.06-.17.1-.36.1.05.25.14.42.26.1.08.18.15.2.2.06.1.05.2-.02.3-.04.06-.1.13-.2.22l.26.17c.12.06.2.12.26.16.05.03.1.08.12.16-.02.07-.05.14-.1.2-.07.1-.16.22-.25.3-.06.06-.16.17-.32.3l1.13.73.04.07c-.13.08-.2.15-.26.2-.04.08-.07.2-.1.4z" clip-rule="evenodd"/>
      <path d="M50.46 8.82h-.08c-.15 0-.34-.1-.62-.3-.16-.12-.18-.28-.06-.45.2-.27.4-.52.66-.76.02 0 .1-.07.22-.2l.45-.43-.44-.28c-.15.17-.32.3-.52.32-.22.04-.42-.02-.64-.17-.1-.07-.14-.13-.14-.2V6.3h.04c.08-.05.2-.1.34-.2l.02-.03c.04-.05.08-.13.14-.25l.02-.04H50l.03.02c.18.12.37.25.58.37l.58.32.5-.55c.1-.16.08-.25.03-.3-.16-.03-.37-.13-.65-.34-.02 0-.03-.02-.04-.04l-.06-.1.08-.03c.12-.04.2-.1.26-.18.02-.03.04-.1.08-.32l.02-.1.07.05c.13.05.27.13.45.26.13.1.2.17.24.23.06.12.05.24-.04.36-.03.05-.08.1-.16.18.06.05.12.1.2.13l.27.17c.07.05.1.1.14.2v.04c-.02.08-.05.16-.1.22-.1.13-.18.24-.27.32l-.08.1c-.06.03-.1.08-.18.14l1.07.7.06.13-.06.03c-.1.07-.2.13-.24.2-.02.03-.06.12-.08.35v.04l-.06.03h-.04c-.13-.04-.25-.1-.35-.18-.32-.23-.37-.5-.16-.8l.05-.07-.37-.26-.53.55-.6.68c-.12.16-.17.3-.16.4zm0-1.4c-.25.22-.46.47-.64.73-.08.1-.07.18.02.25.2.15.36.24.48.27 0-.13.07-.26.18-.42l.62-.7c.45-.5.54-.58.58-.6l.06-.07.23-.22.08-.08c.08-.08.16-.17.25-.3.03-.04.05-.1.07-.16-.02-.05-.04-.08-.08-.1-.05-.05-.14-.1-.25-.17l-.18-.1c0 .08-.04.17-.1.28l-.56.6v.02l-.05.06c-.23.22-.4.4-.53.5l-.22.22zm1.86-.08l-.04.05c-.04.02-.08.06-.1.1-.16.23-.12.42.13.6.08.06.16.1.25.14.02-.16.05-.28.1-.35.05-.07.12-.13.22-.2zm-2.86-.96l.06.06c.2.13.36.18.54.15.17-.05.32-.15.45-.33-.18-.1-.37-.23-.53-.35h-.03l-.12.23-.07.08c-.12.06-.2.12-.3.15zm1.7-1.16c.26.18.45.28.6.3h.02c.02 0 .02.02.03.03.1-.08.15-.15.2-.2.04-.08.05-.14 0-.2 0-.06-.08-.12-.18-.2-.13-.1-.24-.16-.34-.2-.03.14-.05.23-.1.28-.05.08-.13.15-.22.2z"/>
    </g>
    <g>
      <path fill-rule="evenodd" d="M53.12 11.7c-.14-.17-.17-.38-.08-.65-.15-.06-.32-.16-.5-.3-.16-.14-.3-.28-.4-.43-.14-.16-.18-.33-.16-.5.03-.2.13-.34.3-.47.23-.2.65-.23 1.25-.12l.64.13c.5.1.83.05 1.03-.1.04-.04.06-.1.07-.2.14.04.3.18.52.45.08.12.1.2 0 .27-.22.2-.58.24-1.07.17l-.7-.12c-.62-.1-1.07-.04-1.35.18-.1.08-.15.18-.16.3-.02.13 0 .24.1.34.06.1.23.22.46.35.15-.1.3-.1.5-.02.15.06.3.17.4.3l.04.1c-.1.04-.2.08-.28.14-.12.1-.2.26-.22.5-.14-.04-.27-.15-.4-.32z" clip-rule="evenodd"/>
      <path d="M53.58 12.1l-.08-.02c-.15-.04-.3-.15-.44-.33-.14-.18-.17-.4-.1-.66-.15-.08-.3-.17-.46-.3-.16-.14-.3-.28-.43-.43-.13-.18-.18-.37-.15-.57.03-.2.13-.37.3-.5.27-.2.7-.25 1.33-.14l.28.06.35.07c.46.08.8.04.98-.1 0 0 .03-.03.04-.14V9h.08c.16.03.34.18.56.46.07.1.1.17.1.24 0 .05-.04.1-.08.13-.25.2-.63.25-1.14.18-.1 0-.2-.03-.37-.06l-.33-.05c-.6-.1-1.03-.05-1.3.16-.08.06-.12.15-.13.25-.03.12 0 .2.06.3.05.05.16.16.43.32.14-.08.3-.08.5 0 .16.06.3.17.42.32.03.04.06.08.07.13v.07l-.06.02c-.1.02-.2.06-.26.1-.1.1-.16.24-.2.46zm-.47-1.04c-.07.25-.05.44.07.6.1.13.2.2.3.26.04-.2.1-.36.23-.46.06-.05.14-.1.23-.12l-.02-.02c-.08-.12-.2-.22-.35-.27-.17-.07-.3-.07-.43 0zm-.2-1.82c-.26 0-.45.06-.6.16-.14.12-.22.26-.25.42-.02.16.02.32.13.46.1.12.2.23.33.34-.05-.1-.07-.2-.05-.32 0-.14.08-.26.2-.35.3-.24.76-.3 1.4-.2l.32.05.37.07c.47.07.82.02 1.03-.15l.02-.04c0-.02 0-.06-.07-.13-.16-.2-.3-.34-.4-.4-.02.08-.05.13-.1.15-.2.18-.56.22-1.08.13l-.35-.07-.28-.06c-.23-.04-.44-.06-.62-.06z"/>
    </g>
    <g>
      <path fill-rule="evenodd" d="M56.05 12.26c0-.02-.03-.04-.05-.05-.1.03-.2.1-.33.17-.23.15-.33.3-.3.42l.08.14c.06.08.14.1.25.05l.24-.17c.13-.08.2-.17.22-.25 0-.1-.02-.2-.1-.32zm-.07 2.9c-.25-.4-.2-.7.17-.97l-.18-.3-.08-.13-.07-.03c-.44.18-.74.34-.92.47l-.05.16c-.1-.03-.26-.18-.44-.44-.03-.07-.05-.13-.06-.2.03-.06.08-.1.14-.15.33-.22.66-.37.98-.45l-.2-.25c-.17-.24-.26-.43-.3-.6-.03-.22.06-.4.28-.57.32-.22.67-.3 1.06-.2.38.1.68.3.9.62.58.84.9 1.4.98 1.64-.17.07-.27.13-.3.15-.12.1-.2.2-.25.36l-.08-.1c-.16-.22-.23-.43-.2-.6 0-.2.12-.37.35-.53-.1-.18-.17-.3-.2-.38-.18-.25-.38-.43-.62-.53-.28-.12-.53-.1-.77.06 0 .04.05.12.14.24 0 .03.04.06.07.1.04.06.07.1.1.12.2.3.2.53 0 .7l-.14.12-.3.22.78 1.16v.06c-.17.05-.27.1-.3.12-.07.04-.14.16-.23.34-.07-.03-.14-.1-.22-.2z" clip-rule="evenodd"/>
      <path d="M56.24 15.45l-.06-.02c-.1-.05-.17-.12-.26-.24-.26-.4-.2-.75.14-1.03-.05-.1-.1-.17-.15-.24l-.07-.12c0 .02 0 .02 0 0-.4.18-.68.33-.87.45l-.06.2-.06-.03c-.13-.03-.3-.17-.5-.46-.03-.08-.06-.15-.07-.23v-.04l.17-.16c.3-.2.6-.36.9-.44l-.12-.17c-.18-.22-.3-.43-.32-.62-.05-.25.05-.46.3-.63.34-.24.7-.3 1.1-.22.4.1.73.3.96.65.57.84.9 1.4.98 1.66l.02.06-.06.02-.28.14c-.1.08-.18.18-.22.32l-.02.05h-.1l-.1-.12c-.15-.23-.23-.45-.2-.65 0-.2.12-.38.33-.54-.07-.15-.13-.26-.17-.3-.16-.25-.35-.42-.58-.52-.24-.1-.46-.1-.66.03 0 .04.02.1.1.18l.05.1.05.06c0 .03.03.05.04.06.27.4.16.66 0 .8l-.14.12-.26.18.77 1.12v.13l-.04.02-.3.1c-.02.03-.08.08-.2.32zm0-1.23l-.05.03c-.35.24-.4.5-.16.86.04.08.1.13.14.17.1-.22.17-.28.2-.3.05-.04.14-.08.28-.12zm1.5-1.13c-.2.13-.3.3-.33.47 0 .16.06.35.2.56.06-.12.14-.2.24-.28.03-.02.1-.07.25-.13-.06-.14-.18-.35-.35-.63zm-3.33.64l.07.14c.16.24.27.34.34.38l.05-.1h.02c.2-.15.5-.3.93-.5h.06l.05-.04.32-.2.13-.13c.16-.16.16-.36-.02-.62l-.04-.06-.06-.07v-.02c0 .02 0 .04-.02.06-.03.1-.1.2-.24.3l-.25.16c-.1.03-.16.03-.22 0l.08.1-.1.03c-.32.06-.64.2-.96.43l-.1.1zm1.53-1.44l-.22.12c-.2.14-.3.26-.27.35l.08.13c.04.04.07.07.17.03.02 0 .1-.06.24-.15.1-.08.17-.15.2-.22 0-.07-.03-.15-.1-.26l-.02-.02-.05.02zm.33-.27c.2-.08.42-.08.64.02.1.05.2.1.3.18l-.05-.07c-.22-.3-.5-.5-.87-.6-.36-.08-.7 0-1 .2-.2.14-.28.3-.25.5.03.15.12.32.26.52-.02-.15.1-.3.33-.47.12-.07.24-.13.36-.16h.05l.02-.02.2-.1z"/>
    </g>
  </g>
</svg>
