<svg xmlns="http://www.w3.org/2000/svg" width="228.2" height="222.5" xmlns:xlink="http://www.w3.org/1999/xlink">
  <g transform="translate(-206.76 -128.036)">
    <circle cx="322.3" cy="236.6" r="90.5" fill="#faae56"/>
    <path fill="#faae56" d="M410.6 236.6c.3-4 .2-10.3-1.2-18-1.4-7.4-4-16-8.4-24.2-4.3-8.2-10-15.8-16.2-22-6-6-12.5-10.6-17.6-13.6-8-4.6-14.5-7-19.4-8.6l3 1c3.7 1.2 9.7 3.6 16.4 7.6 6 3.5 12.6 8.4 19.3 15.3-4-4.3-8.4-8.3-12.8-11.5-4.4-3.3-8.6-6-12.3-7.8-5.6-2.7-11.4-4.8-17.5-6.3-13.6-3.4-27.6-3.6-41-.8-13.2 2.8-26 8.7-36.8 17-4 3-10 8.4-15 14.6-5 6-9 13-11.2 17.3 9-18.3 24-33.3 42.4-42 9-4.6 19-7.4 29-8.6 10-1.2 20.3-.8 30.2 1.4l-3.2-.7c-10.4-2-21.2-2-31.8-.3-10.5 1.8-20.7 5.4-30 10.7l-9.3 6c3-2 6-4 9.3-6 8.2-4.6 17-8.2 27-10.3 6.3-1.3 13.6-2 20-1.7 5.2 0 10 .7 14.8 1.7 3.2.6 6.3 1.3 9.3 2.2l2.8.8c-2-1-8-3-17-4.4-4.3-.7-9.4-1-14.7-1-5.4 0-11 .7-16.7 2-5.6 1-11.2 2.8-16.3 5-5.2 2-10 4.6-14 7.2-8.2 5.2-13.7 10.7-16 13-3.8 4-7 8-9.8 12.6-3 4.5-5.5 9.3-8 14.8-1.5 3.6-2.8 6.7-3.6 9.7l-.7 3.3c-2 7.6-3.5 15.5-3.3 21.6 0 2.2-.4 6.2-.5 10-.2 3.6 0 6.8.2 7.3.8 1.5 1 1.7 1 2.7.2 1 .3 3 1.6 8 .3 1.2 2 5 2.7 7.2 1.4 3.8 2.5 6.3 3.8 8.8 1.4 2.5 3 5 5.5 9 4 5.8 6.8 9 9.5 12.2 2.8 3 5.6 5.8 10.6 9.5.5.5 4.8 3.6 9.2 6.2 4.3 2.5 8.8 4.5 8.8 4.5 6.8 3.3 12.8 5 18.3 6.4 5.6 1.2 11 2 16.8 2.7 7 0 15-.5 23-2s15.7-4.2 22.2-7.5c6.5-3.4 11-6.2 15-9 4-3 7.8-6 12.3-10.5 2.6-2.7 4.3-5 5.7-6.5 1.5-1.6 4-6.2 6-9.3l-.2 1c.7-1 2-3.2 2.5-4.3.6-1 .6-.8.5-.5 0 .7-.2 1.3 1-.6 2.4-4.4 4.6-9.3 6.3-14.5 1.5-5.2 2.4-10.5 3-15.7-.2-.3-.3-.7-.3-1.4l.2-4.7c-.2-1-.6-.6-.7-1.3-.5 0-.8-1.6-1.2-3-.3-1.4-.7-2.6-1-1.8-.2.3-.3 2.6-.6 5.3-.2 2.6-.7 5.7-1 7.6-.4.8-.4-1.3-.6-2.2-.2 2.5-.5 3.8-.7 4.2-.2.4-.2 0-.2-1 0 1-.3 2.2-.3 2.2l-.2-1.2c-1.3 6-3.3 12.4-6 18.4-2.7 6-6 11.5-9.3 16.6-1.4 2-4 5.7-5.8 8l-4 4c-1.3 1.6-1 1.7-1.3 2.5-1.6 1.6-4 3.4-6.4 5.2-2.5 1.8-5.2 3.6-7.8 5.2-5 3-9.3 5-8.8 5.4l-7.5 3.2c-2 1-4.2 1.7-8 2.7-4.8 1.2-10.5 2.2-16.5 2.5-6 .4-12.5 0-18.8-1-7-1-13.4-2.8-19.6-5.3-2.4-1-4.6-2-6.7-3.2-11.3-5.7-20.6-13.4-27.8-22-7.3-9-12.6-18.6-16-29-3.4-10.2-5-21-4.5-32.3.5-11.2 3-22.6 8-34 5-11.2 12.8-21.6 22.4-30 9.6-8 21-14.3 32.8-17.8 12-3.6 24.3-4.4 36-3 11.6 1.4 22.5 5.2 32 10.4 9.3 5.3 17.2 12 23.3 19 6.3 7 10.8 14.3 14 21.2 3.2 7 5 13.2 6.2 18.6 1 5.4 1.6 9.7 1.8 12.7.3 2.3.5 4.7.6 7z" opacity=".8"/>
  </g>
  <path fill="#be1b31" d="M175.8 126.8c-2.6-1.7-7.6-5-10.8-5.8-.6-1-1-2-1.7-2.8 3.2-1.3 5.2-4.7 4.6-8.3-.8-4.3-4.7-7.2-9-6.5-4 .7-7 4.7-6.3 9 .3 1.2 1.5 2.8 2.3 3.8 0 1.3-.8 1.5-1.2 2-3-3.7-5.5-7.5-7.4-10.2-2.7-4-8.5-1.7-5.7 2.3 2.6 4 9 11.6 10.8 14.2 0 5.2 0 8 .4 11 .5 3.4 1.8 2.6 3.7 3.3.5 2.7 1.3 5.7 1.8 7.5 1 4 7.2 2 6-2.2l-2-7h2.7c1 2.8 3 6 4 8 2 3.7 7.4 0 5.4-3.6-1-1.7-2.5-4.5-4.2-6.8-.4-1-.6-4.6-1-6l4.4 3c3.7 2.3 6.7-2.5 3-4.8z"/>
  <path fill="#be1b31" d="M176.3 126c.6.5 1.5 1.3 1.8 2.6.5 1.4-.2 3-1.7 4-.8.2-1.7.3-2.5 0-.4 0-.8-.3-1.2-.5l-1-.5-1.5-1-.5-.5-.4-.3v.2c.2.4.2 1 .3 1.4v1l.3 1c0 .4 0 .8.2 1l.6 1 1.2 1.8 2 3.5c.3.5.6 1 .7 1.7v1.7c-.7 1.7-2 2.6-3.3 2.8-.7 0-1.3 0-1.8-.4-.5-.3-.8-.7-1-1l-.2-.3c0 .3.4.7 1 1.2.4.4 1.5.8 2.5.4 1-.3 2.2-1 2.7-2.5.2-.5.2-1.2 0-2l-.4-.8-.5-1-2.3-4 2.8 5.3c.4 1 .4 2 0 2.6-.2 1-.8 1.5-1.3 2-.8.4-2 .7-3 .3l-1-1-.8-1.3c-1.3-2.4-2.5-4.7-3.4-7.2-1 0-2.3 0-3 .2l.6 2.2.6 2 .5 2c.3.7.5 1.3.5 2 0 1.3-1 2.5-2.2 3h-2c-.6-.3-1-.8-1.3-1.3l-.4-1.4-.4-1.7-1-3.8v-1l-.2-.7s-.3 0-.5-.2l-2-.4c-.8-.5-1-1.6-1-2.4 0 .6 0 1.2.4 1.7.2.4.7.6 1.3.7h.5c.2.2.4.2.5.2l.6.2v.5c.3.7.4 1.3.5 2l1 3.6c0 .6.2 1.3.4 1.8 0 .6.4 1 1 1.4.8.6 2 .4 3-.3 1-.6 1.6-1.8 1.3-3l-1-3.6-.5-2-.8-2c1-.4 2.3-.4 3.2-.4h.2v.2l3 6.4-.4-1c-1-1.8-1.8-3.6-2.5-5.4v-.3H162.5c-.3 0-.6 0-1 .2h-.6l.5 2 .3.8.2.7 1 3 .2 1.5v1.3c-.4.8-1 1.5-2 1.8-1 .4-2 .2-2.7-.6.6.8 1.7 1 2.8.6 1.3-.5 2.2-1.8 2-3.2l-1.5-4.7-1-3.3h.8c.3-.2.6-.2 1-.2H164.4v.2l.5 1c.6 1.6 1.3 3 2 4.5l1.5 2.8c0 .2.3.5.5.7 0-.2-.3-.5-.6-1l-1-2c-.8-1.7-1.8-3.7-2.6-6l-.2-.5h-2.2c-.3 0-.6 0-1 .2h-1l.8 2.4.3 1 .2.6 1 3v1.5c.2.3 0 .7 0 1-.4.7-1 1.2-1.8 1.4-.8.2-1.4 0-1.8-.2-.5-.3-.7-.8-.8-1.4l-.8-3-.6-2.5-.2-.7c0-.3 0-.6-.2-1v-.4h-.2l-.3-.2-1-.3c-1 0-1.5 0-1.8-.7-.4-.5-.6-1.4-.7-2.4l-.3-3.3v-7l-.5-.5-.2-.3-.5-.6c-1-1.3-3-4.8-3-5-1.2-.5-.4 0-2.4-2.7l-1.7-2c-1-1-1.4-1.8-2-2.5-.5-.8-1.3-1.5-1.3-2.6 0-.8.6-1.3 1.2-1.5h1.7c.5.3 1 .5 1.5 1l.7.8.7 1 4.2 5.7c.8 1.3 1.7 2.4 2.5 3.4l.3.4.3-.4c.3-.3.7-.5 1-1 .3-.5.4-1 .3-1.5l-.5-.5-.3-.6-.7-1-.5-1.2v-1.2c-.3-1 0-2.3.4-3.4.4-1 1.3-2.2 2.3-3 2-1.4 5-1.6 7-.7 2 .8 3.2 2.2 3.7 3.6.6 1.5.8 3 .2 4.8-.4 1-.8 1.8-1.2 2.3-.2.3-.5.7-1 1-.2.4-.4.6-.6.7l-1.4.8.4-.3-1.4.6.7 1c.3.6.2.5 0 .3-.2 0-.5-.5 0 .6l.4.5v.5l.4.5.5 1c0 .2.3.2.4.3l.6.2c.8.2 1.5.6 2.3 1 1.5.6 3 1.4 4.5 2.2h.4l1.4.8h.5c.3-.3 2.2.6 2 0-.2 0-2.6-1.7-3.7-2.5-.2-.2.4 0 .7 0-1.4-.8-1.5-1-.8-.7l-.7-.4h.4c-1.5-1-3-1.8-4.7-2.6l-1.3-.6v-.2l-.5-.6v-.2l1.4-1.3c.7-.8 1.6-2.4 1.8-3.6l.5-2.4c0-.8-.2-.7-.3-1 0-1-.2-2-.7-3.2-.5-1-1.3-2.2-2.2-3-1.7-1.6-3.7-1.8-3.6-1.6-1.4-.4-2.2-.3-3 0-1 0-1.8.2-3 1-1.7.8-3.3 2.5-4 4.6-.3 1-.5 2.3-.4 3.4 0 .6.2 1.3.5 1.8.2.6.5 1 1 1.5.2.6.7 1.2.8 1.4v.7l-1 1h1l-1.6-2-1.5-2-3.5-5.2-1-1.3c-.2-.4-.6-.8-1-1.2-1-.7-2-1-3.2-1-1 0-2.4.6-3 1.8-.2.7-.2 1.3 0 2 0 .5.2 1 .5 1.4 1 1.7 2.2 3 3.3 4.6l7 9 .3.5.2.4v4.2c0 2 0 4 .5 6.2l.6 2c0 .4.3.7.7 1 .3.2.7.4 1 .4l1 .2c.2 0 .5 0 .6.2l.4 1.6c.2 1.3.6 2.6 1 3.8l.4 2c.3.6.7 1.3 1.4 1.7 1.3 1 3 .6 4-.2.6-.3 1-1 1.4-1.5.3-.7.3-1.4.2-2l-1-4-.6-1.7-.5-1.3.4-.2h1.7l-.4-.3c1.2 3 2.6 5.8 4 8.5.6.7 1.3 1.3 2.2 1.5.8.2 1.7 0 2.4-.4 1.5-.8 2.4-2.5 2-4 0-.6 0-1-.2-1.3l-.5-1-1-1.7-2-3.3-.6-.8v-.6l-.3-1.8v-1l-.3-.8c0-.3.2 0 .3 0l.5.4.4.3.5.5 1 .5.3.3c.2 0 .3.2.5.3.6.3 1.4.5 2 .5 1.6 0 2.8-1 3.3-2 .6-1 .5-2 .3-2.7-.4-1-1.2-1.8-2-2.3z" opacity=".8"/>
  <path fill="#4d2b15" d="M114.8 88c-4.4 5.6-1.4 15 6.5 21 8 6 18 6.3 22.2.6 4.3-5.8-7.7-3.2-15.6-9.2-8-6-9-18.3-13.2-12.5z"/>
  <path fill="#4d2b15" d="M114 87.2l1-1c.6-.4 1.4-.8 2.2-.6 1 .2 1.6 1 2 1.6.4.6.8 1.3 1 2l2.2 4 1.8 3 2 2.6c.6.5-.6-.6-2-2.7l-2-3.2c.8 1.7 1.6 3.3 2.4 4.5.6.7 1.2 1.5 2 2.2 1.6 1.5 3.5 2.6 5.5 3.5 2 .8 4.2 1.4 6.3 2l3.2.8 1.6.6c.5.2.7.5.8.8-.2-.5-.8-.8-1.5-1l-2.3-.7-4.7-1.2c-3-1-6-2.2-8.6-4.4l.4.3c2.7 2.2 6 3.5 9.3 4.4l1.7.5-1.7-.5c-1.5-.4-3-.7-4.5-1.4-1-.4-2-1-2.8-1.5l-2-1.5-1-1c0-.2-.3-.3-.4-.4.2.2.8 1 2 2 1 1 2.6 2 4.3 2.7 3.3 1.6 7 2.3 8 2.6.8 0 1.6.2 2.3.4.2 0 .3 0 .5.2h.3c.4 0 .5.3.6.6 0 .4-.2.5-.4 1l-.2.4c-.6 1-1.6 1.6-2.3 2.2-.2.2-.8.3-1.3.4-.6 0-1 0-1 .2-.4.6-.2.2-1.6.5l-1 .3-3 .2c-1 0-1.7-.2-2.2-.4-.6 0-1.2-.3-2.2-.4l-1.6-.4-1.4-.6c-2-1-3.4-1.7-4.6-3.2-2-1-3.5-3.4-4.7-5.3-1-1.8-1.3-2.8-1.6-4.7l-.2-1.2c0-.3-.3-1-.3-1.6v-.6c.2 0 .3 0 .4-.2 0-.7.2-1.4.4-2 0-.7.2-1.4.4-2V90v-.7-.3c-.5-.2-.2-1.3-.7-1.3l-1.4 1.7V89c-.4.7-.6.8-.5.4l-.2.3v-.2c-1.2 2-1.7 5-1.2 7l.7 1.8.3 1c.2.3.4.2.5.3.2.8.7 2 1.2 3 .5.8 1 1.5 1.2 1.3.6 1 1 1 1.7 2 1.2 1.3 2.8 2.8 4.5 4l3 1.8 1 .5c2 1 3.8 1.6 5.7 2 1.8.3 3.6.4 5.5 0 1.8 0 3.7-.7 5.3-2 .8-.5 1.6-1.2 2.2-2l.8-1.3c.3-.6.5-1.4.3-2 0-.7-.7-1.2-1.3-1.5l-1.5-.5-3-.7c-2-.4-4-1-5.8-1.5-2-.7-3.6-1.6-5-2.7-1.5-1-2.7-2.4-3.7-3.7-2-2.8-3-5.6-4.3-8l-1-1.5c-.3-.4-1-1-1.6-1.4-.6-.3-1.3-.2-1.8 0-.6 0-1 .4-1.3.7l-.8 1.2z" opacity=".8"/>
  <g transform="translate(-206.76 -128.036)">
    <circle cx="319.1" cy="187.5" r="18" fill="#4d2b15"/>
    <path fill="#4d2b15" d="M336 187.5c0-.8.2-2 0-3.5-.3-1.4-.8-3-1.6-4.7-.8-1.6-2-3.2-3-4.4-1.3-1.3-2.5-2.2-3.5-2.8-1.6-1-3-1.5-4-1.8-.8-.2 1.3.2 4 1.8 1 .7 2.4 1.7 3.6 3-1.4-1.8-3.3-3.2-4.7-4-1.2-.6-2.4-1-3.6-1.4-5.4-1.3-11.2 0-15.6 3.2-.8.6-2 1.7-3 3-1 1-2 2.5-2.4 3.4 1.8-3.7 5-6.7 8.6-8.5 3.7-2 8-2.4 12-1.5h-.7c-4.2-1-8.7-.3-12.5 2-.7.2-1.3.6-2 1 .7-.4 1.3-.8 2-1 1.7-1 3.4-1.8 5.5-2.3 1.2-.2 2.7-.3 4-.3 1 0 2 0 3 .4.6 0 1.3.2 2 .4 0 0 .3 0 .4.2-.3-.2-1.5-.7-3.3-1-1.8-.4-4.2-.5-6.5 0-2.4.4-4.7 1.3-6.4 2.4-1.7 1-3 2-3.3 2.7-1.6 1.7-2.5 3.6-3.5 5.8-.3.7-.6 1.4-.7 2v.7c-.4 1.5-.8 3-.7 4.4l-.2 2v1.5c.6.6 0 0 .6 2.2l.6 1.4c.5 1.8 1 2.2 2 3.8 1 1 1.4 1.8 2 2.5.5.6 1 1.2 2.2 2l2 1 1.7 1c1.5.6 2.7 1 3.8 1.2l3.4.6c1.4 0 3 0 4.6-.3 1.6-.3 3.3-.8 4.6-1.5l3-1.8c1-.6 1.7-1 2.7-2 .7-.5 1-1 1.3-1.3.4-.2.8-1.2 1.2-2v.4l.6-1h.2c0 .2 0 .4.4 0l1.4-3c.3-1.2.4-2.3.5-3.4l-.2-.3v-1s-.3 0-.4-.2c-.5 0-.8-1.3-1.2-1 0 0-.2 1.8-.5 2.5 0 .2-.2-.2-.3-.4-.2 1-.3 1-.4.5v.6l-.2-.3c-.6 2.3-2 4.6-3 6.5-.4.4-.8 1-1 1.6l-1 .7v.8c-.6.5-1.7 1.3-2.7 1.8-1 .6-1.8 1-1.6 1.2-1.2.6-1.4 1-2.8 1.3-2 .6-4.4 1-7 .5-1.2-.2-2.5-.6-3.7-1l-1.3-.6c-4.3-2.4-7-6-8.4-10-1.2-4-1.2-8.5.6-13 2-4.4 6-8 10.7-9.4 4.7-1.4 9.7-.5 13.3 1.6 3.7 2 6 5.2 7 8 1.3 2.6 1.4 4.8 1.5 6l.2 1.3z" opacity=".8"/>
  </g>
  <path fill="#fff" d="M166.7 165.8c-10.2.2-37.7 40-100.4 6-2-40.3 19.3-134.5 42.3-128.5 19.8 5.2-3.4 94 58 122.5z"/>
  <path fill="#fff" d="M165.8 167.7c-2.5-1.4-6.5-3.6-11-7-4.3-3-9-7.5-13.2-12.6-4-5-7.6-10.8-10-16.4-2.7-5.5-4.4-10.7-5.5-14.7-1.7-6.2-2.6-11-3.2-14.6l.4 2.2c.5 2.7 1.4 7 3 12.3 1.2 4.5 3 10 6 16-3.4-7.6-5.4-15.4-6.6-21-1-4-2-8.3-2.7-12.6-1.7-9.3-2.7-18.7-3.7-28-.5-4.6-1-9.3-2-14-.4-2.2-1-4.5-1.7-6.8-.8-2.2-1.8-4.5-3.7-6.3-.8-.6-1.7-1.2-3-1.6-1-.3-2.3-.5-3.6-.3-2.7.2-5.3 1.8-7.3 3.7-2 2-3.7 4.2-5 6.2-1.5 2-2.7 4-3.5 5.4 1.7-3 3.5-6 5.8-8.8 1.2-1.4 2.4-2.7 3.8-3.8 1.6-1 3.2-2 5-2.6 2-.5 4-.4 5.7.3 2 .8 3.3 2.2 4.3 3.8 2 3 2.7 6.6 3.5 10 1.4 7 2 13.8 2.8 20.7.8 7 1.6 13.7 2.8 20.5l-.2-2.2c-1.2-7.2-2-14.4-2.7-21.6l-1-11c-.7-3.6-1.2-7.3-2.3-11-.7-2.3-1.6-4.8-3.4-7 1.8 2 2.7 4.6 3.4 7 1 3.3 1.6 6.5 2 9.7.6 3.3 1 6.6 1.5 10l1.4 13.7c.4 3.5.7 6.8 1.2 10l1 6.5.5 2v-.2c0-1.4-.8-5.7-1.5-11.7-.7-6-1.3-13.5-2-21.2-.4-4-.8-8-1.4-11.6-.6-3.8-1.4-7.5-2.8-10.8-.7-1.7-1.6-3.3-2.8-4.6-1.2-1.4-2.8-2.4-4.4-2.8-1.5-.5-3-.5-4-.4-1.2 0-2 .4-2.8.7-2 .8-3.8 2-5.2 3.4-1.4 1.3-2.6 2.8-3.7 4.3-2.2 3-4 6.5-5.8 10-1.3 2.6-2.4 4.6-3 6.6l-.8 2.2c-2 5-4 10-5 14.2-1 2.7-4.7 10-4.5 10.8.4 2.5 0 .7-1.7 7.4-.3.8-.5 3.5-1 5-1.4 5.6-1.4 7.3-2.5 13.6l-1.7 10.4c-.5 2.7-1 5.4-1 9.6-.2.6-.5 4-.7 7.6l-.3 6.8c-.4 5.2-.5 9.4-.5 13.3v5.7s.3 0 .4.2l.4.2 2.8 1.6 2.6 1.6c4.4 1.7 9.4 4 14.6 5.8 5.3 2 10.8 3.5 15.8 4.2 5 .7 8.6 1 12 1.2 3.4 0 6.8.2 11.2-.3 2.6-.4 4.4-1 6-1 1.4-.3 4.8-1.7 7.2-2.6l-.5.6 3.2-1.2c.7-.3.6 0 .4 0-.3.4-.6.8.8.3 3.4-1.3 6.8-3 10-4.7l8.8-6.2c0-.2.2-.4.6-.8l2.4-1.6c.4-.5 0-.7.3-1-.2-.4.5-1.2 1.3-2 .7-.5 1.6-.8 1-1.2h-1.3c-.7.2-1.6.5-2.5 1-1.8.7-3.7 1.8-5 2.4-.5.2.5-.8 1-1.3-3 2-3.4 1.7-2.3.7l-1.5 1 .5-1c-3.8 2.4-7.8 4.6-12 6.5-4 2-8 3.4-12 4.8l-6.4 2c-1 .2-3 .3-3.8.3-1.4.5-1 .8-1.7 1-3 .3-8 0-12-.3-4-.4-7.3-1-7.2-.4l-5.5-1-5.6-1.3c-3.4-1-7-2.4-11-4l-6-2.7-2.8-1.5-1-.5-.5-.3c-.2 0-.2 0-.2-.2v-3-3.6c0-2.3 0-4.7.2-7 0-1.8.2-3.5.3-5 .7-9 2-17 3.2-25 1.4-7.7 3-15.2 4.8-22.6 1.7-7.3 3.7-14.7 6-22 2.5-7.5 5.2-15 9-22.7 2-4 4-7.6 7-10.7 1.3-1.6 3-3 4.7-3.8 1.8-1 3.8-1.2 5.7-.6 1.8.5 3.2 2 4.2 3.8 1 2 1.6 4 2 6 1.2 4 1.8 8.4 2.4 12.7 1 8.4 1.8 17 3 25 1 8.2 2.6 16 4.6 23.4 2 7.3 4.6 14 7.6 20s6.6 11 10.2 15.3c3.6 4.2 7.2 7.4 10.4 9.8 3.2 2.5 6 4 7.8 5.2l4.8 2z" opacity=".8"/>
  <g>
    <path fill="#4d2b15" fill-rule="evenodd" d="M25.4 44.8l.2 1.3c0 1.4-.6 2-1.8 2h-.5v2c.2.2 1.2.3 3 .5l3.3.3c.8 0 1.4 0 1.7-.4.3.4.4 1.2.4 2.3 0 .6-.2 1-1 1-1 0-2.2-.2-3.4-.4l-3.6-.7.2 2.4c.7 0 1.4.3 2 .8.5.5.7 1.2.7 2v.6c-.4 0-.8-.3-1.4-.6H25l-1 .2-.2-.3c0-.7 0-1.6-.2-2.5l-.3-2.6-2.8-.3c-.8 0-1.2.3-1.3.8.3.7.5 1.5.5 2.7v.2c-.4-.3-1-.4-1.3-.4-.2 0-.6 0-1.2.5l-.2-1.7c0-.6 0-1 .2-1 0-.5.4-.6 1-.6h1v-1c-.2-.5-.2-1-.2-1.2 0-.2 0-.4.2-.6l.8-.3h1.5l1.5.4-.3-4.7V45l1.3.3c.3 0 .7-.2 1.3-.5z" clip-rule="evenodd"/>
    <path fill="#3b2317" d="M26.6 58.7L25 58c-.4 0-.8 0-1 .2h-.3l-.4-.4c0-.8 0-1.6-.2-2.6L23 53l-2.4-.4c-1 0-1 .3-1 .5.2.7.4 1.6.4 2.7v.3l-.3.4-.2-.2c-.3-.2-.7-.3-1-.3l-1.2.3H17v-.2c-.2-.4-.2-1-.2-1.7V53c.3-.4.7-.6 1.3-.6h1s0-.4-.2-.7v-1.2c0-.3 0-.5.2-.8l1-.3c.5 0 1 0 1.5.2h.3l1 .2-.4-4.5.3-.6h.2c.4.3.7.4 1 .4 0 0 .5 0 1.2-.4h.3c.3.6.3 1 .3 1.5 0 1.5-.6 2.3-2 2.3h-.3V50l3 .3c1.3 0 2.8.3 3 .3 1 0 1.4-.2 1.7-.4l.2-.2v.3c.4.4.6 1.2.6 2.4 0 .7-.4 1-1.2 1-1 0-2.4 0-3.6-.2l-1.4-.2-2-.4.3 1.8c1 0 1.6.3 2 .8.7.5 1 1.3 1 2.2 0 .4 0 .7-.3.8zm-1.3-1c.5 0 1 .3 1.2.4V58c0-.8-.2-1.4-.7-2-.5-.3-1-.5-2-.5l.3 2.3h1.3zM18 52.8c-.4 0-.5 0-.6.3v2.4l1-.3c.4 0 .7 0 1 .2 0-1 0-2-.4-2.3V53h-1zm9.3 0l3.5.3c.6 0 .7-.2.7-.6 0-1 0-1.5-.3-2-.4.3-1 .4-1.6.4l-3.3-.2-3-.4H23l-1.3-.3h-2.3v2.5c.2-.3.6-.4 1-.4h.2l2.7.4 2.6.4 1.3.2zM23 47.7h.8c1 0 1.5-.4 1.5-1.6v-1c-.6.4-1 .6-1.3.6-.3 0-.7 0-1-.3v2.4z"/>
    <path fill="#4d2b15" fill-rule="evenodd" d="M39.4 33.6c-.4.6-1.2.5-2.3-.3l-.7-.6-.8-.6c-.6-.3-1-.6-1.6-.7-.7 0-1.2 0-1.6.7l-.3.5 1.8 1.8c.6.7 1.2 1.3 1.8 1.7l.8.4.5-.2v.2L36 38c-.3.4-.6.6-1 .8-.2 0-.3-.2-.4-.3l-2-1.7c0-.2-.7-1-1.7-2-.7 1-1 2-.5 3 .3 1 1 2 2 2.5.2.2.6.3 1 .3 0 .3-.4 1-1 2l-.7.5c-.3 0-.6 0-.8-.3-1.5-1-2.2-2.4-2-4 0-1 .6-2.3 1.7-4.2-1-1-2-2-3-2.6-.4.2-.6.5-.7.7l-.6 1-.6 1-1-1c-.3-.2-.7-.3-1-.3 0-.4.2-.8.5-1.3.8-1 1.7-1 2.6-.5l.4.4 1.2-2c0-.2 0-.3.3-.4h.2l1.4 1.3c.2 0 .6.6 1.3 1.3l1-2.2c1-1 2-1.3 3.2-.6l1.4 1s.4 0 .7.4l.7.5c.5.4 1 .5 1.4.4 0 .4-.4 1-1 2z" clip-rule="evenodd"/>
    <path fill="#3b2317" d="M31.8 43.4c-.4 0-.7-.3-1-.5-1.5-1.2-2.3-2.6-2-4.2 0-1 .6-2.4 1.6-4.2l-2.7-2.4-.5.6-.6 1-.6 1s0 .2-.2.2h-.3c-.3-.6-.6-1-.8-1-.3-.3-.6-.4-1-.4h-.3v-.3c0-.4.3-.8.7-1.3 1-1.2 2-1.4 3-.7l.4.2c.4-.8.7-1.5 1-1.8l.2-.2.2-.2h.2l.4.2c.4.3 1 .7 1.4 1.2 0 .2.4.5.8 1l.2.2 1-2c1-1.3 2-1.5 3.5-.8.4 0 1 .4 1.4 1 0 0 .3 0 .5.2l.3.2.7.5c.4.5.8.6 1 .5h.5v.3c0 .4-.5 1-1 2-.6.6-1.5.6-2.7-.3-.2 0-.5-.3-.8-.6-.2-.3-.4-.4-.6-.5l-.2-.2c-.6-.4-1-.7-1.5-.8-.6 0-1 0-1.4.6 0 .2 0 .3-.2.5l1.6 1.7c.5.6 1 1.2 1.7 1.6l.7.3h.7v.4l-1 1.7c-.3.5-.6.8-1 1H35c-.2 0-.4-.2-.5-.3l-2-1.7-.3-.3-1.3-1.5c-.5.8-.6 1.6-.3 2.6s1 1.7 1.8 2.3c.3.3.6.4 1 .3h.2v.3c0 .4-.3 1-1 2-.3.4-.5.6-.8.7h-.2zm-1.7-7l-.8 2.4c0 1.5.5 2.7 2 3.7l.6.3.4-.4 1-1.6c-.4 0-.7 0-1-.2-1-.8-1.6-1.7-2-2.7 0-.6-.2-1.2 0-1.7zm1-2v.2l1.6 1.7.3.3c.6.8 1.2 1.3 1.8 1.7l.3.2c.3 0 .6-.4.8-.7l.7-1.2c-.5 0-.8-.2-1-.4l-2-1.7-1.7-2-.6-.5-.8-1-1.3-1h-.2l-1 1.7c1 .7 2 1.5 3 2.6l.2.2zm-7-1.3l1 .5c.2 0 .5.4.8 1 0-.3.2-.6.4-1l.6-1 .4-.5c-.2 0-.3-.2-.4-.3-1-.6-1.6-.4-2.3.6l-.5.8zm9.6-2h.4c.5.2 1 .4 1.7 1h.2c0 .2.3.3.5.5l.8.6c1 .8 1.6 1 2 .4L40 32c-.3 0-.7-.2-1-.5-.4 0-.6-.3-1-.5v-.2l-.6-.3-1.3-1c-1-.5-2-.3-2.7.7l-.6 1 1-.2z"/>
    <path fill="#4d2b15" fill-rule="evenodd" d="M47.6 20c-1 .7-2 .5-3-.8l-1.7 1.2 1.2 2.8 1.7 3c.2.4.5.7.8.8l.7-.4.6-.6c0-.8.4-1.7 1.7-2.7l.5-.2c0 .8.2 1.3.5 1.6.2.3.6.5 1.2.6 0 .3-.5.7-1.2 1.2-1 .7-2 .7-2.6 0l-1.4 1.2c-.6.6-1 1-1.4 1.2-.5.4-1 .3-1.3 0l-1.6-3.2-1.5-3.4-2 1.5c1.2 1.5.8 3-1 4.2-.2-.8-.3-1.4-.6-1.8l-.8-.6 2-2 2.2-1.6-1.4-2.5-.4-.4h-.6-.2c0-.3.7-1 1.8-1.7l.7-.3.6.6c.2.2.7 1 1.4 2.6l3.5-3h.5c.2.5.3 1 .5 1 .3.4.7.7 1.2.8 0 .3-.4.6-.8 1z" clip-rule="evenodd"/>
    <path fill="#3b2317" d="M44.8 29.3c-.4 0-.6-.2-1-.5l-1.6-3-.3-.8c-.4-.5-.7-1.4-1.2-2.4l-1.3 1.2c.7 1 1 2.7-1.3 4.3 0 0 0 .2-.2.2h-.4V28c0-.8-.2-1.3-.4-1.6l-.7-.6h-.2v-.3c.4-.5 1-1 2.2-2l.7-.6 1.3-1-.7-1.2-.6-1c0-.3-.2-.4-.3-.5h-.2-.4-.3v-.4c0-.3.3-.8 1.8-2l1-.2.7.6 1.3 2.4L46 17l.7-.2h.2v.2c0 .7.3 1 .4 1.2l1 .6h.4v.3c-.3.4-.6.8-1 1-1.2 1-2.3.8-3.3-.4l-1.3 1 1.3 2.5 1.6 3c.3.4.6.6.8.7.3 0 .5-.3.5-.3l.5-.5c-.2-1 .4-2 1.7-3h.6l.4-.2v.3c0 .8.3 1.2.5 1.4 0 .3.4.5 1 .5.2.5-.2 1-1 1.6-1 .8-2 .8-2.8 0L47 28 45.4 29l-.7.3zM41 21.8l.2.3 1.2 2.8.2.7c.5 1.2 1 2.2 1.7 3 .2.3.4.3.5.3l.4-.2 1.4-1c0-.2.2-.3.3-.4h-.2c-.4 0-.8-.4-1-.8-.3-.3-1-1.3-1.8-3-1-2-1.3-2.6-1.3-3h-.2L41 17.6l-.4-.4c-.2 0-.3 0-.5.2l-1.4 1.3h.5l.6.6.7 1L41 22zm-4 3.7l.6.6c.3.4.4 1 .5 1.6 1.6-1.2 2-2.4 1-3.8h-.2L37 25.6zm11.3.7c.7.7 1.5.7 2.4 0l.8-.8c-.4 0-.8-.3-1-.7-.2-.2-.4-.6-.5-1.3h-.2c-1.2 1-1.7 1.8-1.4 2.5v.2zM44.6 19c1 1.2 2 1.4 3 .7 0-.2.3-.4.5-.5-.4-.2-.8-.4-1-.7l-.5-1-2 1.4z"/>
    <path fill="#4d2b15" fill-rule="evenodd" d="M61 10c-1 .4-1.2 2-.2 4.8l.6 1.4.4 1c.3.8.7 1 1 1 1-.4 1.2-1.5 1-3.3l-1.2-3.7c0-.4-.3-.7-.6-1-.3-.3-.6-.5-1-.3zm3.8 7c-.2 0-.6.5-1.2 1-.8.8-1.4 1.3-2 1.4-1 .5-2 0-2.5-1.5l-1-4c0-1.5.6-2.7 1.7-3.6l-1-3L58 7c.3-.2 1-.6 2.2-1h.3c.2 0 .4.6.7 1.5l.3 1 .4 1c1.4-.6 2.6 0 3.3 2 .4 1 .6 2 .6 3s-.4 2-1.2 2.6z" clip-rule="evenodd"/>
    <path fill="#3b2317" d="M61 19.8c-1 0-1.7-.6-2-1.8-.8-1.6-1-3-1-4-.2-1.5.3-2.7 1.4-3.7l-1-2.7s0-.2-.5-.6l-.3-.2.2-.2 2-1h.7s.3.4.7 1.6l.4 1 .2.7c1.6-.6 2.8.2 3.6 2.2.4 1 .6 2 .6 3 0 1.3-.4 2.3-1.2 3l-.8.6-.5.4c-.8.8-1.4 1.3-2 1.5H61zm-2.6-13l.5.5 1 3.2h-.2c-1 1-1.5 2-1.4 3.5 0 1 .3 2.3 1 3.8.4 1.4 1.2 1.8 2.2 1.4.3 0 .7-.4 1-.8-.3 0-.7-.3-1-1.2L61 16c0-.4-.3-.7-.4-1-1-3-1-4.8.4-5.3.3 0 .8 0 1.2.5.3.3.5.6.6 1 .6 1.3 1 2.5 1 3.6.3 1.2.3 2 0 2.7l1-.7c.5-.6 1-1.5 1-2.6 0-1-.3-2-.7-3-.6-1.7-1.6-2.3-3-1.8h-.3l-.4-1-.3-1c-.3-1-.5-1.3-.6-1.4-1 .3-1.6.6-2 1zm3 3.4H61c-1 .4-1 2 0 4.5 0 .4 0 .7.2 1L62 17c.4 1 .6 1 .7 1 .8-.4 1-1.4.7-3-.2-1-.5-2.3-1-3.6-.2-.4-.3-.7-.6-1l-.5-.2z"/>
    <path fill="#4d2b15" fill-rule="evenodd" d="M71.7 3c-1 0-1.2 1.4-.6 3.5.3 1 .5 1.4.8 1.4.4-.2.7-1 1-2 .3-1.2.3-2 .2-2.5-.2-.6-.6-.8-1.3-.6zM80 6c-1.4.4-2.3-.2-2.8-1.6-.8 0-1.4.2-1.7.3h-.2C75 6.3 74 7.4 71.7 8c.3.8.8 1.5 1.4 2.2.7.8 1.4 1.4 2 1.8l2.3-.6c1-.2 1.6 0 1.8.8.2.4.4.7.8 1h.3c0 .3-.4.5-1 .6-1.7.5-2.8 0-3.3-1.8l-4.5 1.4.2.5c.2.8 0 1.4-.6 1.8l-2 .8h-.2c0-.3 0-.6.2-1v-.4c-.2 0-.3-.4-.4-.7v-.2L72 13c-2-2.2-3-4-3.4-5.5-.4-1.4 0-2.6 1-3.6s2.2-1.5 3.7-2c1-.2 1.7.2 2 1.3v1.3c.7 0 1.4-.3 2.3-.6l2-.7c.2 0 .3 0 .4.2v.7c.2.4.6 1 1.2 1.5-.3.2-.6.4-1.2.5z" clip-rule="evenodd"/>
    <path fill="#3b2317" d="M68.7 16.8h-.4v-.3c0-.2 0-.6.2-1v-.2l-.3-.7.2-.5 3.2-1.2c-1.8-2-3-3.8-3.2-5.2-.4-1.5 0-2.8 1-4 1-.7 2.3-1.4 3.8-1.8h.7c.5 0 1.2.2 1.6 1.4v1c.6 0 1.2-.2 2-.4l1.8-.6h.8V4c.2.5.6 1 1.2 1.5V6c-.3.3-.7.5-1.3.7h-.8c-.7 0-1.7-.2-2-1.7-.8 0-1.3.2-1.6.3-.4 1.6-1.5 2.6-3.5 3.2l1.3 2c.5.6 1 1 1.7 1.5l2.2-.6h.6c1 0 1.4.7 1.5 1 0 .5.3.7.6 1l.4.3v.2L79 14c-1.7.5-3 0-3.4-1.7l-4 1.3v.3c.3.8 0 1.5-.7 2l-2.2.8zm0-2.3l.2.7v1.1l1.6-.7c.6-.4.8-1 .5-1.6v-.4l-2.3 1zM76 12c.4 1.5 1.4 2 3 1.6.3 0 .5-.2.7-.3-.5-.2-.8-.6-1-1 0-.3 0-.7-1-.7h-.4L76 12zm-5.3-8.6L70 4c-1.2 1-1.5 2.2-1 3.5.2 1.4 1.4 3 3.2 5.2l2.5-.6c-.6-.3-1.2-1-1.8-1.6-.7-.7-1.2-1.5-1.5-2.2V8c-.3-.2-.5-.7-.7-1.4-.4-1.5-.4-2.5 0-3.2zM72 3H72l-.6.5c-.3.6-.3 1.6 0 3 .3.8.5 1 .6 1 0 0 .4-.3.8-1.6.2-1 .3-2 0-2.4 0-.5-.2-.5-.5-.5zm.4-.4c.3 0 .7.3.8 1 .2.4 0 1.3-.2 2.4 0 .7-.3 1.2-.5 1.6C74 7 75 6 75 5l.2-.5v-1C74.7 2.2 74 2 73.8 2h-.6l-1 .4zm5 1.7v.2C78 5.8 78.8 6.3 80 6c.3 0 .6-.2.8-.4l-1-1.3V4v-.4h-.3l-1.8.6h-.3z"/>
    <path fill="#4d2b15" fill-rule="evenodd" d="M90 2.2c-1 0-1.6.5-2 1-.5.6-1 1.4-1.3 2.3-.3 1-.5 1.8-.4 2.5 0 .6.4.8 1 .8.7 0 1.4-1 2-3 .4-.4.8-1.7 1.5-3.7l-.7.2zm7.6-.5H97L96.5 4c-.2 1.2-.3 2-.2 2.5 0 .4.4.6 1 .5.5 0 1-.6 1-1.8.3-.8.3-1.6.2-2.3 0-1-.4-1.3-1-1.3zM98 7c-.3.2-.8.3-1.4.4l-1.6.4c-.8 0-1.2-.2-1.3-.8 0-.6 0-1.4.2-2.3l.5-2.3v-.2s0-.2-.3-.3c0-.2-.3-.2-.4-.2-.4 0-1 1-1.6 2.7l-.6 2-.8 1.6c-.2.5-.7.7-1.5.8h-.8c-.4 0-.7 0-1 .2l-1 .2-1 .3c-.5 0-1 0-1.3-.2-.4-.2-.7-.6-.8-1 0-1.3.3-2.6 1.4-4 1-1.2 2-2 3.4-2 .5 0 3.4-.5 8.7-1v.2l2-.3c1.2-.2 2 .4 2 2 .3 1.2 0 2-.3 2.7-.4.6-1.3 1-2.6 1z" clip-rule="evenodd"/>
    <path fill="#3b2317" d="M85 9.8c-.2 0-.6 0-1-.3-.4-.2-.7-.6-.8-1.3-.2-1.2.3-2.6 1.4-4 1-1.3 2.2-2 3.5-2.2l9-1 .2.2c.8 0 1.3-.2 1.6-.3h.5c.8 0 1.8.3 2 2 .2 1.4 0 2.4-.4 3-.6.7-1.5 1.2-3 1.4-.2 0-.7 0-1.4.3-.6 0-1 .3-1.6.3-1 .2-1.5-.2-1.6-1 0-.6 0-1.3.3-2.3l.5-2.4V2h-.3c-.3 0-.7.3-1.6 2.6l-.6 1.8-.8 2c-.2.3-.8.6-1.6.7H88.5c-.3.2-.6.2-.8.2-.2 0-.5 0-1 .3l-1 .2H85zm3.5-7.4h-.3c-1.2.2-2.3 1-3.2 2.2-1 1.2-1.5 2.4-1.3 3.6 0 .4.3.7.6 1h1.2l1-.2h.2c-.4-.2-.6-.5-.6-1 0-.7 0-1.5.5-2.6.4-1 .8-1.7 1.2-2.2l.8-.8zM91 2v.2c-.7 2-1 3.3-1.3 3.8-.6 1.3-1 2.2-1.7 2.7H89.2c.8-.2 1.2-.4 1.4-.7l.7-1.7.7-2c.5-1.4 1-2 1.2-2.4h-2zm-1 .4c-.8 0-1.4.5-2 1-.3.5-.7 1.2-1 2.2-.4 1-.5 1.7-.5 2.3 0 .5.4.5.6.5h.3c.4 0 1-.5 2-2.7 0-.5.5-1.6 1-3.4H90zm4.4-.7c.2.2.3.3.3.5v.3l-.5 2.3C94 5.8 94 6.4 94 7c0 .5.3.6 1 .5.4 0 1 0 1.5-.3-.2 0-.3-.4-.4-.7 0-.5 0-1.3.3-2.5v-.3l.4-2v-.3c-.8 0-1.6.2-2.3.3zm3.7-.2c.5.2.8.6 1 1.3 0 .8 0 1.6-.2 2.5-.2.7-.4 1.3-.7 1.6 1.3-.3 2-.7 2.5-1.2.4-.6.5-1.5.3-2.7 0-1.2-.8-1.7-2-1.6h-.7zM97 2v1.7l-.2.4-.2 2.5s0 .3.5.3h.3c.4 0 .7-.6 1-1.6 0-.8.2-1.6 0-2.3 0-1-.4-1-.7-1H97z"/>
    <path fill="#4d2b15" fill-rule="evenodd" d="M119.2.7c-.8 0-1.6.2-2.2.8-.5.4-1 1-1.6 2-.5.8-.8 1.6-.8 2.2 0 .7.2 1 1 1 .5 0 1.3-.8 2.5-2.5.4-.4 1-1.6 2-3.4h-.6-.2zm7.6 1l-.6-.2-.8 2.2c-.4 1-.6 2-.6 2.4 0 .5.2.8.8.8.5 0 1-.5 1.5-1.6.4-.8.6-1.6.6-2.3 0-.8-.2-1.3-.8-1.4zm-.5 5.3h-3.1c-.8 0-1.2-.3-1.2-1 0-.5.3-1.2.7-2l1-2.3c0-.3 0-.4-.2-.5L123 1c-.3 0-1 .8-2 2.4L120 5c-.3.8-.7 1.3-1 1.7-.3.3-.8.5-1.6.4h-1.8-2c-.6 0-1 0-1.3-.3-.4-.3-.6-.7-.6-1.2 0-1.3.8-2.4 2-3.5 1.3-1 2.5-1.6 3.8-1.6l8.7.5v.3h2c1.3 0 2 .8 1.8 2.2 0 1.4-.3 2.3-1 2.8-.4.5-1.4.8-2.7.7z" clip-rule="evenodd"/>
    <path fill="#3b2317" d="M117.7 7.4h-1.3L116 7h-1.3l-1 .2c-.7 0-1.2-.2-1.6-.5-.3-.4-.5-1-.5-1.5 0-1.3.7-2.6 2-3.7 1.3-1 2.6-1.7 4-1.6h1.3l7.4.5h.3V1h1.7c.7 0 1.2.3 1.5.7.4.4.6 1 .6 2 0 1.3-.4 2.2-1 2.8-.6.6-1.6.8-3 .8H123c-1 0-1.2-.8-1.2-1.2 0-.5.2-1.2.6-2.2l1-2.2v-.3h-.4s-.5 0-1.8 2.2c-.2.5-.4 1-.7 1.3l-.2.4-1 1.7c-.4.2-1 .4-1.6.4zm-1.5-.7h.4l.8.2c.7 0 1.2-.2 1.4-.4l1-1.6.3-.5.8-1.2c.8-1.4 1.3-2 1.7-2.3-.8 0-1.6 0-2.2-.2l-2 3.6c-1 1.2-1.5 2-2 2.3zm7.5-5.7l.2.6-.2.2-1 2.2-.5 2c0 .4 0 .8 1 1 .2 0 .8 0 1.4-.2l-.2-.7.6-2.4.3-.6.6-1.6v-.2c-1 0-1.6 0-2.3-.2zm-6.5-.3c-1 0-2.2.5-3.3 1.5-1.3 1-2 2-2 3.3 0 .4 0 .8.4 1l1.2.4 1-.2h.2c-.3-.2-.5-.6-.5-1 0-.8.4-1.6 1-2.5.5-1 1-1.6 1.5-2 .3-.3.6-.5 1-.6h-.4-.2zm9.2 6c1.2 0 2 0 2.5-.6.4-.3.7-1.2.8-2.5 0-.7 0-1.2-.4-1.5-.3-.3-.7-.4-1.3-.5h-.7c.4.2.6.6.6 1.4 0 .7-.3 1.5-.7 2.3-.3.7-.6 1.2-1 1.5zm0-5l-.6 1.5-.2.6c-.4 1-.6 2-.6 2.3 0 .2 0 .5.6.6.6 0 1-.8 1.3-1.5.2-.7.4-1.4.4-2 0-1-.3-1-.6-1.2h-.2-.3zM119 1c-.7 0-1.3.2-2 .7l-1.4 1.8c-.4 1-.7 1.6-.8 2.3 0 .4.2.6.7.7.4 0 1-.4 2.3-2.4l2-3h-.6-.2z"/>
    <path fill="#4d2b15" fill-rule="evenodd" d="M142 3.5c-1 0-1.5-.4-1.8-.8-.2-.3-.4-1-.4-2h-.4c-1.6-.3-3 .6-4 2.6-.7 1.4-1.2 3-1.5 5-.2.7 0 1 0 1.5.3.4.7.7 1.3.8h2c0-.6.4-1 1-1.2.7 0 1.3-.2 2 0 .2 0 .4 0 .5.2L140 11c0 .3.3.7.6 1.2-.3.2-.8.3-1.5.2-1-.2-1.6-.7-1.8-1.6h-3.6c-1.8-.3-2.5-1-2.3-2.5.3-2.3.8-4 1.3-5 1-1.7 2.2-2.7 4-3 1.4-.2 3.5 0 6.3.4l-.2 1.4c0 .4 0 1 .3 1.5h-1z" clip-rule="evenodd"/>
    <path fill="#3b2317" d="M139.7 12.7h-.6c-1-.2-1.7-.8-2-1.6-1.5.2-2.7.2-3.5 0-1 0-1.7-.5-2-1-.5-.5-.6-1-.5-1.7.4-2.4 1-4 1.4-5.2 1-1.6 2.3-2.6 4.2-3 1.4 0 3.5 0 6.3.5h.2v.3c-.2.6-.2 1-.2 1.3 0 .4 0 .8.3 1.4v.2c-.4.2-.8.2-1.3.2-1-.2-1.7-.5-2-1-.3-.4-.4-1.2-.5-2-1.6 0-3 .7-4 2.6-.5 1.3-1 3-1.4 5 0 .6 0 1 .3 1.3.2.3.6.6 1 .6h1.7c.2-.5.7-1 1.4-1 .6-.3 1.3-.3 1.8-.2.3 0 .6.2.8.5v.3l-.6 1c0 .4 0 .8.4 1.3l.2.3-.3.2-1 .2zm-2.2-2c0 .8.7 1.3 1.7 1.4.4.2.8.2 1 0l-.3-1c0-.5 0-1 .5-1.3h-.3c-.6-.2-1-.2-1.7 0-.6 0-1 .4-1 .8v.2zM138 .5h-1.3c-1.8.3-3 1.2-3.8 3-.7 1-1 2.6-1.5 5 0 .4 0 .8.3 1.2.3.4 1 .7 1.8 1h1l-.7-.7c-.4-.5-.5-1-.4-1.7.4-2 1-3.7 1.6-5 .7-1.6 1.6-2.5 2.7-2.8zm2 0v.2c0 1.3.3 1.8.4 2 .2.2.8.4 1.7.6h.8l-.3-1.2V1L140 .5z"/>
    <path fill="#4d2b15" fill-rule="evenodd" d="M150.6 2c-.6-.2-1.3.3-2 1.5-.8 1-1.2 1.8-1.4 2.6v.7l.6.2c.7 0 1.5-.3 2.3-1.2.7-.8 1-1.6 1.3-2.4.2-.8 0-1.3-.7-1.4zm.5 10.7l-.8 1.2v.2c.2 0 .2.2.3.3-.3.2-1 0-2 0-.8-.4-1.2-.7-1-1 0-.4.5-1 1.4-2 .2-.4 1-1 1.8-2l.8-1.3c0-.2-.2-.4-.4-.5-.6.2-1.2.2-2 0l-2.6-.6c-.8 0-1.3-.4-1.5-1V4.3c.7-2.4 3-3.3 6.6-2.3.8 0 1.4.4 1.7.8.3.5.4 1 .2 2-.3 1-.8 1.8-1.7 2.6 0 .3 0 .6.6.7 0 0 .3 0 .5.2h.4c.4 0 .6.4.5.7l-1.3 2-1.6 1.7z" clip-rule="evenodd"/>
    <path fill="#3b2317" d="M150 14.8c-.3 0-.8 0-1.5-.2-.3 0-1.5-.4-1.4-1.2.3-.5.8-1.2 1.7-2 .2-.4.6-.7 1-1.2l1-1c.3-.3.5-.7.6-1V8c-.7.2-1.4.2-2 0l-2.8-.7c-.8-.2-1.3-.6-1.6-1-.3-.6-.4-1.3-.2-2 .7-2.8 3-3.6 6.8-2.7 1 .2 1.6.6 2 1 .3.6.3 1.3 0 2.2 0 1-.7 2-1.6 2.7 0 .2.2.3.5.3h.5l.5.2c.5 0 .8.5.7 1-.2.5-.6 1.2-1.3 2-.4.4-1 1-1.7 2-.4.3-.7.7-.8 1l.2.4v.2c-.2.2-.4.2-.6.2zM152 8v.2c0 .5-.3 1-.8 1.4l-1 1-1 1c-1 1-1.3 1.7-1.4 2l1 .5c.7.3 1 .3 1.4.3v-.5c.2-.4.4-.7 1-1.3.7-1 1.2-1.4 1.5-1.8.8-1 1-1.5 1.2-1.8 0-.3 0-.4-.3-.5h-.5c-.4 0-.5-.2-.6-.2-.2 0-.4 0-.6-.2zm-.6-.5h.3v-.2c1-1 1.5-1.7 1.7-2.6.2-.8.2-1.3 0-1.7-.4-.4-1-.7-1.7-1h-.2s0 .2.2.3c0 .3.2.7 0 1.2-.2.8-.6 1.6-1.3 2.4-.6.8-1.3 1.2-2 1.2l1 .3c.8.2 1.4 0 2 0zM149 1.7c-2 0-3.2 1-3.7 2.6V6c.2.4.7.7 1.3.8l.6.2c-.3-.3-.3-.6-.2-1 .2-.8.6-1.6 1.3-2.6.5-1 1-1.4 1.6-1.6h-1zm1.4.5c-.5 0-1 .5-1.7 1.5s-1 1.7-1.2 2.4v.5l.4.2c.5.2 1.2-.2 2-1 .5-.8 1-1.6 1-2.3v-.8c0-.2-.2-.3-.5-.4z"/>
    <path fill="#4d2b15" fill-rule="evenodd" d="M173.3 10.8c-.7-.3-1.4 0-2.2 1-.5.5-1 1.2-1.3 2-.3.5-.3.8 0 1 0 0 .4 0 1-.3 0 0 .4 0 1-.4 1-.2 1.5-1 2-1.7v-1c0-.2-.2-.4-.4-.5zm0 11c-.8.4-2 .2-3.4-.6-.5-.2-1-.6-1.6-1.2-.7-.5-1.2-1-1.6-1-.8-.5-1.4-.7-1.7-.7v.5c-.4.7-1 1-1.7 1-.6.2-1.3 0-2-.3-.2 0-.4-.2-.5-.3l.8-.4.5-.7c.2-.3.3-.5.3-.8.2 0 .7 0 1.5.3.4 0 .7.2 1 .3l1 .2c0-1.5.3-3.2 1-5 1.6-3 4-3.7 7-2.2 1.8.8 2.4 1.7 1.8 2.8-.5 1-1.2 1.8-2.3 2-1 .3-2 .2-3.2-.3-.2 0-.5-.3-.8-.5l-.2.3c-1.3 3-1 5 1 5.8 1 .5 1.8.2 2.3-1v-1.2l3 1.2v.2l-1 1c-.5.5-1 .7-1 1z" clip-rule="evenodd"/>
    <path fill="#3b2317" d="M172.5 22.2c-.7 0-1.6-.2-2.7-.7l-1.6-1.3c-.7-.6-1-1-1.5-1l-1.4-.7-.2.4c-.2.6-.8 1-1.7 1.2-.7 0-1.4 0-2-.5-.4 0-.6-.2-.7-.3l-.2-.3h.3c.2 0 .4-.3.5-.3h.2c.3-.3.4-.5.4-.7l.3-.8.2-.2 1.7.2c.3.2.6.3 1 .3l.5.2c0-1.5.4-3 1.2-4.7 1.5-3.2 4-4 7.3-2.4 1 .5 1.7 1 2 1.7v1.4c-.7 1.2-1.5 2-2.6 2.2-1 .2-2.2 0-3.4-.4l-.7-.5v.2c-.8 1.7-1 3-.7 4 .2.6.7 1 1.4 1.3 1 .5 1.6.3 2-.8 0 0 .2-.3 0-1v-.4h.5l2.8 1.3h.2l.3.4-.2.2-1 .7v.2l-1.3 1h-.8zm-2-1c1.2.5 2 .7 2.6.4.3 0 .6-.3 1-.8l.4-.2.6-.6-2.4-1v1c-.5 1-1.2 1.4-2 1.3zm-9.2-2c.7.4 1.4.5 2 .5.7 0 1-.4 1.3-1l.3-.6h-.3l-1-.3-1-.2h-.2s0 .4-.2.7c0 .3-.3.5-.6.8h-.2c0 .2-.2.2-.2.2zm4.8-1l1 .4 1.2 1v-.3c-.5-1-.3-2.5.6-4.3l.3-.6h.2s0-.4.3-.8c.3-.8.8-1.5 1.4-2 .4-.7 1-1 1.3-1-2.3-.7-4 .2-5 2.6-1 1.7-1.3 3.3-1.2 4.8v.3zm4-3.2h.2c1 .6 2 .7 3 .4 1-.3 1.7-1 2.2-2 .2-.3.2-.6 0-1 0-.4-.6-1-1.5-1.3v1.4c-.6 1-1.3 1.6-2.2 2l-1 .4c-.4 0-.6 0-.8.2zm-.3-.5l1-.2 1-.4c.7-.4 1.3-1 1.7-1.8v-.7c0-.2 0-.4-.3-.5-.3-.2-1 0-1.7.8-.6.6-1 1.2-1.4 2l-.3.7z"/>
    <path fill="#4d2b15" fill-rule="evenodd" d="M189 27.3c-.5 0-1-.3-1.2-.6-1-.8-1.2-1.6-.5-2.6l.4-.3-1.8-1.2c-.2 0-1 .8-2.2 2l-2.2 2.6c-.5.7-.7 1.2-.7 1.7-.6 0-1.3-.4-2.2-1-.5-.4-.5-1 0-1.3.5-1 1.3-1.8 2.2-2.7l2.8-2.5-2-1.3c-.6.6-1.2 1-2 1.2-.6 0-1.3-.2-2-.7-.3 0-.4-.3-.4-.5.3 0 .7-.3 1.2-.6l.2-.2.5-1h.3l2 1.5L184 21l2-2c.4-.7.4-1.2 0-1.6-.6 0-1.4-.5-2.3-1.2h-.2V16c.5-.2.8-.4 1-.8.2 0 .3-.5.4-1.2.4.2 1 .5 1.5 1l.7.7c.2.4.2.7 0 1-.2.3-.5.5-1 .8l1 .7c.5.2 1 .4 1 .6.2 0 .3.3.4.6 0 .2 0 .5-.3.7-.3.5-.6 1-1 1.2l-1 1 4 2.7-1 1-.3 1.3z" clip-rule="evenodd"/>
    <path fill="#3b2317" d="M181.2 29h-.3c-.7 0-1.3-.5-2.3-1.2-.6-.4-.7-1-.2-1.6.7-1 1.5-1.8 2.4-2.7l.7-.7 1.7-1.5-1.6-1c-.5.6-1.2 1-2 1-.7.2-1.4 0-2.2-.6-.3-.2-.5-.4-.5-.7l.3-.2c.3 0 .7-.3 1.2-.6V19c.2 0 .4-.4.6-.8l.2-.2h.5l2.2 1.4 2 1.2c1-1 1.5-1.6 1.7-2 .5-.5.4-.8.2-1-.7 0-1.5-.5-2.5-1.2v-.2l-.4-.4h.4l1-.7.3-1v-.3h.3l1.6 1 1 1c0 .3 0 .8-.3 1.2l-.6.5c.2 0 .5.3.7.5l1 .6.5.7-.5 1-1 1-.3.4c-.2 0-.4.3-.6.5l3.8 2.6.3.4-.2.2-1 .6c0 .2-.2.5-.2 1.3v.2h-.3c-.6 0-1-.3-1.4-.6-1-1-1.3-2-.5-3 .2 0 .2-.2.3-.3l-1.4-1-2 2-2.2 2.5c-.5.6-.7 1-.6 1.5v.2zm0-5c-1 .7-1.7 1.6-2.3 2.5-.4.4-.4.7 0 1l1.7 1c0-.6.2-1 .7-1.6.2-.5 1.3-1.6 2.2-2.6 1.7-1.7 2-2 2.2-2l.2-.3c.4-.2.6-.5.8-.7.2 0 .3-.2.4-.3l1-1c0-.2 0-.4.2-.6 0-.2-.2-.3-.3-.4 0-.2-.4-.4-.8-.6l-.7-.4c0 .3 0 .6-.4 1 0 .4-.7 1-2 2v.2h.2l-.3.2-2 1.8-.8.7zm6.8-.2h-.2c0 .2-.2.4-.3.5-.6.8-.5 1.5.4 2.2l.8.5c0-.6.2-1 .4-1.3l.8-.6-2-1.2zM177.7 20c0 .2 0 .3.2.3.6.5 1.2.7 1.8.6.7-.2 1.2-.6 1.7-1.2l-2-1.3-.5.8c0 .2-.2.3-.3.3l-1 .5zm6.2-4c.8.7 1.5 1 2 1v.2h.2c.4-.2.6-.4.7-.6v-.8s-.3-.4-.7-.6c-.4-.4-.8-.7-1.2-.8 0 .5 0 .8-.2 1-.3.3-.5.5-1 .7z"/>
    <path fill="#4d2b15" fill-rule="evenodd" d="M190.6 39.4c-.4-.6-.5-1.4-.2-2.3-.5 0-1-.5-1.8-1l-1.5-1.6c-.3-.6-.5-1.2-.4-1.8.2-.7.5-1.2 1-1.6 1-.7 2.5-.8 4.7-.4l2.3.5c1.8.4 3 .3 3.8-.2 0 0 .2-.3.2-.7.5.2 1 .8 2 1.7.2.4.2.8 0 1-1 .6-2.2.8-4 .5l-2.5-.5c-2.2-.4-3.8-.2-4.8.6-.4.3-.6.7-.7 1 0 .5 0 1 .4 1.3 0 .3.7.8 1.6 1.3.5-.4 1-.4 1.7 0 .6 0 1 .5 1.5 1l.2.4c-.5 0-.8.2-1 .4-.5.3-.8 1-1 1.8-.4-.2-1-.5-1.4-1.2z" clip-rule="evenodd"/>
    <path fill="#3b2317" d="M192.3 41l-.3-.2c-.5 0-1-.6-1.6-1.2-.5-.7-.6-1.5-.3-2.4l-1.5-1-1.6-1.6c-.5-.7-.7-1.3-.6-2 0-.8.5-1.4 1.2-1.8 1-.8 2.5-1 4.7-.4.3 0 .6 0 1 .2l1.3.3c1.7.2 3 0 3.6-.4l.2-.5V30h.3c.5.2 1.2.7 2 1.8.2.3.3.5.3.8 0 .2 0 .3-.3.5-1 .6-2.3.8-4.2.4-.3 0-.7 0-1.3-.2L194 33c-2-.4-3.7-.2-4.7.5-.3.2-.5.6-.5 1 0 .3 0 .6.2 1 .2.2.6.5 1.6 1h1.8c.6.4 1.2.8 1.6 1.3l.2.5v.2h-.2l-1 .5c-.3.3-.5.8-.7 1.6v.3zm-1.6-4v.2c-.4.8-.3 1.5 0 2 .5.5.8 1 1.2 1 0-.7.3-1.3.8-1.6l.8-.4c-.4-.5-.8-1-1.4-1-.6-.3-1-.3-1.5 0zm-.7-6.4c-1 0-1.7.2-2 .5-.7.6-1 1-1 1.6-.2.6 0 1.2.3 1.7l1.2 1.2c-.2-.3-.3-.7-.2-1 0-.6.3-1 .7-1.4 1-.7 2.8-1 5-.5l1.3.2 1.3.2c1.7.2 3 0 3.8-.5v-.2-.4c-.7-1-1.2-1.4-1.6-1.6 0 .3-.2.5-.3.6-.8.6-2 .7-4 .3l-1.2-.2c-.5 0-.8 0-1-.2l-2.3-.2z"/>
    <path fill="#4d2b15" fill-rule="evenodd" d="M200.8 41.8v-.3h-1.4c-1 .3-1.5.7-1.6 1v.7c.2.4.4.5 1 .5l1-.2c.4 0 .8-.3 1-.5v-1.2zm-4 9.5c-.4-1.6.2-2.6 1.8-3 0-.5 0-1-.2-1.2v-.4s-.2 0-.3-.2c-1.6 0-2.8.2-3.6.3l-.4.5c-.3-.3-.6-1-1-2v-.8c.3-.2.5-.3.8-.3 1.4-.2 2.7-.3 4 0l-.4-1.2c-.3-1-.4-1.8-.3-2.4.3-.8 1-1.3 1.8-1.6 1.4-.3 2.7 0 4 .8 1 .7 1.8 1.8 2 3.2 1 3.6 1.3 5.8 1.2 6.8h-1.2c-.5.2-1 .5-1.2 1l-.2-.5c-.3-1-.2-1.6 0-2.2.4-.6 1-1 2-1.3l-.2-1.5c-.3-1-.7-2-1.4-2.6-.8-.8-1.7-1-2.7-.8l.2 1v.4l.3.5c.2 1.2 0 2-1 2.3l-.6.3-1.4.4 1.2 5h-1.3c-.3 0-.7.4-1.2 1l-.5-1z" clip-rule="evenodd"/>
    <path fill="#3b2317" d="M197.3 52.7l-.2-.2-.5-1c-.3-1.8.3-3 1.8-3.3v-1l-.3-.5c-1.5 0-2.7 0-3.5.3l-.4.5c-.5-.4-1-1-1.2-2.3v-1h.2l.7-.4c1.3-.3 2.5-.4 3.7-.2l-.2-.8c-.3-1-.4-1.8-.3-2.5 0-1 .7-1.5 1.7-1.7 1.5-.3 3 0 4 .7 1.3 1 2 2 2.5 3.5.8 3.5 1.2 5.8 1 6.8v.2H205c-.6.2-1 .5-1.3 1h-.4l-.2-.6c0-1 0-2 .2-2.5.4-.7 1-1 2-1.4l-.3-1.3c-.3-1-.7-1.8-1.4-2.4-.7-.7-1.4-1-2.3-.8l.2.7V43c.2 0 .2.2.2.2.4 1.7-.3 2.4-1 2.7l-.7.3s-.4 0-1 .3l1 4.7v.5h-1.5s-.4 0-1 .7l-.2.2zm1.6-4.2h-.3c-1.5.4-2 1.3-1.7 2.8 0 .3.2.5.3.7l1-.8h1.2l-.6-2.7zm6.5-1.7c-1 .2-1.5.5-1.8 1-.3.6-.3 1.4 0 2.3.3-.3.6-.5 1-.6h1c0-.6 0-1.5-.2-2.6zm-12.2-2.3v.6c.3 1 .5 1.6.7 1.8l.3-.3 3.8-.4h.2v.2h.4l1.3-.4s.4 0 .5-.2c.7-.3 1-1 .7-2V43h-.2c-.3.4-.7.6-1.2.8-.6 0-1 .2-1 .2-.5 0-.7 0-1-.2l.2.4h-.3c-1.2-.3-2.5-.2-4 0 0 .2-.2.2-.4.3zm7-2.8c-.2 0-.5 0-.8.2-1 0-1.4.3-1.4.7l.2.5s0 .3.5.3l1-.2c.4 0 .7-.3 1-.5v-1h-.3zm1.5-.5c.8 0 1.5.4 2.2 1l.7 1V43c-.3-1.5-1-2.5-2.2-3.2-1-.8-2.3-1-3.6-.7-1 .3-1.5.7-1.6 1.4 0 .6 0 1.2.2 2 0-.4.7-.8 1.7-1 .6 0 1-.2 1.5 0h.2l.8-.2z"/>
    <g>
      <path fill="#4d2b15" d="M25.4 44.8l.2 1.3c0 1.4-.6 2-1.8 2h-.5v2c.2.2 1.2.3 3 .5l3.3.3c.8 0 1.4 0 1.7-.4.3.4.4 1.2.4 2.3 0 .6-.2 1-1 1-1 0-2.2-.2-3.4-.4l-3.6-.7.2 2.4c.7 0 1.4.3 2 .8.5.5.7 1.2.7 2v.6c-.4 0-.8-.3-1.4-.6H25l-1 .2-.2-.3c0-.7 0-1.6-.2-2.5l-.3-2.6-2.8-.3c-.8 0-1.2.3-1.3.8.3.7.5 1.5.5 2.7v.2c-.4-.3-1-.4-1.3-.4-.2 0-.6 0-1.2.5l-.2-1.7c0-.6 0-1 .2-1 0-.5.4-.6 1-.6h1v-1c-.2-.5-.2-1-.2-1.2 0-.2 0-.4.2-.6l.8-.3h1.5l1.5.4-.3-4.7V45l1.3.3c.3 0 .7-.2 1.3-.5z"/>
      <path fill="#3b2317" d="M26.6 58.7L25 58c-.4 0-.8 0-1 .2h-.3l-.4-.4c0-.8 0-1.6-.2-2.6L23 53l-2.4-.4c-1 0-1 .3-1 .5.2.7.4 1.6.4 2.7v.3l-.3.4-.2-.2c-.3-.2-.7-.3-1-.3l-1.2.3H17v-.2c-.2-.4-.2-1-.2-1.7V53c.3-.4.7-.6 1.3-.6h1s0-.4-.2-.7v-1.2c0-.3 0-.5.2-.8l1-.3c.5 0 1 0 1.5.2h.3l1 .2-.4-4.5.3-.6h.2c.4.3.7.4 1 .4 0 0 .5 0 1.2-.4h.3c.3.6.3 1 .3 1.5 0 1.5-.6 2.3-2 2.3h-.3V50l3 .3c1.3 0 2.8.3 3 .3 1 0 1.4-.2 1.7-.4l.2-.2v.3c.4.4.6 1.2.6 2.4 0 .7-.4 1-1.2 1-1 0-2.4 0-3.6-.2l-1.4-.2-2-.4.3 1.8c1 0 1.6.3 2 .8.7.5 1 1.3 1 2.2 0 .4 0 .7-.3.8zm-1.3-1c.5 0 1 .3 1.2.4V58c0-.8-.2-1.4-.7-2-.5-.3-1-.5-2-.5l.3 2.3h1.3zM18 52.8c-.4 0-.5 0-.6.3v2.4l1-.3c.4 0 .7 0 1 .2 0-1 0-2-.4-2.3V53h-1zm9.3 0l3.5.3c.6 0 .7-.2.7-.6 0-1 0-1.5-.3-2-.4.3-1 .4-1.6.4l-3.3-.2-3-.4H23l-1.3-.3h-2.3v2.5c.2-.3.6-.4 1-.4h.2l2.7.4 2.6.4 1.3.2zM23 47.7h.8c1 0 1.5-.4 1.5-1.6v-1c-.6.4-1 .6-1.3.6-.3 0-.7 0-1-.3v2.4z"/>
    </g>
    <g>
      <path fill="#4d2b15" d="M39.4 33.6c-.4.6-1.2.5-2.3-.3l-.7-.6-.8-.6c-.6-.3-1-.6-1.6-.7-.7 0-1.2 0-1.6.7l-.3.5 1.8 1.8c.6.7 1.2 1.3 1.8 1.7l.8.4.5-.2v.2L36 38c-.3.4-.6.6-1 .8-.2 0-.3-.2-.4-.3l-2-1.7c0-.2-.7-1-1.7-2-.7 1-1 2-.5 3 .3 1 1 2 2 2.5.2.2.6.3 1 .3 0 .3-.4 1-1 2l-.7.5c-.3 0-.6 0-.8-.3-1.5-1-2.2-2.4-2-4 0-1 .6-2.3 1.7-4.2-1-1-2-2-3-2.6-.4.2-.6.5-.7.7l-.6 1-.6 1-1-1c-.3-.2-.7-.3-1-.3 0-.4.2-.8.5-1.3.8-1 1.7-1 2.6-.5l.4.4 1.2-2c0-.2 0-.3.3-.4h.2l1.4 1.3c.2 0 .6.6 1.3 1.3l1-2.2c1-1 2-1.3 3.2-.6l1.4 1s.4 0 .7.4l.7.5c.5.4 1 .5 1.4.4 0 .4-.4 1-1 2z"/>
      <path fill="#3b2317" d="M31.8 43.4c-.4 0-.7-.3-1-.5-1.5-1.2-2.3-2.6-2-4.2 0-1 .6-2.4 1.6-4.2l-2.7-2.4-.5.6-.6 1-.6 1s0 .2-.2.2h-.3c-.3-.6-.6-1-.8-1-.3-.3-.6-.4-1-.4h-.3v-.3c0-.4.3-.8.7-1.3 1-1.2 2-1.4 3-.7l.4.2c.4-.8.7-1.5 1-1.8l.2-.2.2-.2h.2l.4.2c.4.3 1 .7 1.4 1.2 0 .2.4.5.8 1l.2.2 1-2c1-1.3 2-1.5 3.5-.8.4 0 1 .4 1.4 1 0 0 .3 0 .5.2l.3.2.7.5c.4.5.8.6 1 .5h.5v.3c0 .4-.5 1-1 2-.6.6-1.5.6-2.7-.3-.2 0-.5-.3-.8-.6-.2-.3-.4-.4-.6-.5l-.2-.2c-.6-.4-1-.7-1.5-.8-.6 0-1 0-1.4.6 0 .2 0 .3-.2.5l1.6 1.7c.5.6 1 1.2 1.7 1.6l.7.3h.7v.4l-1 1.7c-.3.5-.6.8-1 1H35c-.2 0-.4-.2-.5-.3l-2-1.7-.3-.3-1.3-1.5c-.5.8-.6 1.6-.3 2.6s1 1.7 1.8 2.3c.3.3.6.4 1 .3h.2v.3c0 .4-.3 1-1 2-.3.4-.5.6-.8.7h-.2zm-1.7-7l-.8 2.4c0 1.5.5 2.7 2 3.7l.6.3.4-.4 1-1.6c-.4 0-.7 0-1-.2-1-.8-1.6-1.7-2-2.7 0-.6-.2-1.2 0-1.7zm1-2v.2l1.6 1.7.3.3c.6.8 1.2 1.3 1.8 1.7l.3.2c.3 0 .6-.4.8-.7l.7-1.2c-.5 0-.8-.2-1-.4l-2-1.7-1.7-2-.6-.5-.8-1-1.3-1h-.2l-1 1.7c1 .7 2 1.5 3 2.6l.2.2zm-7-1.3l1 .5c.2 0 .5.4.8 1 0-.3.2-.6.4-1l.6-1 .4-.5c-.2 0-.3-.2-.4-.3-1-.6-1.6-.4-2.3.6l-.5.8zm9.6-2h.4c.5.2 1 .4 1.7 1h.2c0 .2.3.3.5.5l.8.6c1 .8 1.6 1 2 .4L40 32c-.3 0-.7-.2-1-.5-.4 0-.6-.3-1-.5v-.2l-.6-.3-1.3-1c-1-.5-2-.3-2.7.7l-.6 1 1-.2z"/>
    </g>
    <g>
      <path fill="#4d2b15" d="M47.6 20c-1 .7-2 .5-3-.8l-1.7 1.2 1.2 2.8 1.7 3c.2.4.5.7.8.8l.7-.4.6-.6c0-.8.4-1.7 1.7-2.7l.5-.2c0 .8.2 1.3.5 1.6.2.3.6.5 1.2.6 0 .3-.5.7-1.2 1.2-1 .7-2 .7-2.6 0l-1.4 1.2c-.6.6-1 1-1.4 1.2-.5.4-1 .3-1.3 0l-1.6-3.2-1.5-3.4-2 1.5c1.2 1.5.8 3-1 4.2-.2-.8-.3-1.4-.6-1.8l-.8-.6 2-2 2.2-1.6-1.4-2.5-.4-.4h-.6-.2c0-.3.7-1 1.8-1.7l.7-.3.6.6c.2.2.7 1 1.4 2.6l3.5-3h.5c.2.5.3 1 .5 1 .3.4.7.7 1.2.8 0 .3-.4.6-.8 1z"/>
      <path fill="#3b2317" d="M44.8 29.3c-.4 0-.6-.2-1-.5l-1.6-3-.3-.8c-.4-.5-.7-1.4-1.2-2.4l-1.3 1.2c.7 1 1 2.7-1.3 4.3 0 0 0 .2-.2.2h-.4V28c0-.8-.2-1.3-.4-1.6l-.7-.6h-.2v-.3c.4-.5 1-1 2.2-2l.7-.6 1.3-1-.7-1.2-.6-1c0-.3-.2-.4-.3-.5h-.2-.4-.3v-.4c0-.3.3-.8 1.8-2l1-.2.7.6 1.3 2.4L46 17l.7-.2h.2v.2c0 .7.3 1 .4 1.2l1 .6h.4v.3c-.3.4-.6.8-1 1-1.2 1-2.3.8-3.3-.4l-1.3 1 1.3 2.5 1.6 3c.3.4.6.6.8.7.3 0 .5-.3.5-.3l.5-.5c-.2-1 .4-2 1.7-3h.6l.4-.2v.3c0 .8.3 1.2.5 1.4 0 .3.4.5 1 .5.2.5-.2 1-1 1.6-1 .8-2 .8-2.8 0L47 28 45.4 29l-.7.3zM41 21.8l.2.3 1.2 2.8.2.7c.5 1.2 1 2.2 1.7 3 .2.3.4.3.5.3l.4-.2 1.4-1c0-.2.2-.3.3-.4h-.2c-.4 0-.8-.4-1-.8-.3-.3-1-1.3-1.8-3-1-2-1.3-2.6-1.3-3h-.2L41 17.6l-.4-.4c-.2 0-.3 0-.5.2l-1.4 1.3h.5l.6.6.7 1L41 22zm-4 3.7l.6.6c.3.4.4 1 .5 1.6 1.6-1.2 2-2.4 1-3.8h-.2L37 25.6zm11.3.7c.7.7 1.5.7 2.4 0l.8-.8c-.4 0-.8-.3-1-.7-.2-.2-.4-.6-.5-1.3h-.2c-1.2 1-1.7 1.8-1.4 2.5v.2zM44.6 19c1 1.2 2 1.4 3 .7 0-.2.3-.4.5-.5-.4-.2-.8-.4-1-.7l-.5-1-2 1.4z"/>
    </g>
    <g>
      <path fill="#4d2b15" d="M61 10c-1 .4-1.2 2-.2 4.8l.6 1.4.4 1c.3.8.7 1 1 1 1-.4 1.2-1.5 1-3.3l-1.2-3.7c0-.4-.3-.7-.6-1-.3-.3-.6-.5-1-.3zm3.8 7c-.2 0-.6.5-1.2 1-.8.8-1.4 1.3-2 1.4-1 .5-2 0-2.5-1.5l-1-4c0-1.5.6-2.7 1.7-3.6l-1-3L58 7c.3-.2 1-.6 2.2-1h.3c.2 0 .4.6.7 1.5l.3 1 .4 1c1.4-.6 2.6 0 3.3 2 .4 1 .6 2 .6 3s-.4 2-1.2 2.6z"/>
      <path fill="#3b2317" d="M61 19.8c-1 0-1.7-.6-2-1.8-.8-1.6-1-3-1-4-.2-1.5.3-2.7 1.4-3.7l-1-2.7s0-.2-.5-.6l-.3-.2.2-.2 2-1h.7s.3.4.7 1.6l.4 1 .2.7c1.6-.6 2.8.2 3.6 2.2.4 1 .6 2 .6 3 0 1.3-.4 2.3-1.2 3l-.8.6-.5.4c-.8.8-1.4 1.3-2 1.5H61zm-2.6-13l.5.5 1 3.2h-.2c-1 1-1.5 2-1.4 3.5 0 1 .3 2.3 1 3.8.4 1.4 1.2 1.8 2.2 1.4.3 0 .7-.4 1-.8-.3 0-.7-.3-1-1.2L61 16c0-.4-.3-.7-.4-1-1-3-1-4.8.4-5.3.3 0 .8 0 1.2.5.3.3.5.6.6 1 .6 1.3 1 2.5 1 3.6.3 1.2.3 2 0 2.7l1-.7c.5-.6 1-1.5 1-2.6 0-1-.3-2-.7-3-.6-1.7-1.6-2.3-3-1.8h-.3l-.4-1-.3-1c-.3-1-.5-1.3-.6-1.4-1 .3-1.6.6-2 1zm3 3.4H61c-1 .4-1 2 0 4.5 0 .4 0 .7.2 1L62 17c.4 1 .6 1 .7 1 .8-.4 1-1.4.7-3-.2-1-.5-2.3-1-3.6-.2-.4-.3-.7-.6-1l-.5-.2z"/>
    </g>
    <g>
      <path fill="#4d2b15" d="M71.7 3c-1 0-1.2 1.4-.6 3.5.3 1 .5 1.4.8 1.4.4-.2.7-1 1-2 .3-1.2.3-2 .2-2.5-.2-.6-.6-.8-1.3-.6zM80 6c-1.4.4-2.3-.2-2.8-1.6-.8 0-1.4.2-1.7.3h-.2C75 6.3 74 7.4 71.7 8c.3.8.8 1.5 1.4 2.2.7.8 1.4 1.4 2 1.8l2.3-.6c1-.2 1.6 0 1.8.8.2.4.4.7.8 1h.3c0 .3-.4.5-1 .6-1.7.5-2.8 0-3.3-1.8l-4.5 1.4.2.5c.2.8 0 1.4-.6 1.8l-2 .8h-.2c0-.3 0-.6.2-1v-.4c-.2 0-.3-.4-.4-.7v-.2L72 13c-2-2.2-3-4-3.4-5.5-.4-1.4 0-2.6 1-3.6s2.2-1.5 3.7-2c1-.2 1.7.2 2 1.3v1.3c.7 0 1.4-.3 2.3-.6l2-.7c.2 0 .3 0 .4.2v.7c.2.4.6 1 1.2 1.5-.3.2-.6.4-1.2.5z"/>
      <path fill="#3b2317" d="M68.7 16.8h-.4v-.3c0-.2 0-.6.2-1v-.2l-.3-.7.2-.5 3.2-1.2c-1.8-2-3-3.8-3.2-5.2-.4-1.5 0-2.8 1-4 1-.7 2.3-1.4 3.8-1.8h.7c.5 0 1.2.2 1.6 1.4v1c.6 0 1.2-.2 2-.4l1.8-.6h.8V4c.2.5.6 1 1.2 1.5V6c-.3.3-.7.5-1.3.7h-.8c-.7 0-1.7-.2-2-1.7-.8 0-1.3.2-1.6.3-.4 1.6-1.5 2.6-3.5 3.2l1.3 2c.5.6 1 1 1.7 1.5l2.2-.6h.6c1 0 1.4.7 1.5 1 0 .5.3.7.6 1l.4.3v.2L79 14c-1.7.5-3 0-3.4-1.7l-4 1.3v.3c.3.8 0 1.5-.7 2l-2.2.8zm0-2.3l.2.7v1.1l1.6-.7c.6-.4.8-1 .5-1.6v-.4l-2.3 1zM76 12c.4 1.5 1.4 2 3 1.6.3 0 .5-.2.7-.3-.5-.2-.8-.6-1-1 0-.3 0-.7-1-.7h-.4L76 12zm-5.3-8.6L70 4c-1.2 1-1.5 2.2-1 3.5.2 1.4 1.4 3 3.2 5.2l2.5-.6c-.6-.3-1.2-1-1.8-1.6-.7-.7-1.2-1.5-1.5-2.2V8c-.3-.2-.5-.7-.7-1.4-.4-1.5-.4-2.5 0-3.2zM72 3H72l-.6.5c-.3.6-.3 1.6 0 3 .3.8.5 1 .6 1 0 0 .4-.3.8-1.6.2-1 .3-2 0-2.4 0-.5-.2-.5-.5-.5zm.4-.4c.3 0 .7.3.8 1 .2.4 0 1.3-.2 2.4 0 .7-.3 1.2-.5 1.6C74 7 75 6 75 5l.2-.5v-1C74.7 2.2 74 2 73.8 2h-.6l-1 .4zm5 1.7v.2C78 5.8 78.8 6.3 80 6c.3 0 .6-.2.8-.4l-1-1.3V4v-.4h-.3l-1.8.6h-.3z"/>
    </g>
    <g>
      <path fill="#4d2b15" d="M90 2.2c-1 0-1.6.5-2 1-.5.6-1 1.4-1.3 2.3-.3 1-.5 1.8-.4 2.5 0 .6.4.8 1 .8.7 0 1.4-1 2-3 .4-.4.8-1.7 1.5-3.7l-.7.2zm7.6-.5H97L96.5 4c-.2 1.2-.3 2-.2 2.5 0 .4.4.6 1 .5.5 0 1-.6 1-1.8.3-.8.3-1.6.2-2.3 0-1-.4-1.3-1-1.3zM98 7c-.3.2-.8.3-1.4.4l-1.6.4c-.8 0-1.2-.2-1.3-.8 0-.6 0-1.4.2-2.3l.5-2.3v-.2s0-.2-.3-.3c0-.2-.3-.2-.4-.2-.4 0-1 1-1.6 2.7l-.6 2-.8 1.6c-.2.5-.7.7-1.5.8h-.8c-.4 0-.7 0-1 .2l-1 .2-1 .3c-.5 0-1 0-1.3-.2-.4-.2-.7-.6-.8-1 0-1.3.3-2.6 1.4-4 1-1.2 2-2 3.4-2 .5 0 3.4-.5 8.7-1v.2l2-.3c1.2-.2 2 .4 2 2 .3 1.2 0 2-.3 2.7-.4.6-1.3 1-2.6 1z"/>
      <path fill="#3b2317" d="M85 9.8c-.2 0-.6 0-1-.3-.4-.2-.7-.6-.8-1.3-.2-1.2.3-2.6 1.4-4 1-1.3 2.2-2 3.5-2.2l9-1 .2.2c.8 0 1.3-.2 1.6-.3h.5c.8 0 1.8.3 2 2 .2 1.4 0 2.4-.4 3-.6.7-1.5 1.2-3 1.4-.2 0-.7 0-1.4.3-.6 0-1 .3-1.6.3-1 .2-1.5-.2-1.6-1 0-.6 0-1.3.3-2.3l.5-2.4V2h-.3c-.3 0-.7.3-1.6 2.6l-.6 1.8-.8 2c-.2.3-.8.6-1.6.7H88.5c-.3.2-.6.2-.8.2-.2 0-.5 0-1 .3l-1 .2H85zm3.5-7.4h-.3c-1.2.2-2.3 1-3.2 2.2-1 1.2-1.5 2.4-1.3 3.6 0 .4.3.7.6 1h1.2l1-.2h.2c-.4-.2-.6-.5-.6-1 0-.7 0-1.5.5-2.6.4-1 .8-1.7 1.2-2.2l.8-.8zM91 2v.2c-.7 2-1 3.3-1.3 3.8-.6 1.3-1 2.2-1.7 2.7H89.2c.8-.2 1.2-.4 1.4-.7l.7-1.7.7-2c.5-1.4 1-2 1.2-2.4h-2zm-1 .4c-.8 0-1.4.5-2 1-.3.5-.7 1.2-1 2.2-.4 1-.5 1.7-.5 2.3 0 .5.4.5.6.5h.3c.4 0 1-.5 2-2.7 0-.5.5-1.6 1-3.4H90zm4.4-.7c.2.2.3.3.3.5v.3l-.5 2.3C94 5.8 94 6.4 94 7c0 .5.3.6 1 .5.4 0 1 0 1.5-.3-.2 0-.3-.4-.4-.7 0-.5 0-1.3.3-2.5v-.3l.4-2v-.3c-.8 0-1.6.2-2.3.3zm3.7-.2c.5.2.8.6 1 1.3 0 .8 0 1.6-.2 2.5-.2.7-.4 1.3-.7 1.6 1.3-.3 2-.7 2.5-1.2.4-.6.5-1.5.3-2.7 0-1.2-.8-1.7-2-1.6h-.7zM97 2v1.7l-.2.4-.2 2.5s0 .3.5.3h.3c.4 0 .7-.6 1-1.6 0-.8.2-1.6 0-2.3 0-1-.4-1-.7-1H97z"/>
    </g>
    <g>
      <path fill="#4d2b15" d="M119.2.7c-.8 0-1.6.2-2.2.8-.5.4-1 1-1.6 2-.5.8-.8 1.6-.8 2.2 0 .7.2 1 1 1 .5 0 1.3-.8 2.5-2.5.4-.4 1-1.6 2-3.4h-.6-.2zm7.6 1l-.6-.2-.8 2.2c-.4 1-.6 2-.6 2.4 0 .5.2.8.8.8.5 0 1-.5 1.5-1.6.4-.8.6-1.6.6-2.3 0-.8-.2-1.3-.8-1.4zm-.5 5.3h-3.1c-.8 0-1.2-.3-1.2-1 0-.5.3-1.2.7-2l1-2.3c0-.3 0-.4-.2-.5L123 1c-.3 0-1 .8-2 2.4L120 5c-.3.8-.7 1.3-1 1.7-.3.3-.8.5-1.6.4h-1.8-2c-.6 0-1 0-1.3-.3-.4-.3-.6-.7-.6-1.2 0-1.3.8-2.4 2-3.5 1.3-1 2.5-1.6 3.8-1.6l8.7.5v.3h2c1.3 0 2 .8 1.8 2.2 0 1.4-.3 2.3-1 2.8-.4.5-1.4.8-2.7.7z"/>
      <path fill="#3b2317" d="M117.7 7.4h-1.3L116 7h-1.3l-1 .2c-.7 0-1.2-.2-1.6-.5-.3-.4-.5-1-.5-1.5 0-1.3.7-2.6 2-3.7 1.3-1 2.6-1.7 4-1.6h1.3l7.4.5h.3V1h1.7c.7 0 1.2.3 1.5.7.4.4.6 1 .6 2 0 1.3-.4 2.2-1 2.8-.6.6-1.6.8-3 .8H123c-1 0-1.2-.8-1.2-1.2 0-.5.2-1.2.6-2.2l1-2.2v-.3h-.4s-.5 0-1.8 2.2c-.2.5-.4 1-.7 1.3l-.2.4-1 1.7c-.4.2-1 .4-1.6.4zm-1.5-.7h.4l.8.2c.7 0 1.2-.2 1.4-.4l1-1.6.3-.5.8-1.2c.8-1.4 1.3-2 1.7-2.3-.8 0-1.6 0-2.2-.2l-2 3.6c-1 1.2-1.5 2-2 2.3zm7.5-5.7l.2.6-.2.2-1 2.2-.5 2c0 .4 0 .8 1 1 .2 0 .8 0 1.4-.2l-.2-.7.6-2.4.3-.6.6-1.6v-.2c-1 0-1.6 0-2.3-.2zm-6.5-.3c-1 0-2.2.5-3.3 1.5-1.3 1-2 2-2 3.3 0 .4 0 .8.4 1l1.2.4 1-.2h.2c-.3-.2-.5-.6-.5-1 0-.8.4-1.6 1-2.5.5-1 1-1.6 1.5-2 .3-.3.6-.5 1-.6h-.4-.2zm9.2 6c1.2 0 2 0 2.5-.6.4-.3.7-1.2.8-2.5 0-.7 0-1.2-.4-1.5-.3-.3-.7-.4-1.3-.5h-.7c.4.2.6.6.6 1.4 0 .7-.3 1.5-.7 2.3-.3.7-.6 1.2-1 1.5zm0-5l-.6 1.5-.2.6c-.4 1-.6 2-.6 2.3 0 .2 0 .5.6.6.6 0 1-.8 1.3-1.5.2-.7.4-1.4.4-2 0-1-.3-1-.6-1.2h-.2-.3zM119 1c-.7 0-1.3.2-2 .7l-1.4 1.8c-.4 1-.7 1.6-.8 2.3 0 .4.2.6.7.7.4 0 1-.4 2.3-2.4l2-3h-.6-.2z"/>
    </g>
    <g>
      <path fill="#4d2b15" d="M142 3.5c-1 0-1.5-.4-1.8-.8-.2-.3-.4-1-.4-2h-.4c-1.6-.3-3 .6-4 2.6-.7 1.4-1.2 3-1.5 5-.2.7 0 1 0 1.5.3.4.7.7 1.3.8h2c0-.6.4-1 1-1.2.7 0 1.3-.2 2 0 .2 0 .4 0 .5.2L140 11c0 .3.3.7.6 1.2-.3.2-.8.3-1.5.2-1-.2-1.6-.7-1.8-1.6h-3.6c-1.8-.3-2.5-1-2.3-2.5.3-2.3.8-4 1.3-5 1-1.7 2.2-2.7 4-3 1.4-.2 3.5 0 6.3.4l-.2 1.4c0 .4 0 1 .3 1.5h-1z"/>
      <path fill="#3b2317" d="M139.7 12.7h-.6c-1-.2-1.7-.8-2-1.6-1.5.2-2.7.2-3.5 0-1 0-1.7-.5-2-1-.5-.5-.6-1-.5-1.7.4-2.4 1-4 1.4-5.2 1-1.6 2.3-2.6 4.2-3 1.4 0 3.5 0 6.3.5h.2v.3c-.2.6-.2 1-.2 1.3 0 .4 0 .8.3 1.4v.2c-.4.2-.8.2-1.3.2-1-.2-1.7-.5-2-1-.3-.4-.4-1.2-.5-2-1.6 0-3 .7-4 2.6-.5 1.3-1 3-1.4 5 0 .6 0 1 .3 1.3.2.3.6.6 1 .6h1.7c.2-.5.7-1 1.4-1 .6-.3 1.3-.3 1.8-.2.3 0 .6.2.8.5v.3l-.6 1c0 .4 0 .8.4 1.3l.2.3-.3.2-1 .2zm-2.2-2c0 .8.7 1.3 1.7 1.4.4.2.8.2 1 0l-.3-1c0-.5 0-1 .5-1.3h-.3c-.6-.2-1-.2-1.7 0-.6 0-1 .4-1 .8v.2zM138 .5h-1.3c-1.8.3-3 1.2-3.8 3-.7 1-1 2.6-1.5 5 0 .4 0 .8.3 1.2.3.4 1 .7 1.8 1h1l-.7-.7c-.4-.5-.5-1-.4-1.7.4-2 1-3.7 1.6-5 .7-1.6 1.6-2.5 2.7-2.8zm2 0v.2c0 1.3.3 1.8.4 2 .2.2.8.4 1.7.6h.8l-.3-1.2V1L140 .5z"/>
    </g>
    <g>
      <path fill="#4d2b15" d="M150.6 2c-.6-.2-1.3.3-2 1.5-.8 1-1.2 1.8-1.4 2.6v.7l.6.2c.7 0 1.5-.3 2.3-1.2.7-.8 1-1.6 1.3-2.4.2-.8 0-1.3-.7-1.4zm.5 10.7l-.8 1.2v.2c.2 0 .2.2.3.3-.3.2-1 0-2 0-.8-.4-1.2-.7-1-1 0-.4.5-1 1.4-2 .2-.4 1-1 1.8-2l.8-1.3c0-.2-.2-.4-.4-.5-.6.2-1.2.2-2 0l-2.6-.6c-.8 0-1.3-.4-1.5-1V4.3c.7-2.4 3-3.3 6.6-2.3.8 0 1.4.4 1.7.8.3.5.4 1 .2 2-.3 1-.8 1.8-1.7 2.6 0 .3 0 .6.6.7 0 0 .3 0 .5.2h.4c.4 0 .6.4.5.7l-1.3 2-1.6 1.7z"/>
      <path fill="#3b2317" d="M150 14.8c-.3 0-.8 0-1.5-.2-.3 0-1.5-.4-1.4-1.2.3-.5.8-1.2 1.7-2 .2-.4.6-.7 1-1.2l1-1c.3-.3.5-.7.6-1V8c-.7.2-1.4.2-2 0l-2.8-.7c-.8-.2-1.3-.6-1.6-1-.3-.6-.4-1.3-.2-2 .7-2.8 3-3.6 6.8-2.7 1 .2 1.6.6 2 1 .3.6.3 1.3 0 2.2 0 1-.7 2-1.6 2.7 0 .2.2.3.5.3h.5l.5.2c.5 0 .8.5.7 1-.2.5-.6 1.2-1.3 2-.4.4-1 1-1.7 2-.4.3-.7.7-.8 1l.2.4v.2c-.2.2-.4.2-.6.2zM152 8v.2c0 .5-.3 1-.8 1.4l-1 1-1 1c-1 1-1.3 1.7-1.4 2l1 .5c.7.3 1 .3 1.4.3v-.5c.2-.4.4-.7 1-1.3.7-1 1.2-1.4 1.5-1.8.8-1 1-1.5 1.2-1.8 0-.3 0-.4-.3-.5h-.5c-.4 0-.5-.2-.6-.2-.2 0-.4 0-.6-.2zm-.6-.5h.3v-.2c1-1 1.5-1.7 1.7-2.6.2-.8.2-1.3 0-1.7-.4-.4-1-.7-1.7-1h-.2s0 .2.2.3c0 .3.2.7 0 1.2-.2.8-.6 1.6-1.3 2.4-.6.8-1.3 1.2-2 1.2l1 .3c.8.2 1.4 0 2 0zM149 1.7c-2 0-3.2 1-3.7 2.6V6c.2.4.7.7 1.3.8l.6.2c-.3-.3-.3-.6-.2-1 .2-.8.6-1.6 1.3-2.6.5-1 1-1.4 1.6-1.6h-1zm1.4.5c-.5 0-1 .5-1.7 1.5s-1 1.7-1.2 2.4v.5l.4.2c.5.2 1.2-.2 2-1 .5-.8 1-1.6 1-2.3v-.8c0-.2-.2-.3-.5-.4z"/>
    </g>
    <g>
      <path fill="#4d2b15" d="M173.3 10.8c-.7-.3-1.4 0-2.2 1-.5.5-1 1.2-1.3 2-.3.5-.3.8 0 1 0 0 .4 0 1-.3 0 0 .4 0 1-.4 1-.2 1.5-1 2-1.7v-1c0-.2-.2-.4-.4-.5zm0 11c-.8.4-2 .2-3.4-.6-.5-.2-1-.6-1.6-1.2-.7-.5-1.2-1-1.6-1-.8-.5-1.4-.7-1.7-.7v.5c-.4.7-1 1-1.7 1-.6.2-1.3 0-2-.3-.2 0-.4-.2-.5-.3l.8-.4.5-.7c.2-.3.3-.5.3-.8.2 0 .7 0 1.5.3.4 0 .7.2 1 .3l1 .2c0-1.5.3-3.2 1-5 1.6-3 4-3.7 7-2.2 1.8.8 2.4 1.7 1.8 2.8-.5 1-1.2 1.8-2.3 2-1 .3-2 .2-3.2-.3-.2 0-.5-.3-.8-.5l-.2.3c-1.3 3-1 5 1 5.8 1 .5 1.8.2 2.3-1v-1.2l3 1.2v.2l-1 1c-.5.5-1 .7-1 1z"/>
      <path fill="#3b2317" d="M172.5 22.2c-.7 0-1.6-.2-2.7-.7l-1.6-1.3c-.7-.6-1-1-1.5-1l-1.4-.7-.2.4c-.2.6-.8 1-1.7 1.2-.7 0-1.4 0-2-.5-.4 0-.6-.2-.7-.3l-.2-.3h.3c.2 0 .4-.3.5-.3h.2c.3-.3.4-.5.4-.7l.3-.8.2-.2 1.7.2c.3.2.6.3 1 .3l.5.2c0-1.5.4-3 1.2-4.7 1.5-3.2 4-4 7.3-2.4 1 .5 1.7 1 2 1.7v1.4c-.7 1.2-1.5 2-2.6 2.2-1 .2-2.2 0-3.4-.4l-.7-.5v.2c-.8 1.7-1 3-.7 4 .2.6.7 1 1.4 1.3 1 .5 1.6.3 2-.8 0 0 .2-.3 0-1v-.4h.5l2.8 1.3h.2l.3.4-.2.2-1 .7v.2l-1.3 1h-.8zm-2-1c1.2.5 2 .7 2.6.4.3 0 .6-.3 1-.8l.4-.2.6-.6-2.4-1v1c-.5 1-1.2 1.4-2 1.3zm-9.2-2c.7.4 1.4.5 2 .5.7 0 1-.4 1.3-1l.3-.6h-.3l-1-.3-1-.2h-.2s0 .4-.2.7c0 .3-.3.5-.6.8h-.2c0 .2-.2.2-.2.2zm4.8-1l1 .4 1.2 1v-.3c-.5-1-.3-2.5.6-4.3l.3-.6h.2s0-.4.3-.8c.3-.8.8-1.5 1.4-2 .4-.7 1-1 1.3-1-2.3-.7-4 .2-5 2.6-1 1.7-1.3 3.3-1.2 4.8v.3zm4-3.2h.2c1 .6 2 .7 3 .4 1-.3 1.7-1 2.2-2 .2-.3.2-.6 0-1 0-.4-.6-1-1.5-1.3v1.4c-.6 1-1.3 1.6-2.2 2l-1 .4c-.4 0-.6 0-.8.2zm-.3-.5l1-.2 1-.4c.7-.4 1.3-1 1.7-1.8v-.7c0-.2 0-.4-.3-.5-.3-.2-1 0-1.7.8-.6.6-1 1.2-1.4 2l-.3.7z"/>
    </g>
    <g>
      <path fill="#4d2b15" d="M189 27.3c-.5 0-1-.3-1.2-.6-1-.8-1.2-1.6-.5-2.6l.4-.3-1.8-1.2c-.2 0-1 .8-2.2 2l-2.2 2.6c-.5.7-.7 1.2-.7 1.7-.6 0-1.3-.4-2.2-1-.5-.4-.5-1 0-1.3.5-1 1.3-1.8 2.2-2.7l2.8-2.5-2-1.3c-.6.6-1.2 1-2 1.2-.6 0-1.3-.2-2-.7-.3 0-.4-.3-.4-.5.3 0 .7-.3 1.2-.6l.2-.2.5-1h.3l2 1.5L184 21l2-2c.4-.7.4-1.2 0-1.6-.6 0-1.4-.5-2.3-1.2h-.2V16c.5-.2.8-.4 1-.8.2 0 .3-.5.4-1.2.4.2 1 .5 1.5 1l.7.7c.2.4.2.7 0 1-.2.3-.5.5-1 .8l1 .7c.5.2 1 .4 1 .6.2 0 .3.3.4.6 0 .2 0 .5-.3.7-.3.5-.6 1-1 1.2l-1 1 4 2.7-1 1-.3 1.3z"/>
      <path fill="#3b2317" d="M181.2 29h-.3c-.7 0-1.3-.5-2.3-1.2-.6-.4-.7-1-.2-1.6.7-1 1.5-1.8 2.4-2.7l.7-.7 1.7-1.5-1.6-1c-.5.6-1.2 1-2 1-.7.2-1.4 0-2.2-.6-.3-.2-.5-.4-.5-.7l.3-.2c.3 0 .7-.3 1.2-.6V19c.2 0 .4-.4.6-.8l.2-.2h.5l2.2 1.4 2 1.2c1-1 1.5-1.6 1.7-2 .5-.5.4-.8.2-1-.7 0-1.5-.5-2.5-1.2v-.2l-.4-.4h.4l1-.7.3-1v-.3h.3l1.6 1 1 1c0 .3 0 .8-.3 1.2l-.6.5c.2 0 .5.3.7.5l1 .6.5.7-.5 1-1 1-.3.4c-.2 0-.4.3-.6.5l3.8 2.6.3.4-.2.2-1 .6c0 .2-.2.5-.2 1.3v.2h-.3c-.6 0-1-.3-1.4-.6-1-1-1.3-2-.5-3 .2 0 .2-.2.3-.3l-1.4-1-2 2-2.2 2.5c-.5.6-.7 1-.6 1.5v.2zm0-5c-1 .7-1.7 1.6-2.3 2.5-.4.4-.4.7 0 1l1.7 1c0-.6.2-1 .7-1.6.2-.5 1.3-1.6 2.2-2.6 1.7-1.7 2-2 2.2-2l.2-.3c.4-.2.6-.5.8-.7.2 0 .3-.2.4-.3l1-1c0-.2 0-.4.2-.6 0-.2-.2-.3-.3-.4 0-.2-.4-.4-.8-.6l-.7-.4c0 .3 0 .6-.4 1 0 .4-.7 1-2 2v.2h.2l-.3.2-2 1.8-.8.7zm6.8-.2h-.2c0 .2-.2.4-.3.5-.6.8-.5 1.5.4 2.2l.8.5c0-.6.2-1 .4-1.3l.8-.6-2-1.2zM177.7 20c0 .2 0 .3.2.3.6.5 1.2.7 1.8.6.7-.2 1.2-.6 1.7-1.2l-2-1.3-.5.8c0 .2-.2.3-.3.3l-1 .5zm6.2-4c.8.7 1.5 1 2 1v.2h.2c.4-.2.6-.4.7-.6v-.8s-.3-.4-.7-.6c-.4-.4-.8-.7-1.2-.8 0 .5 0 .8-.2 1-.3.3-.5.5-1 .7z"/>
    </g>
    <g>
      <path fill="#4d2b15" d="M190.6 39.4c-.4-.6-.5-1.4-.2-2.3-.5 0-1-.5-1.8-1l-1.5-1.6c-.3-.6-.5-1.2-.4-1.8.2-.7.5-1.2 1-1.6 1-.7 2.5-.8 4.7-.4l2.3.5c1.8.4 3 .3 3.8-.2 0 0 .2-.3.2-.7.5.2 1 .8 2 1.7.2.4.2.8 0 1-1 .6-2.2.8-4 .5l-2.5-.5c-2.2-.4-3.8-.2-4.8.6-.4.3-.6.7-.7 1 0 .5 0 1 .4 1.3 0 .3.7.8 1.6 1.3.5-.4 1-.4 1.7 0 .6 0 1 .5 1.5 1l.2.4c-.5 0-.8.2-1 .4-.5.3-.8 1-1 1.8-.4-.2-1-.5-1.4-1.2z"/>
      <path fill="#3b2317" d="M192.3 41l-.3-.2c-.5 0-1-.6-1.6-1.2-.5-.7-.6-1.5-.3-2.4l-1.5-1-1.6-1.6c-.5-.7-.7-1.3-.6-2 0-.8.5-1.4 1.2-1.8 1-.8 2.5-1 4.7-.4.3 0 .6 0 1 .2l1.3.3c1.7.2 3 0 3.6-.4l.2-.5V30h.3c.5.2 1.2.7 2 1.8.2.3.3.5.3.8 0 .2 0 .3-.3.5-1 .6-2.3.8-4.2.4-.3 0-.7 0-1.3-.2L194 33c-2-.4-3.7-.2-4.7.5-.3.2-.5.6-.5 1 0 .3 0 .6.2 1 .2.2.6.5 1.6 1h1.8c.6.4 1.2.8 1.6 1.3l.2.5v.2h-.2l-1 .5c-.3.3-.5.8-.7 1.6v.3zm-1.6-4v.2c-.4.8-.3 1.5 0 2 .5.5.8 1 1.2 1 0-.7.3-1.3.8-1.6l.8-.4c-.4-.5-.8-1-1.4-1-.6-.3-1-.3-1.5 0zm-.7-6.4c-1 0-1.7.2-2 .5-.7.6-1 1-1 1.6-.2.6 0 1.2.3 1.7l1.2 1.2c-.2-.3-.3-.7-.2-1 0-.6.3-1 .7-1.4 1-.7 2.8-1 5-.5l1.3.2 1.3.2c1.7.2 3 0 3.8-.5v-.2-.4c-.7-1-1.2-1.4-1.6-1.6 0 .3-.2.5-.3.6-.8.6-2 .7-4 .3l-1.2-.2c-.5 0-.8 0-1-.2l-2.3-.2z"/>
    </g>
    <g>
      <path fill="#4d2b15" d="M200.8 41.8v-.3h-1.4c-1 .3-1.5.7-1.6 1v.7c.2.4.4.5 1 .5l1-.2c.4 0 .8-.3 1-.5v-1.2zm-4 9.5c-.4-1.6.2-2.6 1.8-3 0-.5 0-1-.2-1.2v-.4s-.2 0-.3-.2c-1.6 0-2.8.2-3.6.3l-.4.5c-.3-.3-.6-1-1-2v-.8c.3-.2.5-.3.8-.3 1.4-.2 2.7-.3 4 0l-.4-1.2c-.3-1-.4-1.8-.3-2.4.3-.8 1-1.3 1.8-1.6 1.4-.3 2.7 0 4 .8 1 .7 1.8 1.8 2 3.2 1 3.6 1.3 5.8 1.2 6.8h-1.2c-.5.2-1 .5-1.2 1l-.2-.5c-.3-1-.2-1.6 0-2.2.4-.6 1-1 2-1.3l-.2-1.5c-.3-1-.7-2-1.4-2.6-.8-.8-1.7-1-2.7-.8l.2 1v.4l.3.5c.2 1.2 0 2-1 2.3l-.6.3-1.4.4 1.2 5h-1.3c-.3 0-.7.4-1.2 1l-.5-1z"/>
      <path fill="#3b2317" d="M197.3 52.7l-.2-.2-.5-1c-.3-1.8.3-3 1.8-3.3v-1l-.3-.5c-1.5 0-2.7 0-3.5.3l-.4.5c-.5-.4-1-1-1.2-2.3v-1h.2l.7-.4c1.3-.3 2.5-.4 3.7-.2l-.2-.8c-.3-1-.4-1.8-.3-2.5 0-1 .7-1.5 1.7-1.7 1.5-.3 3 0 4 .7 1.3 1 2 2 2.5 3.5.8 3.5 1.2 5.8 1 6.8v.2H205c-.6.2-1 .5-1.3 1h-.4l-.2-.6c0-1 0-2 .2-2.5.4-.7 1-1 2-1.4l-.3-1.3c-.3-1-.7-1.8-1.4-2.4-.7-.7-1.4-1-2.3-.8l.2.7V43c.2 0 .2.2.2.2.4 1.7-.3 2.4-1 2.7l-.7.3s-.4 0-1 .3l1 4.7v.5h-1.5s-.4 0-1 .7l-.2.2zm1.6-4.2h-.3c-1.5.4-2 1.3-1.7 2.8 0 .3.2.5.3.7l1-.8h1.2l-.6-2.7zm6.5-1.7c-1 .2-1.5.5-1.8 1-.3.6-.3 1.4 0 2.3.3-.3.6-.5 1-.6h1c0-.6 0-1.5-.2-2.6zm-12.2-2.3v.6c.3 1 .5 1.6.7 1.8l.3-.3 3.8-.4h.2v.2h.4l1.3-.4s.4 0 .5-.2c.7-.3 1-1 .7-2V43h-.2c-.3.4-.7.6-1.2.8-.6 0-1 .2-1 .2-.5 0-.7 0-1-.2l.2.4h-.3c-1.2-.3-2.5-.2-4 0 0 .2-.2.2-.4.3zm7-2.8c-.2 0-.5 0-.8.2-1 0-1.4.3-1.4.7l.2.5s0 .3.5.3l1-.2c.4 0 .7-.3 1-.5v-1h-.3zm1.5-.5c.8 0 1.5.4 2.2 1l.7 1V43c-.3-1.5-1-2.5-2.2-3.2-1-.8-2.3-1-3.6-.7-1 .3-1.5.7-1.6 1.4 0 .6 0 1.2.2 2 0-.4.7-.8 1.7-1 .6 0 1-.2 1.5 0h.2l.8-.2z"/>
    </g>
  </g>
  <g transform="translate(-206.76 -128.036)">
    <defs>
      <circle id="a" cx="320.7" cy="238" r="90.5"/>
    </defs>
    <clipPath id="b">
      <use width="100%" height="100%" xlink:href="#a" overflow="visible"/>
    </clipPath>
    <g clip-path="url(#b)">
      <path fill="#0a8a4d" d="M234.8 184l153 153.5-4.6 4.6-153-153.4z"/>
      <path fill="#ece755" stroke="#fff04c" stroke-width=".199998" stroke-miterlimit="10" d="M230.2 188.5l153 153.5-5 5-153-153.4z"/>
      <path fill="#ee3035" d="M225.6 194l153 153.6-5 5-153-153.5z"/>
    </g>
  </g>
  <g>
    <path fill="#be1b31" stroke="#be1b31" stroke-width=".2" stroke-miterlimit="10" d="M18.7 77.7c-1 2-3.3 3.3-6.4.7-2-1-5-1.5-6.8-2.7C3.8 70 16.2 72.4 14 70c-1.8-.4-3.7-1.4-5.6-2-1-5.8 3.7-1.7 6.7-1.3 6-1 7.6 6.8 1.7 5.8-5 .3-12.4-.3-4 2 1.7 1.2 5.7 1.3 6 3.2zM16 85.8c-2 6-13 3-11-3.5 1.8-5.3 11.5-1.8 11 3.5zM5 100.4c-2.6-1 0 4.4-2.6 3.6-2.8.3-1-4-1-5.8 4.4.4 9.2 0 13.2 1-.2 2 .4 4.4-.8 5.7-3.3.6 0-4.7-2.8-4.2-2.4-1-.2 3-2.3 2.4-2.6.2 0-4-3.7-2.8zM14.3 109c1.2 3.8-3.7 4-6.5 4.8-2 0-7.7 3.5-7-.2 8 0 1-4.8-.4-6.5 2.3-1.6 10.3 1.7 14 2zM15.2 120.2c1 3.3-1.5 4-3.8 4.2-3-1.6-5 1-7.8 2.4-7-.7 7.7-6 2.6-5-2 0-6.3 2.4-5-1.6-.6-4 4-1.5 6.4-2.8 2 0 6.3-2 7 .5.2.6 0 1.7.6 2.2zM16.5 129c-1.2 2-5 1.7-7.3 2.4-4.4-.4-.6 6.3-5.6 4.7.7-2-1.5-4.2-1.2-6.5 4.2-1 8.4-1.7 12.7-2.4.8-1.5 1.3 1.4 1.5 2zM20 142c0 5-7 .3-10.2 1.3-1.7-.5-4.7 1.4-5-1.3 3.5-1.5 7.8-3.3 10.6-6.6 7 .2-4.8 6.3.8 6 1.3.2 2.8 0 4 .6zM17.6 159c-4 1 4-6.4-1-3.4-2 .6-4.7 3.8-6 .5-1.5-2 4.4-2.6 5.8-4.4 4-5 9.3.5 4.6 3.7-5 5 6.7-1.5 6.4 5-3.6 2.2-8 4.4-11.5 5.8-2.2-2.7 0-4 2.6-5 2.6-1.3 4.5-2.2-1-2zM30.7 163.3c3 2.5-1 5.3-3 7.6-1.5 1-4.5 7-6 3.6 7-4.4-1.7-4.7-3.8-5.3 1-2.7 9.4-4.3 12.7-6zM37.4 172.2c2.6 2.2 1 4.2-1 5.6-3.3.3-3.5 3.6-5 6.3-6.2 3.3 3-9.3-.7-5.6-1.6 1.2-4 5.5-5 1.3-2.6-2.8 2.7-3.4 3.8-5.7 1.8-1 4.3-5 6.2-3.3.6.4 1 1.5 1.7 1.5zM44.4 179.7c2.8 2 1.4 4.2-.3 5.7-3.3.7-3 4-4.4 6.8-5.8 3.8 2-9.6-1.2-5.6-1.5 1.3-3.4 5.8-4.8 1.8-3-2.5 2.2-3.6 3-6 1.8-1.3 4-5.5 6-4 .5.4 1 1.4 1.8 1.3zM47.7 186c2.4 1.4 1.4 3-.2 4.4-2 2-3.5 4.6-5.7 6-3-1.5 1-4 2.2-6 1.2-1.5 2.3-3.2 3.7-4.3zm4.6-2.4c1.5 2-2.7 3-2 .4.2-.7 1.4-1 2-.4zM54.6 188.7c3.8 1.3 1 5.3 0 8-1.2 1.7-2 8.4-4.4 5.6 5-6.4-3.3-3.7-5.5-3.6 0-3 7.4-7.3 10-10zM56 206.3c-2.3-4 2.2-11 6.4-12.2 5 0 2.3 9.8 1.2 3.8-2.5-3-5 1.8-5.8 4-2.8 5.3 7.2 2 2-.2.4-4 7.4 0 4.4 2-1.7 2.3-4.6 6-7.6 3 0-.2-.5 0-.5-.3zM67 207.3c-2 2 4 1.5 2.3 3.8-.8 2.8-4-.5-5.8-1.2 2-4 3.4-8.5 5.7-11.8 1.7.8 4.3 1 5 2.8-.5 3.3-4.2-1.8-4.7 1-1.8 2 2.7 1.4 1.3 3-.7 2.6-3.5-1.4-4 2.5z"/>
    <path fill="#3b2317" d="M86.7 205.6c5.7 2.2 2.3 13-4 10.7-5.2-2-1.3-11.5 4-10.7z"/>
    <path fill="#3b2317" d="M100.6 208c2.3.5 4 2.6 2 6-.7 2.4-.8 5.2-1.5 7.3-5.3 2.7-5.2-10-7-7.4-.2 1.8-.8 3.8-1 5.8-5.6 2-2.4-3.4-2.6-6.4-2-5.6 5.5-8.5 5.5-2.5 1 4.6 1.8 12 2.6 3.4 1-1.8.2-5.8 2-6.4zM107.5 208c1.8 1.8.4 5.4.4 7.8-1.7 4 6 2.3 3 6.6-1.8-1-4.6.4-6.8-.5.3-4.4.7-8.7 1.2-13-1.5-1.2 1.6-.7 2-1zM118.4 208.3c3.2-.2 3.8 1 3 4-.7 3.3.8 8.6-3.7 10-5-1-4-7.2-4.4-11-1-4 4.4-2.5 3 .8.2 2.3-.6 5.2 1 6.8 1.5-2.5.8-7.4 1-10.5zM127 207c1.8 3-2.5 4.8 2.2 6.7 4 3.6-4 11.3-5 5.7 10-1.8-5-6.4.4-11.2.5-1 2-.5 2.5-1z"/>
    <path fill="#be1b31" stroke="#be1b31" stroke-width=".2" stroke-miterlimit="10" d="M146 204.8c2-.3 4.2.7 4 4.3.4 2.2 1.5 4.4 1.7 6.5-3.2 4.2-8.4-6.2-8.6-3.3.6 1.7 1 3.6 1.6 5.2-4.3 4.3-3.6-4-5.3-6.5-2-7 6-2.6 7 1.5 3.8 6.2.4-1.7 0-4.2 0-1.2-1.3-2.7-.2-3.5z"/>
    <path fill="#be1b31" stroke="#be1b31" stroke-width=".2" stroke-miterlimit="10" d="M153.3 202.7c5.8-1.8 9 9.2 2 10-4-.2-6-7.8-2-10zM162.3 197.4c2.4-2.5 4.7 1.3 6.5 3.2 1.4 1 5.8 5.7 3 5.2-4.6-6.2-3.5 2.6-5.6 3.8-1.7-3.5-2.8-8.2-4-12.2zM169.6 193c2.4.5 3.4 4 5 6 1 1.4 6-.7 5 2.2-2 .6-4 4.6-5.6 2.5-2-3-4.2-7-6-9.5l1.6-1.2zM186.6 190.3c1.7 3.5-6.6-2.2-3 1.6 1.3 1.6 5 3.8 1.3 5.3-2-.5-5.4-5.5-7.4-7.8.2-6.3 10 3.6 6.3-3.2-2.8-5.5 4.6-5 6 0 2.4 1.8 4.4 6 0 4.8-1.5-1.2-2.6-3-4-4 0 1 .7 2 .6 3.3zM187.3 178.2c1.6-3.2 5-.2 7.3 1 1.6.7 7.2 3.6 4.3 4-6.3-4.4-2.5 3.6-4.2 5.4-2.7-2.8-5.2-7-7.5-10.4zM193.6 170.2c1.3-3 4.7-3.5 5.6-1-.7 1-2.2 3.3-1.8 3 1.7 1.5 2.7 1.5 4 3 1 1 4.2 1.8 2 3.4-2 .8-4.4-3-6.5-4-2.2 0-8.7 1-3.4-4.4zM199 163.3c1.3-3.7 4-1.4 6 0 .3 3.3 6.8 0 6.3 3.5-.7 2-10.2-1.7-4.2 1 4.5.7 1.4 5-.2 4.3-3-2-7-3.3-9.2-6.2.3-.7 1.3-1.7 1.3-2.5zM200.8 156c1.4-1.8 3 1.8.7 1.7-.7-.2-1.2-1.2-.7-1.8zm3 3.5c.7-2.7 2.4-1.5 4-.4 2 1.3 4.5 2.3 6 4-.8 3-4-.5-6.2-1.2-1.2-.8-3-1.3-4-2.3zM213.8 153.2c3 2.5-7 .8-2 2.7 2 1 6 1.5 3.4 4.3-2 .3-7.2-2.8-10-4-2.3-6 10.7-1 4.5-5.6-4.7-4 2.2-6.6 5.5-2.5 3 .6 6.6 3.8 2 4.4-1.8-.7-3.5-1.7-5.3-2.2.5 1 1.4 1.7 1.8 2.8z"/>
    <path fill="#be1b31" stroke="#be1b31" stroke-width=".2" stroke-miterlimit="10" d="M210.7 141.2c2.5-5.6 13-.7 9 5-3 3-9.8-.6-9-5z"/>
    <path fill="#be1b31" stroke="#be1b31" stroke-width=".2" stroke-miterlimit="10" d="M213.5 129c.7-1.8 2.7-3.3 5.7-1.4 2 .8 4.5 1 6.4 1.8 2 5-9.6 4.2-7 6 1.6.2 3.4.8 5 1.2 1.7 5.8-5.2 1-8.2 1.3-7-1.7.8-6.6 4.8-5.3 7.3-.3-1.2-1.3-3.5-2.2-1.2-.5-3-.2-3.2-1.5zM211.8 123c1-2.3 3.6 1.5 1 1.4-.7-.2-1.2-.7-1-1.4zm4 2.4c-.2-2.8 1.8-2.3 3.7-1.8 2.4.4 5 .5 7 1.5.3 3.3-4 1-6.2 1.2-1.5-.3-3.2-.3-4.5-.8z"/>
    <path fill="#be1b31" stroke="#be1b31" stroke-width=".2" stroke-miterlimit="10" d="M215.7 118c1-6 12.3-3.5 9.8 2.8-2.2 3.7-9.7 1.7-9.8-2.7zM214.5 107c-.3-5.4 8-6 9-1 1.3 0 4-.7 4.2.6 2.6 5-4.7 2.4-7.2 3.5-3.7-1-6 2.3-6-3z"/>
    <path fill="#be1b31" stroke="#be1b31" stroke-width=".2" stroke-miterlimit="10" d="M214.5 98.8c-1.2-3.8 2.5-3.8 4.8-3.7 2.3 2.3 5.3-4.4 7.2-1.3.6 2-9 5-2.6 3.5 3.6-2.3 3.8 3 2.2 3.5-3.6.2-7.6 1.7-11 .8-.3-.8 0-2.2-.7-2.7zM222.2 89.7c2.4 0-1-4 1.7-3.7 2-.6 1.3 3.3 1.7 5-3.8.5-8 1.8-11.6 2 0-1.7-1.7-4.5 0-5.2 2.3-1 .5 4.6 3.4 2.8 1.3-.3-1-3.2 1.6-2.6 1.2.4.5 3.2 3.2 1.7zM222 80.4c-6.5-5.5 7.4 0 .7 3.7-3 1.4-9.3 4.3-10.7-.2 0-4.6 4.5-4.6 2.3-.2 2.4 1.6 5.5-.2 8-1.2.2-.7 0-1.4-.3-2z"/>
    <path fill="#be1b31" stroke="#be1b31" stroke-width=".2" stroke-miterlimit="10" d="M210.6 75.5c-1.4-6 9.8-8.4 10-1.5-.4 4.2-8 5.5-10 1.5z"/>
    <path fill="#be1b31" stroke="#be1b31" stroke-width=".2" stroke-miterlimit="10" d="M216.2 63.6c-7.3-4.3 7.3-1.2 1.2 3.7-2.7 1.7-8.4 5.6-10.5 1.3-.8-4.5 3.5-5.2 2.2-.5 2.6 1.3 5.3-1 7.5-2.4.2-.7-.2-1.3-.5-2zM211.8 58.6c2.4-.5-2.2-3.5.6-4 2-1.2 2.3 2.8 3.2 4-3.5 1.8-7 4.3-10.5 5.5-.6-1.4-3-3.6-1.6-4.8 2-1.5 2 4.3 4 1.7 1.2-.8-1.7-3 1-3 1.2 0 1.3 2.8 3.4.6z"/>
  </g>
</svg>
