<?xml version="1.0" encoding="UTF-8" standalone="no"?>
<svg
   xmlns:dc="http://purl.org/dc/elements/1.1/"
   xmlns:cc="http://creativecommons.org/ns#"
   xmlns:rdf="http://www.w3.org/1999/02/22-rdf-syntax-ns#"
   xmlns:svg="http://www.w3.org/2000/svg"
   xmlns="http://www.w3.org/2000/svg"
   xmlns:sodipodi="http://sodipodi.sourceforge.net/DTD/sodipodi-0.dtd"
   xmlns:inkscape="http://www.inkscape.org/namespaces/inkscape"
   viewBox="0 0 157.7 12.1"
   version="1.1"
   id="svg6"
   sodipodi:docname="tigrinya2.svg"
   inkscape:version="0.92.3 (2405546, 2018-03-11)">
  <metadata
     id="metadata12">
    <rdf:RDF>
      <cc:Work
         rdf:about="">
        <dc:format>image/svg+xml</dc:format>
        <dc:type
           rdf:resource="http://purl.org/dc/dcmitype/StillImage" />
      </cc:Work>
    </rdf:RDF>
  </metadata>
  <defs
     id="defs10" />
  <sodipodi:namedview
     pagecolor="#ffffff"
     bordercolor="#666666"
     borderopacity="1"
     objecttolerance="10"
     gridtolerance="10"
     guidetolerance="10"
     inkscape:pageopacity="0"
     inkscape:pageshadow="2"
     inkscape:window-width="1853"
     inkscape:window-height="1025"
     id="namedview8"
     showgrid="false"
     inkscape:zoom="6.1339385"
     inkscape:cx="79.492607"
     inkscape:cy="-38.37092"
     inkscape:window-x="67"
     inkscape:window-y="27"
     inkscape:window-maximized="1"
     inkscape:current-layer="svg6" />
  <g
     aria-label="ትሕቲ ዕድመ መርዓ ይትረፍ"
     transform="translate(-1.2172583,-0.65154885)"
     style="font-size:14.89999962px;line-height:125%;font-family:sans-serif;letter-spacing:0;word-spacing:0;fill:#4d2b15;stroke-width:0.40000001"
     id="text4">
    <path
       style="font-family:'Abyssinica SIL';-inkscape-font-specification:'Abyssinica SIL'"
       d="M 3.7324219,0.6015625 C 3.4523681,0.71769813 2.9515275,0.54652622 2.8476562,0.89453125 3.3065316,1.3868732 3.2674912,2.3371746 2.6347656,2.6679688 3.4138122,3.0710799 4.3110428,2.7232286 5.1035156,2.6328125 5.9366874,3.0651333 5.378734,4.1002186 5.4226249,4.7952627 5.3729692,5.4717344 4.4718278,5.19733 4.0327619,5.3014135 3.1852527,5.3650048 2.3377435,5.4285962 1.4902344,5.4921875 1.6408403,6.2305098 1.6516838,7.0907609 1.15625,7.7089844 2.2913327,8.4912173 3.9097763,7.3163083 3.84375,6.0273438 4.2820495,6.1371354 4.9693711,5.6546756 5.2226562,6.1777344 5.0047548,7.8652212 4.5784169,9.5566289 4.6289062,11.259766 c 0.3189313,0.703976 1.2096158,0.363936 1.7753907,0.28125 0.3617575,0.04896 1.1801834,-0.254491 0.7070312,-0.667969 C 6.5098028,10.17607 7.1065891,9.2239796 7.0835266,8.4256835 7.2113767,7.5338025 7.3385317,6.641821 7.4667969,5.75 7.8803577,5.8719736 8.5506311,5.3599597 8.7714844,5.9199219 8.6543341,7.1251483 10.450365,7.6758149 11.189453,6.8378906 11.007074,6.2669203 10.738061,5.6409551 11.019531,5.0546875 10.988979,4.4833472 10.180693,4.9631709 9.7996787,4.8607838 9.0565868,4.9160412 8.3132711,4.9684174 7.5703125,5.0253906 7.5694273,4.1134366 8.1929685,3.0262072 7.5664062,2.2265625 6.9045923,1.8498802 6.1338385,2.205632 5.4238281,2.1816406 5.9944319,1.5903358 5.449579,0.57971717 4.6688801,0.62454088 4.3599013,0.55729043 4.0448065,0.5916997 3.7324219,0.6015625 Z"
       id="path822"
       inkscape:connector-curvature="0" />
    <path
       style="font-family:'Abyssinica SIL';-inkscape-font-specification:'Abyssinica SIL'"
       d="m 15.216797,1.96875 c -0.2703,0.071138 -1.188866,-0.01524 -0.797909,0.3964326 0.389857,0.5600817 0.244715,1.3821467 -0.07904,1.8652862 C 15.22315,4.530281 16.142617,4.1967998 17.015629,4.0253906 16.947689,4.8972055 16.781348,5.7566604 16.683598,6.625 14.83881,6.5137508 12.695479,7.5224188 12.3468,9.4982775 c -0.130162,0.6219855 -0.369284,1.5132135 0.182501,1.9782845 0.706616,0.30685 1.460447,-0.09042 2.189453,-0.09961 0.15687,-0.246271 -0.34994,-0.572226 -0.234375,-0.896484 -0.08546,-1.2626941 0.338518,-2.9499459 1.775391,-3.2324221 0.585105,0.058864 0.137953,0.852846 0.130859,1.1914062 0.03043,0.9891817 -0.486027,1.9910509 -0.220703,2.9492189 0.628052,0.488483 1.468356,0.0053 2.183594,0.130859 0.519768,-0.05909 0.420726,-0.327653 0.04883,-0.5 -0.466683,-0.644133 0.01456,-1.4530305 -0.0035,-2.1643071 0.09305,-0.6652685 0.185346,-1.3306433 0.278841,-1.9958489 0.894097,-0.1618412 1.633263,0.7543084 1.471282,1.6036988 0.110578,0.9579123 -0.02494,1.9764902 0.270906,2.8923952 0.595933,0.549422 1.471295,0.0017 2.201104,0.08755 0.419473,-0.202212 -0.293127,-0.558862 -0.215275,-0.851416 C 22.130747,9.2234017 22.480107,7.6807576 21.742181,6.4391728 21.060935,5.7385327 20.018828,6.1529158 19.202785,6.2780601 18.550171,6.2620363 18.843572,5.4488175 18.902344,5.0703125 18.939799,4.5138473 19.244087,3.910515 18.998047,3.3867188 18.443396,3.0415373 17.758126,3.5602765 17.216797,3.3925781 17.086574,3.0366953 17.200859,2.5625199 16.774674,2.3486423 16.343384,2.0007057 15.751691,1.9367547 15.216797,1.96875 Z"
       id="path824"
       inkscape:connector-curvature="0" />
    <path
       style="font-family:'Abyssinica SIL';-inkscape-font-specification:'Abyssinica SIL'"
       d="m 29.53125,2.1738281 c -0.520597,0.1275146 -1.138643,-0.086703 -1.601562,0.1738281 0.842228,0.60092 0.31821,1.72698 0.277724,2.5592588 0.05256,0.7335885 -0.966509,0.3181313 -1.433479,0.4947297 -0.812665,0.06078 -1.62533,0.1215598 -2.437995,0.1823397 0.122376,0.6978014 0.144743,1.4987232 -0.310547,2.0878906 1.11337,0.6737813 2.567406,-0.5393181 2.445312,-1.7441406 0.494491,0.136334 1.22516,-0.3864852 1.568359,0.1269531 -0.150236,1.7069611 -0.622357,3.4221372 -0.599609,5.1484375 0.341854,0.707797 1.285669,0.270359 1.881038,0.299614 0.506394,0.07934 1.443853,-0.465649 1.433415,0.325386 0.459409,0.897983 1.850894,0.826438 2.501953,0.226563 -0.535268,-0.461118 -0.702201,-1.405686 -0.183593,-1.958985 -0.905794,-0.2494869 -1.970234,0.0039 -2.482422,0.810547 -0.472721,0.168979 -1.2533,-0.02856 -1.098643,-0.664067 0.124261,-1.5432055 0.423229,-3.0649195 0.618174,-4.5996049 0.460377,0.1621738 1.198392,-0.398336 1.478516,0.1621094 -0.188102,1.1843548 1.509579,1.7527752 2.240234,0.9863281 C 33.497643,6.2067847 33.449431,5.5419038 33.646484,4.90625 33.412027,4.818419 32.956896,4.978684 32.653309,4.951019 31.8307,5.010646 31.008262,5.0727552 30.185547,5.1308597 c 0.0058,-0.93879 0.55264,-1.9162739 0.109375,-2.8066406 C 30.084864,2.1382233 29.789559,2.1742067 29.53125,2.1738281 Z"
       id="path826"
       inkscape:connector-curvature="0" />
    <path
       style="font-family:'Abyssinica SIL';-inkscape-font-specification:'Abyssinica SIL'"
       d="m 45.509766,1.9726562 c -0.481411,0.1483996 -0.994529,0.08789 -1.447266,0.3203126 0.228802,0.5108228 0.186842,1.04619 0.109375,1.5800781 0.09513,0.5288666 0.04821,1.2431257 -0.59375,1.3769531 -1.314824,0.6730304 -1.920346,2.1792077 -1.903366,3.5972351 -0.07552,0.9312862 -0.123735,2.3108549 0.936569,2.6957339 1.067894,0.26411 1.984963,-0.549992 3.006445,-0.687333 1.295727,-0.403451 2.220585,-1.7274747 2.196824,-3.1045153 0.170159,-1.0723035 0.04863,-2.6574534 -1.227987,-2.9655895 -0.593513,0.042262 -0.621003,-0.3743665 -0.547548,-0.8499843 0.0035,-0.6322214 0.218649,-1.3792759 -0.0918,-1.9433594 -0.135663,-0.06056 -0.294964,-0.032513 -0.4375,-0.019531 z m -0.330078,3.1757813 c 0.7846,0.1409822 0.786467,1.1605421 0.721658,1.7911709 -0.14297,1.2247584 -0.187117,2.6765321 -1.155252,3.5721106 -0.594379,0.41058 -1.311504,-0.283286 -1.094918,-0.9204249 0.06798,-1.3665789 0.175288,-2.7901674 0.76484,-4.0405129 0.176533,-0.2381204 0.463059,-0.4050069 0.763672,-0.4023437 z"
       id="path828"
       inkscape:connector-curvature="0" />
    <path
       style="font-family:'Abyssinica SIL';-inkscape-font-specification:'Abyssinica SIL'"
       d="m 54.462891,1.9960938 c -1.54835,0.1186861 -3.386718,0.9273343 -3.667969,2.6386718 -0.148738,1.7025615 0.56162,3.3489288 1.521484,4.7167969 -0.978515,0 -1.957031,0 -2.935547,0 0.087,0.6664835 0.176199,1.4625725 -0.314453,2.0019535 0.958596,0.637789 2.568998,0.0571 2.628906,-1.166016 0.293976,-0.576651 1.075112,-0.2008446 1.581251,-0.3046875 0.601822,0 1.203645,0 1.805468,0 -0.164198,1.2931275 1.506644,2.2252365 2.525391,1.4374995 0.141942,-0.284849 -0.30252,-0.506656 -0.267578,-0.83789 -0.08757,-0.408527 -0.06792,-0.8352972 0.0293,-1.2402345 -0.91749,-0.028519 -1.893296,0.056281 -2.775391,-0.041016 -0.666651,-0.8971028 -1.146999,-1.924598 -1.433594,-3.0039063 1.186021,-0.064616 2.485758,-0.4801672 3.148438,-1.5351562 0.421432,-0.012593 1.272552,-0.1681936 1.240234,0.4980468 0.04729,1.1868553 1.720695,1.5310709 2.523438,0.9335938 -0.517673,-0.487242 -0.544368,-1.2694296 -0.457032,-1.9296875 -1.03125,0 -2.0625,0 -3.09375,0 0.305943,-0.839367 0.0064,-2.1497219 -1.07799,-2.154849 -0.32444,-0.057581 -0.653829,-0.01851 -0.980603,-0.01312 z M 54.085938,2.546875 c 0.709713,0.1506434 0.659094,1.1570529 0.408203,1.6796875 -0.230529,0.650092 -0.805469,1.1145911 -1.445313,1.3320313 C 52.888456,4.525975 52.802833,2.8809849 54.085938,2.546875 Z"
       id="path830"
       inkscape:connector-curvature="0" />
    <path
       style="font-family:'Abyssinica SIL';-inkscape-font-specification:'Abyssinica SIL'"
       d="m 72.246094,3.1894531 c -0.443564,0.032711 -0.867942,0.4621631 -1.302953,0.1894403 -1.899709,-0.1089782 -3.763084,0.4059457 -5.654524,0.4853285 -1.294406,0.094627 -2.452296,0.8304135 -3.142029,1.9175536 -0.662897,0.8837792 -1.244886,2.3087568 -0.406354,3.2631464 0.692655,0.6250198 1.669064,0.2982919 2.393637,-0.068211 C 65.032568,8.7490139 66.323098,9.2710855 66.82945,8.2158 67.401417,7.1604902 67.720325,5.9690451 68.113281,4.8535156 68.165167,4.4436 68.64807,3.7670654 69.080078,4.0761719 c 0.07158,0.9547009 -0.412983,1.8881621 -0.498648,2.8436942 -0.05115,0.4584948 -0.218144,1.27206 0.478638,1.2886053 0.902587,0.078448 1.738105,-0.4385526 2.653577,-0.2911172 1.484674,0.152214 2.558272,-1.4069119 2.404501,-2.7516868 0.04709,-1.0111313 -0.739563,-2.1964847 -1.872052,-1.9762143 z m -0.972656,0.9296875 c 0.832215,0.1341915 0.687899,1.2049335 0.622859,1.8186846 -0.04663,0.5580175 -0.289336,1.5274169 -1.031063,1.3610029 -0.460191,-0.2505024 -0.211592,-0.9819703 -0.135126,-1.4230314 0.217413,-0.5455862 0.08158,-1.2152187 0.385126,-1.7078279 0.04507,-0.032957 0.10338,-0.049637 0.158204,-0.048828 z M 65.867188,4.359375 C 66.427311,4.1960211 66.161412,4.79281 66.054137,5.0827579 65.60177,6.020886 65.341399,7.0514455 64.822266,7.953125 64.596942,8.4125898 63.868233,8.6005605 63.669922,8.0214844 63.486674,7.0322292 63.976578,6.0254337 64.480064,5.1981785 64.799918,4.7438848 65.29373,4.3778209 65.867188,4.359375 Z"
       id="path832"
       inkscape:connector-curvature="0" />
    <path
       style="font-family:'Abyssinica SIL';-inkscape-font-specification:'Abyssinica SIL'"
       d="m 92.878906,3.1894531 c -0.443563,0.032711 -0.867941,0.4621631 -1.302952,0.1894403 -1.89971,-0.1089782 -3.763085,0.4059457 -5.654525,0.4853285 -1.294236,0.094757 -2.452657,0.8301352 -3.141725,1.9177876 -0.659626,0.8820881 -1.245883,2.3101533 -0.406657,3.2629124 0.654197,0.5828652 1.614831,0.3534601 2.298828,-0.042969 0.92039,-0.2896809 2.253265,0.3042906 2.788113,-0.7824349 0.585423,-1.0913309 0.922425,-2.3183192 1.321262,-3.4714713 0.02044,-0.4154537 0.665384,-1.0537972 0.984375,-0.5878907 -0.08134,1.2652134 -0.773632,2.5202977 -0.541016,3.8007813 0.67715,0.6193563 1.604679,-0.015603 2.386692,-0.035538 0.892038,0.037592 1.934256,0.025521 2.517512,-0.77342 0.796645,-0.9791499 0.904184,-2.5854458 0.01963,-3.5601825 C 93.819901,3.2598455 93.339913,3.1011199 92.878906,3.1894531 Z M 91.908203,4.1191406 C 92.7387,4.2538018 92.593282,5.3252731 92.529109,5.9378252 92.482104,6.4965201 92.243301,7.4666225 91.5,7.3007812 91.041179,7.049336 91.286503,6.3179691 91.362253,5.8756383 91.577474,5.3303071 91.443934,4.6576044 91.75,4.1679688 c 0.04507,-0.032957 0.10338,-0.049637 0.158203,-0.048828 z M 86.5,4.359375 C 87.058151,4.1958636 86.797526,4.7912141 86.689189,5.0809164 86.236436,6.0197817 85.97336,7.0501106 85.455078,7.953125 85.232039,8.4089815 84.514131,8.6011807 84.306641,8.03125 84.112361,7.0388774 84.60946,6.0283385 85.112876,5.1981785 85.432731,4.7438848 85.926543,4.3778209 86.5,4.359375 Z"
       id="path834"
       inkscape:connector-curvature="0" />
    <path
       style="font-family:'Abyssinica SIL';-inkscape-font-specification:'Abyssinica SIL'"
       d="m 102.10742,2.6855469 c -1.91219,0.091 -4.011119,0.4047173 -5.390623,1.8417969 -1.024144,1.4652211 -0.813147,3.3641827 -0.827741,5.05554 -0.0174,0.8507562 0.329597,2.0649012 1.394147,1.9932882 1.095892,0.03845 2.125171,-0.352377 3.171877,-0.613281 0.50784,0.908199 1.88841,0.908116 2.58789,0.234375 -0.46291,-0.449095 -0.57346,-1.2052887 -0.31641,-1.7871098 -0.86829,-0.2323292 -2.05338,-0.048681 -2.39594,0.8905468 -0.482486,0.48929 -1.346107,0.495302 -1.938042,0.257891 -0.678774,-0.6190188 -0.378017,-1.6693517 -0.438448,-2.4821455 0.05616,-1.494148 0.06222,-3.3315942 1.370089,-4.3244954 0.377383,-0.235603 0.825761,-0.2987416 1.261721,-0.3203125 -0.20698,0.9219738 0.70484,1.5838139 1.58064,1.4643275 0.45286,0.037098 0.91711,-0.049825 1.32561,-0.2475306 -0.40211,-0.5750708 -0.57105,-1.2816387 -0.59961,-1.9746094 -0.26172,0.00391 -0.52344,0.00781 -0.78516,0.011719 z"
       id="path836"
       inkscape:connector-curvature="0" />
    <path
       style="font-family:'Abyssinica SIL';-inkscape-font-specification:'Abyssinica SIL'"
       d="m 108.85352,2.171875 c -1.40002,0.090752 -3.06785,0.3190135 -3.81055,1.6875 -0.59481,0.8855281 -0.80182,2.3992708 0.29883,2.9902344 0.99057,0.4133637 2.04171,-0.183984 3.06229,-0.022653 0.43732,0.0082 0.81478,-0.3494616 1.16232,-0.4597691 0.62994,0.2018864 0.42313,0.9273627 0.17569,1.3473551 -0.39807,1.176496 -1.01876,2.3016846 -1.25968,3.5178796 0.34408,0.697984 1.23157,0.193752 1.81677,0.208489 0.23057,0.02507 1.04402,0.0036 0.71253,-0.362786 -0.45276,-0.656875 0.19819,-1.4030536 0.36889,-2.051144 0.31774,-0.8606138 0.84446,-1.7114811 0.79322,-2.648075 -0.52892,-0.6932468 -1.51348,0.2288043 -2.11719,-0.3144531 -0.11649,-0.5108626 0.40741,-0.9658833 0.41201,-1.4972103 0.27659,-0.9910747 -0.11092,-2.5324755 -1.38104,-2.4063195 -0.078,0.00365 -0.15606,0.0073 -0.23409,0.010952 z m -0.8711,0.6542969 c 0.73512,0.01826 0.74887,0.9389504 0.5586,1.4550781 -0.14137,0.7819677 -0.30317,1.9458039 -1.25782,2.0957031 -0.72781,0.079825 -0.84378,-0.8368403 -0.62897,-1.3452787 0.20876,-0.7717026 0.3015,-2.1224177 1.32819,-2.2055025 z"
       id="path838"
       inkscape:connector-curvature="0" />
    <path
       style="font-family:'Abyssinica SIL';-inkscape-font-specification:'Abyssinica SIL'"
       d="m 125.19141,2.4804688 c -1.54257,-0.013107 -3.31546,0.728663 -3.66211,2.3867187 -0.46457,1.7468791 0.14253,3.57073 1.01758,5.0839844 -0.79789,0.2252871 -1.59499,0.4533501 -2.39258,0.6796871 0.38059,0.641557 0.2476,1.470166 -0.13282,2.080079 1.25928,0.511211 2.77788,-0.884889 2.29883,-2.185547 1.82592,-0.464701 3.68613,0.96489 5.4593,0.05677 0.96544,-0.385976 1.67465,-1.4273994 1.52117,-2.4805985 0.25005,-0.5623575 -0.50443,-0.3580298 -0.80273,-0.3027344 -0.47979,0.1350503 -1.06374,-0.022553 -1.49219,0.1816407 0.56783,0.7630833 0.3427,2.2421972 -0.76758,2.3164062 -1.36987,0.273678 -2.35132,-1.1695104 -2.47633,-2.3467823 -0.0939,-0.31327 -0.33424,-1.0008361 0.21461,-1.0164989 1.6102,0.044904 3.44011,-1.0827646 3.4336,-2.84375 0.0747,-0.9234614 -0.74453,-1.7027019 -1.6625,-1.6160892 -0.18508,-0.00881 -0.37098,0.00781 -0.55625,0.00671 z m -0.43946,0.5664062 c 0.75401,0.1150108 0.67783,1.1344938 0.40039,1.6542969 -0.3028,0.7298265 -0.85973,1.3818471 -1.61328,1.6640625 0.0369,-1.0874681 -0.19572,-2.5635035 0.86701,-3.2510194 0.10906,-0.046863 0.22751,-0.067927 0.34588,-0.06734 z"
       id="path840"
       inkscape:connector-curvature="0" />
    <path
       style="font-family:'Abyssinica SIL';-inkscape-font-specification:'Abyssinica SIL'"
       d="m 132.74219,0.70117188 c -0.1688,0.0962666 -0.93543,-0.0261138 -0.71094,0.265625 0.34402,0.49371692 0.33759,1.30280522 -0.18359,1.67382812 0.74116,0.3421285 1.54809,-0.095573 2.26973,-0.1063721 0.75239,0.2563728 0.5613,1.1535877 0.44848,1.745336 0.0343,0.4602273 -0.0797,1.1864812 -0.7166,1.0630373 -1.07866,0.080453 -2.15733,0.1609055 -3.23599,0.2413582 0.12725,0.6972602 0.14289,1.4971382 -0.30859,2.0878906 1.11177,0.6728067 2.56636,-0.538886 2.44531,-1.7441406 0.49242,0.1364452 1.22398,-0.3853041 1.56445,0.125 -0.14189,1.708001 -0.6234,3.4272315 -0.5957,5.1562496 0.35286,0.725343 1.21573,0.222942 1.80274,0.201098 0.37417,0.07154 0.91991,-0.263531 0.43163,-0.542894 -0.46456,-0.713754 0.0182,-1.579491 0.0219,-2.352948 0.13796,-0.9572115 0.27545,-1.9144914 0.41369,-2.8716619 0.45989,0.161857 1.19806,-0.3976929 1.47656,0.1621094 -0.18344,1.1836244 1.50674,1.7515507 2.24219,0.9882813 -0.33422,-0.5834445 -0.37748,-1.2503525 -0.18359,-1.8867188 -0.26974,-0.083041 -0.75553,0.074736 -1.0929,0.052155 -0.78802,0.058498 -1.57625,0.1141958 -2.36413,0.1744074 0.0152,-0.9269319 0.52198,-1.8829442 0.12695,-2.7695313 -0.62706,-0.4745861 -1.47625,0.022176 -2.16211,-0.1386718 -0.0487,-0.3711257 0.34141,-0.8342647 -0.041,-1.1835938 -0.42258,-0.40964892 -1.1066,-0.3689453 -1.64843,-0.33984372 z"
       id="path842"
       inkscape:connector-curvature="0" />
    <path
       style="font-family:'Abyssinica SIL';-inkscape-font-specification:'Abyssinica SIL'"
       d="m 147.25,2.6660156 c -0.60265,0.085453 -1.22703,0.1506292 -1.81445,0.2636719 0.009,0.3681448 0.52861,0.710866 0.19826,1.1035103 -1.02844,2.04448 -3.61835,2.8733539 -4.3467,5.1230522 -0.39868,1.033833 0.29593,2.277554 1.41874,2.390713 1.04248,0.178609 2.0897,-0.158644 3.05782,-0.494229 0.41121,0.02628 0.47795,0.614726 0.92969,0.650391 0.60436,0.234744 1.53581,0.05024 1.85547,-0.457031 -0.56175,-0.413323 -0.62583,-1.2487829 -0.34571,-1.8457034 -0.92897,-0.2730952 -2.09279,0.1439349 -2.42382,1.0820314 -0.66034,0.27951 -1.62983,0.595818 -2.17774,-0.04102 -0.50234,-1.4412959 0.67535,-2.7203738 1.62025,-3.6520119 0.98607,-1.0971046 2.53903,-2.0097228 2.67377,-3.6136228 -0.0164,-0.325379 -0.30853,-0.6139831 -0.64558,-0.5097557 z"
       id="path844"
       inkscape:connector-curvature="0" />
    <path
       style="font-family:'Abyssinica SIL';-inkscape-font-specification:'Abyssinica SIL'"
       d="m 154.45898,2.6875 c -1.61394,-0.020595 -3.41573,0.5388999 -4.20117,2.0683594 -0.56273,0.9453931 -0.83896,2.3560494 0.0547,3.1992187 0.77808,0.5382794 1.78389,0.3422385 2.66992,0.3496094 -0.0248,1.0418156 -0.48792,2.0826825 -0.25,3.1035155 0.58787,0.476281 1.35627,-0.08627 2.02539,-0.01563 0.37686,-0.285215 -0.18571,-0.835507 0.0512,-1.233355 0.0797,-0.6539354 0.18048,-1.3052363 0.26907,-1.9580511 0.44287,0.175528 1.18081,-0.3646679 1.43946,0.1933593 -0.0513,1.0085285 1.05035,1.6489608 1.95508,1.3886719 0.16826,-0.016557 0.75414,-0.1777913 0.38672,-0.375 -0.43533,-0.5191112 -0.29154,-1.2648115 -0.17188,-1.859375 -0.79795,-0.062445 -1.62026,0.1050562 -2.43091,0.073476 -0.39783,-0.084116 -1.34419,0.34902 -1.06128,-0.3801168 0.10546,-0.7644617 -0.21298,-1.7586406 -1.11328,-1.8007813 -0.69855,-0.1394657 -1.41477,-0.076957 -2.11523,0.011719 0.26215,-1.6261071 2.04969,-2.5022911 3.57265,-2.2688416 0.40545,-0.099307 0.62951,0.2526548 0.58946,0.6086854 0.28786,0.9551796 1.67084,1.6014166 2.44921,1.0136718 -0.4487,-0.5815051 -0.25519,-1.3631411 -0.30859,-2.0390625 -1.27076,-0.00997 -2.53933,-0.1167815 -3.81055,-0.080078 z m -2.0996,3.2480469 c 0.77692,-0.026037 0.90214,0.890139 0.75122,1.4700186 0.0569,0.6142261 -0.85034,0.3467263 -1.08764,0.00861 -0.30269,-0.3684978 -0.30278,-0.9902386 -0.0679,-1.3790217 0.10916,-0.100174 0.26502,-0.1046429 0.4043,-0.099609 z"
       id="path846"
       inkscape:connector-curvature="0" />
  </g>
</svg>
